<svg xmlns="http://www.w3.org/2000/svg" viewBox="0 0 337.46 275.07"><title>counterparties</title><g id="Слой_2" data-name="Слой 2"><g id="Слой_1-2" data-name="Слой 1"><path d="M240.6.2a16.1,16.1,0,0,1,3,2.1c11.6,13.8,23.2,27.6,34.6,41.5,19,23.2,37.8,46.5,56.7,69.8,3.5,4.4,3.6,5.8-.9,9.2-9.2,7-18.6,13.7-27.9,20.5a3.66,3.66,0,0,1-4.8-.4,56.59,56.59,0,0,1-4.3-4.2,54.09,54.09,0,0,1-3.5-4.3c-.7,1.4-1.4,2.6-2,3.7-4.2,7.6-9.6,14.1-17.5,18.2a33.83,33.83,0,0,1-4.4,1.8,5.45,5.45,0,0,0-3.3,3,22.85,22.85,0,0,1-12,11.5c-.5.2-1,.5-1.6.7a1.86,1.86,0,0,0-1.1,2.7,22.65,22.65,0,0,1-13.2,27.5c-2.8,1.1-2.6,1.1-2.4,4a76.16,76.16,0,0,1,0,11.7c-.6,5.2-3.9,9-7.9,12a45.38,45.38,0,0,1-6,3.6c-1.4.7-2.1,1.5-1.8,3.3.7,4.4,1.1,8.8-.1,13.2-2.4,8.9-11.4,15.5-20.7,15.5a30.84,30.84,0,0,1-13.7-3.4c-6.6-3.2-13.3-6.4-20-9.6a2,2,0,0,0-.5-.1l-1.5,2.4c-2.6,4.1-5.2,8.2-8,12.3-3.8,5.6-9.2,7.7-15.7,6.2-11.9-2.7-21.2-9-26.4-20.3-1.2-2.7-2.6-3.4-5.3-3.9-12.8-2.5-23.1-8.6-27.2-22-.6-2.1-1.9-2.7-3.8-3-8.3-1.3-15-5.4-20.6-11.6-4.8-5.3-5.2-11.6-2.1-17.6,1.7-3.5,1.5-5.6-1-8.5-4-4.6-6.7-10-9-15.6-.3-.7-.6-1.4-1.1-2.5-.5.7-.7,1.2-1,1.6a24.9,24.9,0,0,1-2,3.2c-2.6,3-3.9,3.2-6.8,1.7-9.7-4.9-19.4-9.7-29-14.6-2-1-3.9-2.2-4.8-4.4V155c1-1.8,1.9-3.7,2.9-5.5q25.35-44.1,50.7-88.1c6.5-11.3,13.2-22.6,19.8-33.9,1.3-2.2,2.4-2.7,4.9-2.1a23,23,0,0,1,5,1.8C91,31,98.6,34.8,106.2,38.7a48.6,48.6,0,0,1,5.4,3.3c2.4,1.7,2.8,3.9,1.5,6.5-.6,1.1-1.1,2.3-1.7,3.4-.7,1.4-.5,2.3,1,3.1,10.2,5.7,20.3,11.4,30.4,17.2,3.5,2,7,3.9,10.5,5.9,19.8-14.5,39.7-28.5,59.3-43.3-.9-1.3-1.7-2.3-2.4-3.4a25,25,0,0,1-2.1-3.5c-1.2-2.7-.7-4.4,1.6-6.2,3-2.4,6.1-4.7,9.2-6.9,6.9-5,13.8-9.9,20.7-14.8C239.7.2,240.2.2,240.6.2ZM143.3,85.3c-13-7.4-25.7-14.6-38.4-21.8-.7,1.1-1.3,1.9-1.8,2.8Q77.75,110.1,52.4,154a3.69,3.69,0,0,0-.5,1.7c.5,8.9,3.9,16.8,8.8,24.1.4.6.9,1,1.3,1.5.3-.2.5-.2.6-.3a9.38,9.38,0,0,0,.9-1.2c3.3-5.1,8.1-7.3,13.9-7.6,6.8-.3,12.7,2.2,17.9,6.5,1.9,1.5,3.5,3.4,5.3,4.9a4.8,4.8,0,0,0,3.2,1.1c9.4-1.2,18.4-.2,26.7,4.9,5.2,3.2,9.1,7.6,10.9,13.3.8,2.5,2,3.1,4.2,3.5a44.46,44.46,0,0,1,24.3,13.1c6.7,6.8,6.7,16.8,2.4,22.9-.4.6-.7,1.3-1.1,1.9.4.3.7.5,1,.7,6.5,3.2,13.1,6.4,19.7,9.5a23.77,23.77,0,0,0,6.9,2c4.5.5,8.9-2.6,10.7-7.1,1.9-4.7.9-10.2-2.7-13.1a53.07,53.07,0,0,0-6.3-4.2c-5.1-3-10.2-5.9-15.2-9.1a5.42,5.42,0,0,1-2.2-3.1c-.7-3.6,3.2-7.2,6.8-5.3,4.5,2.3,9.1,4.6,13.7,6.9a67.15,67.15,0,0,0,8.3,3.6c5,1.6,10.1-.8,12.7-5.7s1.8-10.8-2.3-14.1a36.2,36.2,0,0,0-5.6-3.7c-7.2-3.8-14.5-7.5-21.7-11.3-4.9-2.6-9.7-5.2-14.5-7.9a4.39,4.39,0,0,1-1.5-6.5c1.5-2.5,3.7-3.3,6.4-2,8.5,4.1,16.9,8.3,25.3,12.4,5.3,2.6,10.6,5.2,16,7.6a8,8,0,0,0,4.3.6c5.7-.7,9-4.2,10.5-9.5,1.2-4.2-1.3-10.4-5.3-12.5-7.1-3.7-14.2-7.3-21.2-11-6.2-3.2-12.3-6.4-18.5-9.6a4.73,4.73,0,0,1-2.7-3.8c-.3-4.1,3.2-6.8,7-5.1,7.3,3.4,14.6,7,21.9,10.5,6.4,3.1,12.8,6.3,19.3,9.1,4.4,1.9,8.5.8,11.9-2.5a11.55,11.55,0,0,0,3.1-12.2c-1.1-3.8-4.1-5.8-7.5-7.3q-31.5-13.5-63.1-27.1a2.41,2.41,0,0,0-2.7.3c-6.3,4.2-12.5,8.3-18.9,12.4-6,3.9-11.9,7.7-18.1,11.3a19,19,0,0,1-7.6,2.5c-9.8.9-19.7-5.1-23-13.9-3.2-8.5-2.4-18.8,6.8-26.1,3.8-3,7.8-5.9,11.7-8.9A77.26,77.26,0,0,0,143.3,85.3Zm125.3,62.1.8-.4c7.9-4.7,12.4-12,15.5-20.4a2.82,2.82,0,0,0-.4-2c-1.4-2.1-2.9-4.3-4.5-6.3q-28.8-35.55-57.7-71.1c-.9-1.1-1.9-2.2-2.9-3.3-1,.7-1.7,1.2-2.5,1.7q-33.3,24-66.6,48.1c-7.1,5.1-13.8,10.6-20.8,15.9-3.4,2.6-4.6,5.9-4,10.1.6,4,4.1,8.7,7.8,9.2,4.3.6,8.7,1.3,12.3-2.2A20.71,20.71,0,0,1,148,125c11.1-7.3,22.2-14.5,33.2-21.9a5.7,5.7,0,0,1,5.9-.6c9.9,4.2,20,8.1,29.9,12.3,12.5,5.3,24.9,10.8,37.4,16.2a22.39,22.39,0,0,1,12.4,12.5A35.23,35.23,0,0,0,268.6,147.4Zm55.6-30.2c-28.4-34.9-56.5-69.5-84.8-104.4L220.6,27c3,5,82.3,102.2,84.8,104C311.5,126.5,317.7,122,324.2,117.2ZM79.7,37.5Q46.1,95.7,12.6,153.6a18.08,18.08,0,0,0,1.7,1c5.6,2.9,11.3,5.9,17,8.8,2.3,1.2,2.4,1.1,3.7-1.1Q67.25,106.5,99.4,50.8c.4-.7.8-1.5,1.3-2.6C93.6,44.7,86.8,41.1,79.7,37.5Zm64.1,227.4c2.3-.3,3.2-2,4.1-3.5,5.2-8.3,10.3-16.7,15.4-25.1,2.4-3.9,2.1-6-1-9.5a22.84,22.84,0,0,0-2.2-2.2c-4.6-3.9-10-6.2-15.7-7.8a4.56,4.56,0,0,0-5.1,1.6,23.48,23.48,0,0,0-1.9,2.5c-5,8.2-10,16.3-14.9,24.5a3.3,3.3,0,0,0-.2,2.2c2,6.9,7,11.2,13.1,14.3A52.66,52.66,0,0,0,143.8,264.9Zm-31.9-70.4c-4.7-.3-6.4.6-7.4,2.9-1.3,3-2.5,6-4,8.9-2.5,4.8-5.3,9.5-7.7,14.4a9.74,9.74,0,0,0,2.1,11.7,30.64,30.64,0,0,0,14.5,7.5,4.29,4.29,0,0,0,4.9-2c4.5-7.3,9.1-14.5,13.5-21.8,1.3-2.1,2.4-4.3,3.5-6.5a3.39,3.39,0,0,0,.3-2.4c-1.1-3.4-2.9-6.4-6.1-8.3A30,30,0,0,0,111.9,194.5ZM78.5,182.8c-2.6-.1-4.6.7-5.9,3.1-2.3,4-4.6,7.9-6.9,11.9a34.5,34.5,0,0,0-2,4.8,4.56,4.56,0,0,0,1,4.7,25.41,25.41,0,0,0,15.6,8,3.69,3.69,0,0,0,3.9-1.9c2.9-5.2,5.7-10.4,8.6-15.7a6.05,6.05,0,0,0-.2-6.1A17,17,0,0,0,78.5,182.8Z"/></g></g></svg>