<svg xmlns="http://www.w3.org/2000/svg" viewBox="0 0 353.81 227.56"><title>employees</title><g id="Слой_2" data-name="Слой 2"><g id="Слой_1-2" data-name="Слой 1"><path d="M0,212.7c.9-5.3,1.4-10.7,2.9-15.9,10.5-38.4,35.2-63.2,74.1-71.2,38.3-7.9,70.6,4.9,95.1,35.5,13.1,16.3,19.2,35.4,19.9,56.2.1,3.1-.4,6-2.9,8.1a7.51,7.51,0,0,1-8.1,1.2c-3.2-1.4-4.5-4-4.9-7.3-.8-6.7-1.3-13.5-2.8-20.1-7-30.1-35.2-55.2-66-58.9-.9-.1-1.8-.1-3-.2a86.61,86.61,0,0,1-.7,8.9,7.74,7.74,0,0,1-15.3.1,38.84,38.84,0,0,1-.4-4.8c-.1-1.3,0-2.7,0-4.3a71.56,71.56,0,0,0-29.5,8.9q-38.55,21.75-42.2,65.8c-.1,1-.1,2.1-.2,3.1-.3,5.6-2.4,8.5-6.5,9.3S2.4,226,0,221Z"/><path d="M148,52.3c-.2,28.7-23.7,52.1-52.2,51.8A52.09,52.09,0,0,1,44.2,51.7C44.5,23.1,67.8-.1,96.2,0A52.3,52.3,0,0,1,148,52.3ZM96,16.1A36.24,36.24,0,0,0,60.1,52.2C60.2,71.7,76.4,88,95.9,88.1S132,71.7,132,52.1A36.37,36.37,0,0,0,96,16.1Z"/><path d="M309.6,52.1A51.9,51.9,0,1,1,257.7.1C286.1,0,309.6,23.5,309.6,52.1Zm-16,.3a36.11,36.11,0,0,0-35.8-36.2c-19.4-.2-36,16.1-36.1,35.6-.1,19.9,16.2,36.5,36,36.5A36.46,36.46,0,0,0,293.6,52.4Z"/><path d="M266,140c-.2,3.3-.2,6.1-.6,9a7.4,7.4,0,0,1-7.6,6.5,7.57,7.57,0,0,1-7.7-6.5c-.4-2.8-.4-5.7-.7-9.4-4.8,1-9.5,1.7-14,3a77.58,77.58,0,0,0-35,21.1,31.07,31.07,0,0,1-3.2,3.1c-3.6,2.9-7.9,2.8-10.9-.1a7.73,7.73,0,0,1-.1-11.2c5-4.9,10-10,15.6-14a93,93,0,0,1,64.1-17.8c27.4,2.4,49.8,14.6,67,36,13.6,16.9,20.3,36.4,20.9,58,.1,3.7-.9,6.9-4.5,8.6-2.9,1.5-6.2,1.4-8.3-1a13.28,13.28,0,0,1-3.1-7.3c-.7-11.6-2.8-22.8-8.1-33.3q-18.9-37.5-60.5-44.6C268.3,140.1,267.2,140.1,266,140Z"/><path d="M104.1,195.4c0,7.6.1,15.2,0,22.8-.1,6.7-4.3,10.4-10,9.1a7.18,7.18,0,0,1-5.6-5.5A19.09,19.09,0,0,1,88,217V174.5c0-6.9,2.8-10.7,8-10.8s8.1,3.8,8.1,11Z"/><path d="M265.7,195.6c0,7.5.1,15,0,22.4-.1,6.7-4.3,10.5-9.9,9.2a7,7,0,0,1-5.7-5.7,26.07,26.07,0,0,1-.5-4.8V174.6c0-7.1,3-11.1,8.2-10.9s7.9,3.9,7.9,10.9Z"/></g></g></svg>