<svg xmlns="http://www.w3.org/2000/svg" viewBox="0 0 367.8 541.1"><title>file-attached</title><g id="Слой_2" data-name="Слой 2"><g id="Слой_1-2" data-name="Слой 1"><path d="M107.2,0h10.5a12.09,12.09,0,0,0,1.8.5c25.4,3.4,43.3,16.9,54,40.2.9,2,1.9,2.8,4.2,2.8q50.25-.15,100.4,0a6.52,6.52,0,0,1,4.3,1.6c27.8,30,55.5,60.2,83.3,90.3a7.44,7.44,0,0,1,2.1,5.6V511.6A30.64,30.64,0,0,1,346,539.8c-1.6.5-3.2.8-4.7,1.3H26.6c-3.6-1.3-7.5-2.1-10.8-3.9C4.8,531,0,521.2,0,508.7Q.15,292.25,0,75.9V73.1A30.21,30.21,0,0,1,28.6,43.6c6.3-.3,12.7-.2,19-.1A3.57,3.57,0,0,0,51.5,41C59.7,22.2,73.6,9.4,93.2,3.1,97.8,1.6,102.6,1,107.2,0Zm42.5,69H33.1c-6.2,0-7.5,1.2-7.5,7.4V508.1c0,6,1.3,7.4,7.3,7.4h302c6,0,7.4-1.4,7.4-7.3q0-174.45.1-348.9v-3.2h-3.5c-20.4,0-40.9-.2-61.3.1-9.1.1-15-5.9-14.9-14.8.3-23,.1-46,.1-69V69.3H179.2V188.6a105.53,105.53,0,0,1-.6,11.3c-5.6,42.5-50.2,68.9-90.2,53.3a67,67,0,0,1-42.8-62.8c-.1-22.5,0-45.1,0-67.6A56.5,56.5,0,0,1,46,117c2.3-20.8,20.9-36.9,42.1-36.3,21.4.6,39.6,17.9,40.1,39.1.5,20,.2,40.1.1,60.2a14.61,14.61,0,0,1-29.2-.9c-.1-18.9,0-37.7,0-56.6A12.17,12.17,0,0,0,87,110c-6.7,0-12,5.4-12,12.5-.1,23-.2,46,0,69a37.45,37.45,0,0,0,74.9-.5c.1-39.8,0-79.7,0-119.5A9,9,0,0,1,149.7,69Zm176.5,61.2c-12.8-13.9-25.1-27.3-37.8-41v41Zm-185.3-87c-14.1-18.3-43-18.2-56.3,0Z"/></g></g></svg>