<svg xmlns="http://www.w3.org/2000/svg" viewBox="0 0 551.1 481.3"><title>message</title><g id="Слой_2" data-name="Слой 2"><g id="Слой_1-2" data-name="Слой 1"><path d="M221,0H411.6a24,24,0,0,0,2.8.3c19.7.1,39.3.1,59,.4,8.6.1,17.3,0,25.7,1.5,29,5.2,52.7,33.5,51.5,63.1-.1,3.3.3,6.7.5,10V328.4c-.8,2.1-1.8,4.3-2.5,6.4-9.6,27.8-30.8,43.3-60.2,44.2l-32,.9c-.9,0-1.8.1-2.9.2v3.6q0,31.5-.1,62.9c0,6.4-.1,12.7-.6,19.1-.7,9.3-5,13.8-14.2,15.2a4.87,4.87,0,0,0-1.1.4h-2.2c-5.8,0-9.5-3.6-13.3-7.4-3.3-3.3-6.8-6.4-10.2-9.7q-42.9-41.4-85.9-82.6a7.06,7.06,0,0,0-4.6-1.9c-57.6-.2-115.3-.2-172.9-.4-30.5-.1-61.1-.6-91.6-.9-14.8-.1-27.1-6.1-37.6-15.9a56.26,56.26,0,0,1-18.5-40c-.2-5-.4-10.1-.7-15.1V75.1C.2,71.7.3,68.4.5,65c.3-4.5.1-9.1,1-13.4A65.11,65.11,0,0,1,16.7,21.7C27,10.2,39.7,2.8,55.2,1.2a220,220,0,0,1,23-.7Q147.8.2,217.3.1A15.14,15.14,0,0,0,221,0ZM418.3,420.6c.1-1.4.1-2.4.2-3.4.4-18.2.6-36.4,1.1-54.5a30.55,30.55,0,0,1,2-10.9c2.4-5.6,7.6-7.4,13.4-7.6,18.4-.5,36.7-1.3,55.1-1.3a27.6,27.6,0,0,0,17.3-6.1c5.7-4.5,9.2-10.8,9.2-18.1q.15-98.85,0-197.7c0-19.1-.6-38.2-.7-57.3-.1-9.8-4.8-17-12.1-22.6-3.9-3-8.2-5.7-13.5-5.7q-80.1-.15-160.3-.2-65.7-.15-131.3-.1-66.6.15-133.3.6a35.47,35.47,0,0,0-11.3,1.5C43.4,40.8,37.3,48.9,35.6,59.6c-1.2,7.6-1.2,15.5-1.2,23.2q0,117,0,233.9a29,29,0,0,0,4.2,15.6c4.4,7.3,10.9,11.5,19.2,11.9,13.2.6,26.4.8,39.6.9,55.1.2,110.2.1,165.3.3,22.8.1,45.5.5,68.3.5a19.39,19.39,0,0,1,14.3,5.8q35.1,33.45,70.4,66.7C416.5,419,417.3,419.7,418.3,420.6Z"/><path d="M267.5,242H413.4c7,0,14.1.2,21.1.8s11,4.4,12.8,11.1a18.28,18.28,0,0,1-2.1,15.1c-2.3,3.6-5.6,5.9-9.9,6.1-15.3.4-30.5,1-45.8,1q-131.7.15-263.4-.1-13.2,0-26.4-.9c-7.3-.5-11.5-4.5-13.2-11.7A18.06,18.06,0,0,1,88,250.3c2.3-4.3,5.8-7.2,10.9-7.4,14.7-.5,29.4-1,44.1-1,41.5-.1,83,0,124.5,0Z"/><path d="M198.1,137.8H108.4c-3.1,0-6.2-.3-9.3-.5a12.75,12.75,0,0,1-8.9-4.4c-4.8-5.6-5.5-12-3.1-18.7,2.3-6.3,7.1-9.5,13.8-9.6,17-.3,34.1-.8,51.1-.8,43.3,0,86.6.2,129.9.3,4.1,0,8.2.4,12.4.4,13.5,0,17.7,13.3,14.7,22.4-2.1,6.3-6.5,10.2-13.2,10.4-14.3.5-28.7.8-43,.9-18.3.2-36.6,0-54.8,0A.6.6,0,0,0,198.1,137.8Z"/><path d="M344.4,207h-75c-4,0-8-.4-12.1-.4-12.7.1-18.1-11.1-15.4-21.4,1.9-7.3,5.8-11,13.3-11.5,11.2-.6,22.5-.9,33.7-.9,46.4,0,92.7.3,139.1.4,1.7,0,3.4.2,5,.3,11.1.4,16.4,10.1,14.3,20.3-1.7,8.3-6.2,12.3-14.8,12.6-12.4.4-24.9.6-37.4.7-17,.1-33.9,0-50.9,0C344.4,207.1,344.4,207.1,344.4,207Z"/><path d="M138.3,207.5c-13.2-.3-25.4-.3-37.7-1-9.7-.6-15-7.4-14.7-17.3.3-9.4,6.2-15.6,15.9-15.8,16.2-.4,32.4-.5,48.6-.5a247.26,247.26,0,0,1,25.8,1c8.4.9,13.2,7.8,12.9,16.9-.3,8.7-5.5,15.2-13.8,15.6C162.7,207.1,150,207.2,138.3,207.5Z"/><path d="M396.4,137.9H363.5a33.25,33.25,0,0,1-7-.7c-7.5-1.6-12.2-8.6-11.8-17.2.4-8.4,5.5-14.6,13.2-15.3,6.5-.6,13.1-.7,19.6-.7,16.9,0,33.9.1,50.8.1a40.48,40.48,0,0,1,5,.4c6.4.6,11,3.7,13.2,9.7,2.3,6.4,1.7,12.6-2.5,18.1-3.3,4.3-8.2,5.5-13.3,5.5-11.3.1-22.8,0-34.3.1Z"/></g></g></svg>