<svg xmlns="http://www.w3.org/2000/svg" viewBox="0 0 352.5 329.7"><title>payment</title><g id="Слой_2" data-name="Слой 2"><g id="Слой_1-2" data-name="Слой 1"><path d="M35.8,329.7C23.9,289.6,12,249.7,0,209.6q26.4-7.95,52.9-15.9c.6,1.9,1.2,3.7,1.8,5.7,1-1.5,1.9-2.9,2.8-4.2q22.05-33.9,44-67.9a35.53,35.53,0,0,1,18.2-14.9c4.4-1.6,9-2.7,13.6-4.1l40.5-12a3.25,3.25,0,0,0,1.6-1.2c6.7-9.5,13.3-19.1,19.9-28.6q20.85-30,41.7-60.1c1.5-2.1,2.9-4.3,4.3-6.4q55.65,38.55,111.2,77.2-68,98.25-135.9,196.3c-10.7-7.6-21.5-15.1-32.3-22.8-1.1,1.4-2.2,2.7-3.2,4a73.8,73.8,0,0,1-39,25.4c-8.4,2.3-16.9,3.9-25.4,5.8-11.1,2.5-22.1,4.9-33.2,7.4-.2,0-.3.1-.6.2,2,6.7,4,13.3,6.1,19.9Q62.15,321.65,35.8,329.7ZM58.9,213.4q9.9,33.3,19.8,66.5a1.48,1.48,0,0,0,.7-.1c14.8-3.3,29.6-6.6,44.3-10,6-1.4,12.2-2.6,18-4.5a58,58,0,0,0,28-19.5l36.9-46.5c5.6-7.1,11.2-14.2,16.9-21.3a16.11,16.11,0,0,0,3.8-9.1c.4-5.5-2-9.6-6.2-12.9a14.72,14.72,0,0,0-20.6,2.6,15.81,15.81,0,0,1-2.9,2.2c-.3.2-.7.4-1,.6-12.8,10.4-25.7,20.8-38.5,31.2-.6.5-.9.5-1.6.1-9.1-5.5-18.2-11-27.4-16.4-1.5-.9-3-1.8-4.7-2.7,12.5-19.7,24.9-39.3,37.5-59.2a8.14,8.14,0,0,1-.9.2c-11.2,3.3-22.3,6.7-33.5,9.8a24,24,0,0,0-14.8,11c-1.6,2.7-3.4,5.3-5.1,7.9L65,209c-1,1.6-2.1,2.9-4.1,3.3A9.46,9.46,0,0,1,58.9,213.4ZM196.7,89.1l.1.1a19.83,19.83,0,0,1,2-1.1c12.7-6.8,26-7.3,39.6-3.6a61.93,61.93,0,0,1,25.7,14.4,61,61,0,0,1,17.8,27.3,46.75,46.75,0,0,1,1.4,22.9c-.3,1.3-.6,2.7-.9,4,.1,0,.1,0,.2.1q25-36.15,50-72.3C303.2,60.4,274,40,244.6,19.6Q220.75,54.25,196.7,89.1Zm44.5,80.4c2.4-.4,4.7-.6,7-1.1,10.1-2.4,17-8.6,20.5-18.3,3-8.5,1.7-16.8-2-24.8-5.8-12.5-15.5-21-28.1-26a39.37,39.37,0,0,0-29.6-.5c-7.6,3-13.3,8.1-16.2,15.9-2.4,6.5-2.1,13.1-.2,19.7a39.89,39.89,0,0,0,3.8,9C215.8,130.8,242.5,146.3,241.2,169.5ZM17.4,219.2c9.3,31.1,18.5,62,27.8,93,8.7-2.7,17.3-5.3,26-7.9-9.3-31.2-18.5-62.2-27.8-93.3C34.7,213.7,26.1,216.4,17.4,219.2Zm175.3,20.5L213,254c18.3-26.5,36.5-52.8,54.7-79.2a2.39,2.39,0,0,0-.9.3c-.3.2-.5.4-.8.6a47.59,47.59,0,0,1-26.4,7.7c-1.8,0-3.1.2-3.9,2a8.7,8.7,0,0,1-.9,1.1L200,230.3C197.6,233.5,195.2,236.5,192.7,239.7ZM177.8,115.8q-16.8,26.55-33.7,53.1c4.1,2.5,8.1,4.9,12.1,7.3,9.7-7.9,19.2-15.7,28.9-23.6C178.5,141.1,175.5,129,177.8,115.8Z"/><path d="M286.2,73.3a12,12,0,0,1-12,11.9,12.08,12.08,0,0,1-12-11.9,12,12,0,1,1,24,0Z"/></g></g></svg>