<svg xmlns="http://www.w3.org/2000/svg" viewBox="0 0 353.7 295.4"><title>plans</title><g id="Слой_2" data-name="Слой 2"><g id="Слой_1-2" data-name="Слой 1"><path d="M353.7,33.6V289.2c-2.1,4.8-5.8,6.2-10.8,6.2-18.4-.1-36.8,0-55.3,0H11c-7.9,0-11-2.8-11-9.9V37.2c0-6.9,3-9.8,9.9-9.9H42.5C44.9,9,52.2.5,65.8.1A22.52,22.52,0,0,1,80.3,4.8c7.3,5.6,9.6,13.4,9.4,22.1h26.7C115.8,8.7,128.4.5,139.1.1a22.8,22.8,0,0,1,14.6,4.5c7.6,5.5,9.9,13.4,9.8,22.7h23.8c.9,0,1.8-.2,3-.3,0-6.9,1.1-13.4,5.8-18.7A23.17,23.17,0,0,1,213.7.1a21.82,21.82,0,0,1,14.1,4.7c7.3,5.6,9.8,13.3,9.3,22.4h26.8c0-7.1,1.1-13.6,5.8-19A22.84,22.84,0,0,1,287.3,0a22.6,22.6,0,0,1,15,5.3c6.8,5.6,8.9,13.1,8.7,21.9h4c9.6,0,19.1.1,28.7,0C348.5,27,352,28.8,353.7,33.6ZM16.2,279H337.5V97.4H16.2ZM90,43.2c-1.9,17.2-9,25.9-21.7,26.9A22.94,22.94,0,0,1,53,66c-7.9-5.5-10.4-13.6-10.2-22.7H16.2V81H337.5V43.1h-24c-.8,0-1.6.1-2.3.1-2.8,18.2-9.9,26.5-23,26.9a22.6,22.6,0,0,1-14.8-4.7c-7.4-5.5-9.6-13.4-9.5-22H237.2C236,59.8,228.6,69,215.8,70.1a22.74,22.74,0,0,1-15.6-4.2c-7.7-5.5-10.2-13.5-10-22.5H163.7c-2.2,17.3-9.1,25.8-21.7,26.8a23.11,23.11,0,0,1-15.1-3.9c-8.1-5.5-10.8-13.6-10.4-23C107.5,43.2,98.9,43.2,90,43.2ZM74,35h-.2c0-3.3.1-6.7,0-10a13.93,13.93,0,0,0-1-5c-1.4-3-4-4.3-7.4-3.9s-5.9,2.3-6,5.6c-.3,8.8-.1,17.6-.1,26.5a4.19,4.19,0,0,0,.8,2.2A6.72,6.72,0,0,0,67,54.1c3.2-.3,5.9-2,6.3-5.4C73.8,44.2,73.8,39.6,74,35Zm220.7.3V23.6a10.1,10.1,0,0,0-.3-1.7,6.74,6.74,0,0,0-6.4-5.8c-4.7-.5-8,2.9-8.1,8.5q-.15,10.5,0,21a10.16,10.16,0,0,0,1.2,4.9,6.6,6.6,0,0,0,7.5,3.5c3.6-.7,5.8-3.2,6-7.4C294.9,42.9,294.7,39.1,294.7,35.3Zm-147.4-.1c0-3.8.1-7.6,0-11.4-.2-4.8-3.2-7.9-7.4-7.9s-7.2,3.2-7.3,8c-.1,7.3-.1,14.7,0,22,.1,5,3.2,8.3,7.4,8.2s7.1-3.2,7.2-8C147.4,42.5,147.3,38.8,147.3,35.2Zm59.1-.2h0V46.4c.3,4.7,3.3,7.9,7.4,7.9S221,51,221,46.2c.1-7.5.1-14.9,0-22.4-.1-4.7-3.2-7.9-7.4-7.8s-7,3-7.2,7.7C206.3,27.4,206.4,31.2,206.4,35Z"/><path d="M139.3,150.3c-4.8,0-9.7.3-14.4-.1-3.6-.3-5.8-3-6.4-6.6a7.53,7.53,0,0,1,4.3-7.9,12.27,12.27,0,0,1,4.6-1c7.9-.1,15.9-.2,23.8,0,6.5.1,10.3,4.8,8.6,10.3-1,3.1-3.1,5.3-6.4,5.4-4.7.2-9.4,0-14.1-.1Z"/><path d="M63.9,134.7c4.5,0,9-.2,13.4.1,4.2.3,6.9,2.8,7.6,6.3a7.47,7.47,0,0,1-3.9,8.4,14.1,14.1,0,0,1-4.9,1.2c-7.9.1-15.9.1-23.8,0-3.7,0-6.9-1.3-8.3-5-1.1-2.8-1.1-6,1.3-8a15.17,15.17,0,0,1,7.3-3c3.7-.5,7.5-.1,11.3,0Z"/><path d="M214.1,150.4c-4.7,0-9.4.3-14.1-.1a7.09,7.09,0,0,1-6.5-6.6,7.38,7.38,0,0,1,3.9-7.8,5.09,5.09,0,0,1,2.6-.9c9.6-.1,19.3-.2,28.9.1,3.3.1,5.3,2.5,6.1,5.7s0,6.2-2.7,7.9a14.14,14.14,0,0,1-6.8,1.9c-3.8.3-7.6.1-11.4.1Z"/><path d="M289.2,150.7c-4.1,0-8.3.2-12.4,0-4.4-.2-7.3-2.7-8-6.2s.6-6.9,3.8-8.5a13.78,13.78,0,0,1,5.3-1.3q11.7-.15,23.4,0c3.7,0,6.9,1.2,8.4,4.8,1.3,3,1.2,6.2-1.3,8.3a15,15,0,0,1-7.4,2.9c-4,.4-7.9,0-11.8,0Z"/><path d="M64.4,179.9c4.1,0,8.3-.1,12.4,0,5,.1,8.3,3.3,8.3,7.8s-3.2,7.9-8.1,8q-12.75.3-25.5,0c-5-.1-8.2-3.5-8.1-8s3.3-7.7,8.3-7.8C55.9,179.8,60.1,179.9,64.4,179.9Z"/><path d="M139.4,179.9c4.1,0,8.3-.1,12.4,0,5,.1,8.3,3.4,8.4,7.8a7.87,7.87,0,0,1-7.9,8c-8.7.2-17.5.2-26.2,0a8,8,0,0,1-7.9-8c.1-4.4,3.4-7.7,8.4-7.8C130.9,179.8,135.2,179.9,139.4,179.9Z"/><path d="M289.4,179.9c4.1,0,8.3-.1,12.4,0,5.1.1,8.3,3.1,8.5,7.6s-3.1,8.1-8.2,8.2c-8.4.2-16.8.2-25.1,0-5.1-.1-8.4-3.5-8.3-8.2.1-4.5,3.3-7.6,8.4-7.7C281.1,179.8,285.3,179.9,289.4,179.9Z"/><path d="M139.1,240.9c-4.1,0-8.3.1-12.4,0-5-.2-8.3-3.3-8.4-7.8a7.78,7.78,0,0,1,7.8-8c8.7-.3,17.5-.3,26.2,0a7.91,7.91,0,0,1,7.9,7.9c0,4.5-3.3,7.7-8.3,7.9C147.7,241,143.4,240.9,139.1,240.9Z"/><path d="M214.1,240.9c-4,0-8,.1-12.1,0-5.3-.1-8.6-3.3-8.6-7.9,0-4.4,3.5-7.9,8.6-8,8.3-.2,16.5-.2,24.8,0,5.1.1,8.6,3.7,8.5,8.1-.1,4.6-3.5,7.7-8.8,7.8C222.4,241,218.3,240.9,214.1,240.9Z"/><path d="M289.3,240.9c-4.1,0-8.3.1-12.4,0-4.9-.2-8.1-3.1-8.3-7.5a7.61,7.61,0,0,1,7.7-8.3c8.7-.3,17.5-.3,26.2,0,5,.2,8,3.8,7.8,8.3s-3.3,7.2-8.2,7.5H289.3Z"/><path d="M214.4,195.9c-4,0-8,.1-12.1,0-5.4-.1-8.9-3.4-8.9-8s3.5-7.8,9-7.9c7.9-.1,15.9-.1,23.8,0,5.5,0,9,3.1,9.1,7.8s-3.6,8-9.2,8.1Z"/><path d="M64,240.9c-4.1,0-8.3.1-12.4,0-4.9-.2-8-3.1-8.2-7.5s2.8-8.1,7.8-8.3c8.7-.3,17.5-.3,26.2,0a7.68,7.68,0,0,1,7.7,8.4c-.2,4.4-3.4,7.2-8.3,7.5h-.7c-4.1-.1-8.1-.1-12.1-.1Z"/></g></g></svg>