<svg xmlns="http://www.w3.org/2000/svg" viewBox="0 0 461.9 451.55"><defs><style>.cls-1{fill:#d24625;}.cls-2{fill:#fff;}</style></defs><title>power-point</title><g id="Слой_2" data-name="Слой 2"><g id="Слой_1-2" data-name="Слой 1"><path class="cls-1" d="M242.3,0H273a7.72,7.72,0,0,0-.2,1.5v44a12.37,12.37,0,0,0,.2,1.8c1,.1,1.9.2,2.7.2l167.1.3c11,0,18.5,7.5,18.5,18.5,0,12.8.1,25.6.2,38.4a20.85,20.85,0,0,0,.4,3.5v267c-.2,1.7-.5,3.5-.7,5.2-2.1,13.5-4,14.9-14,17.5a7.72,7.72,0,0,1-1.5.2c-9.1.3-18.3.9-27.4.9q-71.1,0-142.3-.2c-2.9,0-3.4,1-3.4,3.6.1,15.2.1,30.3.1,45.5v3.5H255.9c-5.7,0-11.5.5-17.1-.3-9.1-1.2-18.2-3.2-27.3-4.8-26.3-4.6-52.6-9.3-78.9-13.8-23.4-4.1-46.8-8-70.3-12.1-19.5-3.4-39.1-7-58.6-10.2-3.2-.5-3.7-1.7-3.7-4.5Q.15,336,.1,266.3.1,156.2,0,46c0-2.6.6-3.7,3.3-4.2,23-3.9,46.1-8,69.1-12l76.3-13.2c25.9-4.5,51.9-8.9,77.8-13.4C231.9,2.2,237.1,1.1,242.3,0Zm204,383.4v-3.5q0-156.75.1-313.4c0-3-.8-3.8-3.8-3.8q-83.1.15-166.3.1c-1.1,0-2.2.2-3.3.3v52.5c8.5-1.7,16.7-3.4,25.3-5.1.1,2.7.4,4.9.4,7.2.1,19.2.2,38.4.1,57.6,0,2.8.7,3.6,3.6,3.6,20.6-.1,41.1.1,61.7.2,1.2,0,2.4.1,3.7.2-.9,16-7.7,36.3-22.3,49.4-21.3,19-45.9,21.3-72.5,13.5v31.3H398.7v16.4c0,4.1,0,4.1-4.2,4.1H277.2c-1.4,0-2.8.2-4.2.2v26.6H398.7v16.1c0,4.3,0,4.3-4.3,4.3H272.9v42.3C330.8,383.4,388.3,383.4,446.3,383.4ZM84.2,138.9c-.1,1.6-.2,3.1-.2,4.7V305.1c-.1,1.6.6,2.2,2.2,2.3,6.2.4,12.3,1.1,18.5,1.6,3.6.3,7.2.5,11.3.8V248.3c6.5,0,12.5.2,18.5,0,13.6-.4,25.3-5.5,34.1-15.7,17.3-19.9,19.9-42.7,12-67.1-2.4-7.3-5.9-14.2-12.2-19.1-11.7-9-25.3-10.7-39.4-10.2-10.3.4-20.6,1.4-30.9,2C93.4,138.5,88.9,138.7,84.2,138.9Z"/><path class="cls-2" d="M446.3,383.4H273V341.1H394.5c4.3,0,4.3,0,4.3-4.3V320.7H273.1V294.1c1.4-.1,2.8-.2,4.2-.2H394.6c4.2,0,4.2,0,4.2-4.1V273.4H273.1V242.1c26.6,7.8,51.2,5.5,72.5-13.5,14.6-13,21.4-33.4,22.3-49.4-1.2-.1-2.4-.2-3.7-.2-20.6-.1-41.1-.2-61.7-.2-2.9,0-3.6-.8-3.6-3.6.1-19.2,0-38.4-.1-57.6,0-2.2-.2-4.5-.4-7.2-8.6,1.8-16.9,3.4-25.3,5.1V63c1.1-.1,2.2-.3,3.3-.3q83.1,0,166.3-.1c3,0,3.8.8,3.8,3.8q-.15,156.75-.1,313.4C446.3,380.9,446.3,382,446.3,383.4ZM378.4,167.5c-1.5-38.2-36.7-68.1-68.3-67.8v67.8Z"/><path class="cls-2" d="M84.2,138.9c4.8-.2,9.3-.4,13.8-.7,10.3-.7,20.6-1.6,30.9-2,14.1-.6,27.7,1.1,39.4,10.2,6.3,4.9,9.9,11.8,12.2,19.1,7.9,24.4,5.3,47.3-12,67.1-8.8,10.2-20.5,15.3-34.1,15.7-6,.2-12,0-18.5,0v61.5c-4.1-.3-7.7-.5-11.3-.8-6.2-.5-12.3-1.2-18.5-1.6-1.6-.1-2.3-.7-2.2-2.3V143.6C84,142,84.1,140.5,84.2,138.9Zm32.1,28.5v52.5c6-.7,11.1-1.2,16.2-2.1,7.9-1.4,13.3-5.9,15.5-13.9a42.29,42.29,0,0,0,1.3-18.4c-1.7-10.7-6.8-16.8-16.1-18C127.6,166.9,121.9,167.4,116.3,167.4Z"/><path class="cls-1" d="M378.4,167.5H310.1V99.7C341.7,99.5,376.9,129.4,378.4,167.5Z"/><path class="cls-1" d="M116.3,167.4c5.6,0,11.3-.6,16.9.1,9.3,1.2,14.5,7.4,16.1,18a44.1,44.1,0,0,1-1.3,18.4c-2.2,8-7.5,12.5-15.5,13.9-5.1.9-10.3,1.3-16.2,2.1Z"/></g></g></svg>