<svg xmlns="http://www.w3.org/2000/svg" viewBox="0 0 353.7 353.8"><title>projects</title><g id="Слой_2" data-name="Слой 2"><g id="Слой_1-2" data-name="Слой 1"><path d="M0,347.5V6.3C1.9,1.7,5.4,0,10.3,0c30.6.1,61.2,0,91.8.1,7.6,0,10.4,2.9,10.4,10.4V343.2c0,7.6-2.9,10.4-10.4,10.4q-45.9,0-91.8.1C5.4,353.8,1.9,352.1,0,347.5ZM96.4,16.2H16.2V337.4H96.4Z"/><path d="M353.7,177.3V342.7c0,8.5-2.5,11.1-11.2,11.1H252c-8.3,0-10.9-2.7-10.9-11V11c0-8.3,2.7-10.9,11-10.9h90.8c8.1,0,10.8,2.7,10.8,10.8ZM337.5,337.6V16.3H257.2V337.6Z"/><path d="M120.6,176.9V8.8c.3-5.7,3.3-8.6,9.1-8.6,10.5-.1,20.9,0,31.4,0h61.5c7.8,0,10.5,2.7,10.5,10.6V343.3c0,7.8-2.8,10.5-10.6,10.5H131.4c-8,0-10.7-2.7-10.7-10.8Q120.55,259.9,120.6,176.9Zm16.2,160.7h80V16.3h-80Z"/><path d="M32,108.1V43.2C32,34.8,34.8,32,43.1,32H70.4c7.2,0,10.3,3,10.3,10.3V173.8c0,7.3-3,10.3-10.2,10.3H42.6c-7.5,0-10.4-2.9-10.5-10.4C32,151.8,32,130,32,108.1Zm32.2,59.8V48.4H48.3V167.9Z"/><path d="M80.5,297.4a24.55,24.55,0,0,1-24.1,24.3c-13.2.1-24.6-11.2-24.4-24.4s11.2-24.2,24.3-24.1A24.41,24.41,0,0,1,80.5,297.4Zm-16.1.2a8.15,8.15,0,1,0-8.2,7.9A8,8,0,0,0,64.4,297.6Z"/><path d="M273.1,108.2V43.3c0-8.6,2.7-11.3,11.3-11.3H311c7.8,0,10.7,2.9,10.7,10.5V173.6c0,7.5-2.9,10.4-10.5,10.4H283.3c-7.3,0-10.2-3-10.2-10.3Zm16.3-59.9V167.8h16V48.3Z"/><path d="M297.9,273.2c13.5.6,24.3,11.7,23.8,24.6-.5,13.6-12,24.6-24.9,23.8-13.7-.8-24.2-11.9-23.6-24.8C273.9,283.3,285,272.6,297.9,273.2Zm7.6,24.4a8.1,8.1,0,1,0-8.1,8A8.11,8.11,0,0,0,305.5,297.6Z"/><path d="M201.1,108.2v65.3c0,7.9-2.7,10.6-10.5,10.6h-28c-7.1,0-10-2.9-10-10.1V42.5c0-7.5,2.9-10.3,10.5-10.3h27.3c7.8,0,10.7,2.8,10.7,10.5Zm-16.2,59.7V48.3H168.8V167.9Z"/><path d="M201,297.4a24.41,24.41,0,0,1-24.1,24.3c-13.2.2-24.4-11-24.3-24.4.1-13.2,11.1-24.2,24.2-24.1A24.41,24.41,0,0,1,201,297.4Zm-24,8.2a8.15,8.15,0,1,0-.4-16.3,8.15,8.15,0,0,0,.4,16.3Z"/></g></g></svg>