<svg xmlns="http://www.w3.org/2000/svg" viewBox="0 0 326.31 366.07"><title>tasks</title><g id="Слой_2" data-name="Слой 2"><g id="Слой_1-2" data-name="Слой 1"><path d="M6.6,366.07c-5.2-2.79-6.6-7.2-6.6-13Q.15,182.37.1,11.68c0-4.21.5-8,4.5-10.1A12.74,12.74,0,0,1,10.3.08q134.1-.16,268.1,0c6.3,0,10,3.6,10.1,9.89.1,22,.1,44.1,0,66.1,0,6-3.7,9.9-9,9.8s-8.9-4.1-9-10c-.1-17.8,0-35.5,0-53.3v-4.5H18.2V347.78H270.5V243.47c0-6.7,3.6-10.8,9.3-10.7a8.8,8.8,0,0,1,8.5,7.7,35.4,35.4,0,0,1,.2,4.6c0,36.11-.1,72.21.1,108.3,0,5.7-1.4,10-6.7,12.5Q144.2,366.17,6.6,366.07Z"/><path d="M147.4,288.18c-6.5,0-10.7-4.61-9.7-10.8,2.4-14.8,4.7-29.6,7.4-44.4a17.75,17.75,0,0,1,4.6-8.5Q209.85,164,270.2,103.88c5.7-5.7,10.4-5.7,16.2.1l35.4,35.4c6,6,6,10.6.1,16.5Q261.75,216,201.6,276.28c-3.3,3.29-7.1,4.4-11.4,5.1-13.5,2.1-27,4.4-40.5,6.7C148.7,288.07,147.9,288.18,147.4,288.18ZM269.5,183.47c-9.3-9.3-17.9-18-26.9-27.1-.7.8-1.5,2-2.5,3-23.9,23.9-47.8,47.9-71.8,71.7-3.9,3.9-6.4,7.8-7,13.4-.9,7.9-2.4,15.6-3.7,23.9,1.6-.2,2.8-.3,3.9-.5,8-1.3,16-2.5,23.9-4a11.51,11.51,0,0,0,6.1-3.1c25.3-25.1,50.4-50.3,75.6-75.5A9.83,9.83,0,0,1,269.5,183.47Zm9-61.29c-7.2,7.1-14.5,14.3-21.3,21.1,8.4,8.5,17.1,17.1,25.3,25.4l21.1-21.11Z"/><path d="M71.1,85.57c11.5-11.5,22.4-22.6,33.6-33.5a14.72,14.72,0,0,1,7.4-3.6c3.5-.5,6.5,1.4,8,4.8,1.6,3.7,1.2,7.31-1.7,10.31-4.5,4.69-9.2,9.3-13.9,13.9l-25.8,25.8c-5.1,5.1-10,5.1-15.2,0-6-6-12-11.9-17.9-17.9-4.2-4.3-4.5-10-.8-13.6s9.3-3.2,13.4.9C62.6,76.67,66.7,81,71.1,85.57Z"/><path d="M71.1,192.27c11.4-11.4,22.3-22.4,33.3-33.3a13.56,13.56,0,0,1,4.9-3.4,8.51,8.51,0,0,1,10.3,3.5,9.19,9.19,0,0,1-.9,10.9c-.7.8-1.5,1.5-2.2,2.3-12.6,12.6-25.2,25.3-37.9,37.91-4.8,4.8-9.8,4.8-14.6,0-6.2-6.11-12.2-12.21-18.2-18.31-4.2-4.3-4.5-10-.8-13.6s9.2-3.2,13.4.9S66.6,187.68,71.1,192.27Z"/><path d="M71.8,299.37a22.43,22.43,0,0,1,2.4-3.6c10.2-10.2,20.3-20.4,30.6-30.6,4.3-4.3,10-4.7,13.6-1s3.4,9.3-1,13.6l-38.7,38.7c-5.2,5.1-10,5.1-15.2,0-6-5.9-12-11.9-17.9-17.9-4.1-4.2-4.5-9.7-.9-13.39s9.3-3.5,13.6.79C62.7,290.07,66.8,294.28,71.8,299.37Z"/></g></g></svg>