<?xml version="1.0" encoding="utf-8"?>
<!-- Generator: Adobe Illustrator 21.0.2, SVG Export Plug-In . SVG Version: 6.00 Build 0)  -->
<svg version="1.1" id="Слой_1" xmlns="http://www.w3.org/2000/svg" xmlns:xlink="http://www.w3.org/1999/xlink" x="0px" y="0px"
	 viewBox="0 0 614.6 566" style="enable-background:new 0 0 614.6 566;" xml:space="preserve">
<style type="text/css">
	.st0{fill:#D24625;}
	.st1{fill:#FFFFFF;}
</style>
<g>
	<path class="st0" d="M308.8,65.2c10.2,0,20.5,0,30.7,0c-0.1,0.5-0.2,1-0.2,1.5c0,14.7,0,29.3,0,44c0,0.6,0.1,1.1,0.2,1.8
		c1,0.1,1.9,0.2,2.7,0.2c55.7,0.1,111.4,0.2,167.1,0.3c11,0,18.5,7.5,18.5,18.5c0,12.8,0.1,25.6,0.2,38.4c0,1.2,0.2,2.3,0.4,3.5
		c0,89,0,178,0,267c-0.2,1.7-0.5,3.5-0.7,5.2c-2.1,13.5-4,14.9-14,17.5c-0.5,0.1-1,0.2-1.5,0.2c-9.1,0.3-18.3,0.9-27.4,0.9
		c-47.4,0-94.9-0.1-142.3-0.2c-2.9,0-3.4,1-3.4,3.6c0.1,15.2,0.1,30.3,0.1,45.5c0,1.1,0,2.1,0,3.5c-5.8,0-11.3,0-16.8,0
		c-5.7,0-11.5,0.5-17.1-0.3c-9.1-1.2-18.2-3.2-27.3-4.8c-26.3-4.6-52.6-9.3-78.9-13.8c-23.4-4.1-46.8-8-70.3-12.1
		c-19.5-3.4-39.1-7-58.6-10.2c-3.2-0.5-3.7-1.7-3.7-4.5c0.1-46.5,0.1-92.9,0.1-139.4c0-73.4,0-146.9-0.1-220.3
		c0-2.6,0.6-3.7,3.3-4.2c23-3.9,46.1-8,69.1-12c25.4-4.4,50.9-8.8,76.3-13.2c25.9-4.5,51.9-8.9,77.8-13.4
		C298.4,67.4,303.6,66.3,308.8,65.2z M512.8,448.6c0-1.4,0-2.5,0-3.5c0-104.5,0-208.9,0.1-313.4c0-3-0.8-3.8-3.8-3.8
		c-55.4,0.1-110.9,0.1-166.3,0.1c-1.1,0-2.2,0.2-3.3,0.3c0,17.6,0,34.9,0,52.5c8.5-1.7,16.7-3.4,25.3-5.1c0.1,2.7,0.4,4.9,0.4,7.2
		c0.1,19.2,0.2,38.4,0.1,57.6c0,2.8,0.7,3.6,3.6,3.6c20.6-0.1,41.1,0.1,61.7,0.2c1.2,0,2.4,0.1,3.7,0.2c-0.9,16-7.7,36.3-22.3,49.4
		c-21.3,19-45.9,21.3-72.5,13.5c0,10.5,0,20.7,0,31.3c42,0,83.8,0,125.7,0c0,5.7,0,11,0,16.4c0,4.1,0,4.1-4.2,4.1
		c-39.1,0-78.2,0-117.3,0c-1.4,0-2.8,0.2-4.2,0.2c0,9,0,17.6,0,26.6c42,0,83.7,0,125.7,0c0,5.6,0,10.9,0,16.1c0,4.3,0,4.3-4.3,4.3
		c-39,0-78,0-117,0c-1.5,0-2.9,0-4.5,0c0,14.3,0,28.3,0,42.3C397.3,448.6,454.8,448.6,512.8,448.6z M150.7,204.1
		c-0.1,1.6-0.2,3.1-0.2,4.7c0,53.2,0,106.5,0,159.7c0,0.6,0,1.2,0,1.8c-0.1,1.6,0.6,2.2,2.2,2.3c6.2,0.4,12.3,1.1,18.5,1.6
		c3.6,0.3,7.2,0.5,11.3,0.8c0-20.8,0-41.1,0-61.5c6.5,0,12.5,0.2,18.5,0c13.6-0.4,25.3-5.5,34.1-15.7c17.3-19.9,19.9-42.7,12-67.1
		c-2.4-7.3-5.9-14.2-12.2-19.1c-11.7-9-25.3-10.7-39.4-10.2c-10.3,0.4-20.6,1.4-30.9,2C159.9,203.7,155.4,203.9,150.7,204.1z"/>
	<path class="st1" d="M512.8,448.6c-58,0-115.6,0-173.3,0c0-14.1,0-28,0-42.3c1.5,0,3,0,4.5,0c39,0,78,0,117,0c4.3,0,4.3,0,4.3-4.3
		c0-5.2,0-10.4,0-16.1c-41.9,0-83.7,0-125.7,0c0-9,0-17.6,0-26.6c1.4-0.1,2.8-0.2,4.2-0.2c39.1,0,78.2,0,117.3,0
		c4.2,0,4.2,0,4.2-4.1c0-5.3,0-10.6,0-16.4c-42,0-83.7,0-125.7,0c0-10.6,0-20.8,0-31.3c26.6,7.8,51.2,5.5,72.5-13.5
		c14.6-13,21.4-33.4,22.3-49.4c-1.2-0.1-2.4-0.2-3.7-0.2c-20.6-0.1-41.1-0.2-61.7-0.2c-2.9,0-3.6-0.8-3.6-3.6
		c0.1-19.2,0-38.4-0.1-57.6c0-2.2-0.2-4.5-0.4-7.2c-8.6,1.8-16.9,3.4-25.3,5.1c0-17.6,0-34.8,0-52.5c1.1-0.1,2.2-0.3,3.3-0.3
		c55.4,0,110.9,0,166.3-0.1c3,0,3.8,0.8,3.8,3.8c-0.1,104.5-0.1,208.9-0.1,313.4C512.8,446.1,512.8,447.2,512.8,448.6z M444.9,232.7
		c-1.5-38.2-36.7-68.1-68.3-67.8c0,22.6,0,45.1,0,67.8C399.5,232.7,422.2,232.7,444.9,232.7z"/>
	<path class="st1" d="M150.7,204.1c4.8-0.2,9.3-0.4,13.8-0.7c10.3-0.7,20.6-1.6,30.9-2c14.1-0.6,27.7,1.1,39.4,10.2
		c6.3,4.9,9.9,11.8,12.2,19.1c7.9,24.4,5.3,47.3-12,67.1c-8.8,10.2-20.5,15.3-34.1,15.7c-6,0.2-12,0-18.5,0c0,20.4,0,40.7,0,61.5
		c-4.1-0.3-7.7-0.5-11.3-0.8c-6.2-0.5-12.3-1.2-18.5-1.6c-1.6-0.1-2.3-0.7-2.2-2.3c0-0.6,0-1.2,0-1.8c0-53.2,0-106.5,0-159.7
		C150.5,207.2,150.6,205.7,150.7,204.1z M182.8,232.6c0,17.6,0,34.9,0,52.5c6-0.7,11.1-1.2,16.2-2.1c7.9-1.4,13.3-5.9,15.5-13.9
		c1.7-6,2.3-12.1,1.3-18.4c-1.7-10.7-6.8-16.8-16.1-18C194.1,232.1,188.4,232.6,182.8,232.6z"/>
	<path class="st0" d="M444.9,232.7c-22.7,0-45.4,0-68.3,0c0-22.6,0-45.2,0-67.8C408.2,164.7,443.4,194.6,444.9,232.7z"/>
	<path class="st0" d="M182.8,232.6c5.6,0,11.3-0.6,16.9,0.1c9.3,1.2,14.5,7.4,16.1,18c1,6.2,0.3,12.3-1.3,18.4
		c-2.2,8-7.5,12.5-15.5,13.9c-5.1,0.9-10.3,1.3-16.2,2.1C182.8,267.5,182.8,250.3,182.8,232.6z"/>
</g>
</svg>
