<svg xmlns="http://www.w3.org/2000/svg" viewBox="0 0 478.6 478.6"><defs><style>.cls-1{fill:#081835;}.cls-2{fill:#00abd3;}</style></defs><title>ps</title><g id="Слой_2" data-name="Слой 2"><g id="Слой_1-2" data-name="Слой 1"><rect class="cls-1" x="20.5" y="19.3" width="432.1" height="432.1"/><path class="cls-2" d="M88.9,240.7c0-36.4.1-72.9-.1-109.3,0-4.7,1-6.8,6.2-7.5,16.2-2,32.5-3,48.8-3.6,18.1-.6,36.1-.7,53.9,3.1,19,4,35.6,12.1,47.3,28.3,10.6,14.7,14.3,31.3,12.8,49.1-1.5,18.4-7.6,35-21.2,48.1-12.7,12.3-28.5,18.7-45.6,22.2a155,155,0,0,1-45.1,2.3c-3.5-.3-3.9,1.4-3.9,4.1v33.6c0,13.5-.1,27.1.1,40.6.1,4.1-1.4,5.5-5.4,5.4-14.2-.2-28.3-.2-42.5,0-4.9.1-5.5-2.3-5.5-6.3C89,314.2,88.9,277.5,88.9,240.7Zm53.4-43.6V227c0,1.9-.4,4.4,2.5,4.8,16.9,2.2,33.5,2.1,47.7-8.9,11.2-8.7,13.8-21.1,12-34.4-1.7-12.1-9-20.2-20.5-24.4-12.1-4.4-24.4-3.5-36.9-2.1-3.7.4-5,2.2-4.9,5.9C142.4,177.5,142.3,187.3,142.3,197.1Z"/><path class="cls-2" d="M333.4,182.3c15.3.5,30.4,2.2,44.8,8.1,3,1.2,4.2,2.5,3.3,5.9-2.6,9.3-5,18.7-7.2,28.1-.9,3.9-2.3,4.6-6.1,2.9-11-5.1-22.5-8.1-34.8-7.5a30.39,30.39,0,0,0-9.5,2,11.46,11.46,0,0,0-7.6,9.8,10.92,10.92,0,0,0,5.4,11.1c7.9,5.2,16.9,7.9,25.6,11.2a90.24,90.24,0,0,1,26.3,14.9c19.7,16.5,21.6,50.5,4.3,69.4-12.4,13.6-28.4,19.5-46,21.3-22.4,2.4-44.5.5-65.5-8.3-6.1-2.5-6.1-2.6-4.5-8.9,2.3-9.4,4.8-18.7,7-28.1.7-3.1,1.9-3.8,4.8-2.3a103.34,103.34,0,0,0,38.9,10.9,43.13,43.13,0,0,0,14.8-1.4c5.3-1.3,9.4-4.1,10.3-10.1q1.35-9.75-7.2-14.4c-8.2-4.5-17.3-7-25.9-10.6-11.6-4.9-22.2-11.1-30.4-21-14.4-17.6-11.3-43.4,1.8-59.2,11.6-14,27.1-20.5,44.6-22.9C324.7,182.6,329,181.9,333.4,182.3Z"/><polygon class="cls-2" points="239.3 0 239.3 38.7 439.9 38.7 439.9 439.9 239.3 439.9 239.3 478.6 478.6 478.6 478.6 0 239.3 0"/><polygon class="cls-2" points="239.3 0 239.3 38.7 38.6 38.7 38.6 439.9 239.3 439.9 239.3 478.6 0 478.6 0 0 239.3 0"/></g></g></svg>