<svg xmlns="http://www.w3.org/2000/svg" viewBox="0 0 521.1 413.9"><defs><style>.cls-1{fill:#fd9f00;}.cls-2{fill:#fdc827;}.cls-3{fill:#bf360c;}</style></defs><title>zip</title><g id="Слой_2" data-name="Слой 2"><g id="Слой_1-2" data-name="Слой 1"><path class="cls-1" d="M48.9,50.4H233.5L184.1,0H49.7A48.91,48.91,0,0,0,.8,48.9V90.6A49,49,0,0,1,48.9,50.4Z"/><path class="cls-2" d="M472.3,50.4H48.9A48.88,48.88,0,0,0,.8,90.5,50.27,50.27,0,0,0,0,99.2V365a48.91,48.91,0,0,0,48.9,48.9H472.2A48.91,48.91,0,0,0,521.1,365V99.3A48.76,48.76,0,0,0,472.3,50.4Z"/><path class="cls-3" d="M208.6,310.6c-.1-8.2,2-16.1,4.6-23.8,3.9-11.6,8.2-23,12.2-34.5a165.73,165.73,0,0,0,8.6-35.5c.3-2.8.4-5.7.5-8.6,0-1.4.4-2.1,2-2,16.1.1,32.2,0,48.3,0,1.2,0,2,.1,2,1.6.1,13.9,3.3,27.1,7.7,40.2,4,11.8,8.5,23.4,12.3,35.3a138.61,138.61,0,0,1,5.3,21.1c1.9,12.6-1.2,24.4-8.4,34.9-8.4,12.3-20,19.9-34.7,22.3-16,2.6-30.2-1.5-42.4-12A50.61,50.61,0,0,1,208.6,310.6Zm51.9,25.6a25.9,25.9,0,1,0-25.9-25.7A25.95,25.95,0,0,0,260.5,336.2Z"/><path class="cls-3" d="M234.7,50.4h51.8a14.77,14.77,0,0,1,.1,2.1V74.1c0,1.7-.4,2.3-2.2,2.3-16-.1-32,0-48,0-1.2,0-2.1,0-2.1-1.7.1-7.6,0-15.2,0-22.8A8.33,8.33,0,0,0,234.7,50.4Z"/><path class="cls-3" d="M260.6,89.3h24c1.6,0,2.1.5,2.1,2.1-.1,7.3-.1,14.7,0,22,0,1.6-.5,2.1-2.1,2.1-16,0-32-.1-47.9,0-1.7,0-2.2-.5-2.2-2.2.1-7.3.1-14.6,0-21.8,0-1.7.5-2.2,2.2-2.2Z"/><path class="cls-3" d="M260.5,154.4H236.9c-1.8,0-2.5-.4-2.5-2.4q.15-10.8,0-21.6c0-1.7.4-2.2,2.2-2.2,16,.1,32,.1,47.9,0,1.8,0,2.2.6,2.2,2.2q-.15,10.8,0,21.6c0,2-.7,2.4-2.5,2.4Z"/><path class="cls-3" d="M260.8,167.3h23.8c1.7,0,2.2.5,2.2,2.2-.1,7.3-.1,14.6,0,21.8,0,1.7-.6,2.2-2.2,2.2q-23.85-.15-47.7,0c-1.8,0-2.3-.6-2.3-2.3q.15-10.8,0-21.6c0-1.8.6-2.3,2.3-2.3Z"/></g></g></svg>