<svg xmlns="http://www.w3.org/2000/svg" viewBox="0 0 478.9 455.4"><defs><style>.cls-1{fill:#1f7244;}.cls-2{fill:#fff;}</style></defs><title>excel-file</title><g id="Слой_2" data-name="Слой 2"><g id="Слой_1-2" data-name="Слой 1"><path class="cls-1" d="M271.6,409.8v45.6c-1.3-.1-2.2-.2-3.2-.3q-71.1-13.35-142.3-26.8Q66.25,417.05,6.3,405.6C0,404.4,0,404.4,0,398V51.2Q135.6,25.55,271.4,0V45.6c1.6.1,2.9.2,4.1.2h179c6.6,0,12.5,1.3,17.4,6a21.64,21.64,0,0,1,7,16.2V386.7c0,10.2-5.3,18.4-14.4,21.5a28.45,28.45,0,0,1-9.2,1.3q-89.85.15-179.8.1A23,23,0,0,1,271.6,409.8ZM337.2,321v37c0,4.3.5,4-3.8,4H271.8v29.6H456.7c3.7,0,3.7,0,3.7-3.8V67.5c0-2.5-.4-3.4-3.2-3.4q-91.2.15-182.4.1h-3V93.7c1.3.1,2.5.2,3.7.2,19.6,0,39.1.1,58.7,0,2.5,0,3.2.7,3.2,3.2-.1,11.6-.1,23.2-.1,34.8,0,1-.1,2-.2,3.2H271.9v15.7h65.8v37.7c0,3.4,0,3.4-3.4,3.4H271.9v16.7h65.6v41.3H271.9v15.8h65.7v40.9H271.9v14.7C293.6,321,315.3,321,337.2,321ZM70.2,151.9c.5,1.2.9,2,1.2,2.7,11,22.5,21.9,45,32.9,67.4a5.28,5.28,0,0,1,0,5.3c-12,22.3-23.9,44.7-35.9,67.1-.5.9-.8,1.8-1.4,3,1.7.1,2.9.1,4.1.2,8.5.6,17.1,1.1,25.6,1.8,2.1.2,3.2-.2,4.2-2.3,6.3-14,12.8-27.8,19.1-41.8,1.8-4,3.1-8.3,4.7-12.5,1,3.1,1.6,6.2,2.9,9.1,7.2,16.4,14.6,32.7,21.9,49.1a3.33,3.33,0,0,0,3.3,2.3c6.6.4,13.1.9,19.7,1.4,5.1.3,10.3.6,16,1-.8-1.6-1.3-2.7-1.9-3.8-13.2-24.9-26.4-49.9-39.8-74.7a5.79,5.79,0,0,1,.1-6.2q19.5-36.9,38.8-73.8c.5-.9.9-1.8,1.5-3.1h-2.6c-8.8.6-17.6,1.5-26.4,1.6-5.2.1-8.2,1.9-9.4,6.9-.1.2-.2.5-.3.7-7.3,17.4-16.9,34-22.1,52.3,0,.1-.2.2-.4.4a61.36,61.36,0,0,0-2.2-7.3q-9.6-23.85-19.3-47.6a2.88,2.88,0,0,0-2.3-1.3c-2.9,0-5.9.3-8.8.5C85.7,150.9,78.2,151.4,70.2,151.9Z"/><path class="cls-2" d="M70.2,151.9c8-.6,15.5-1.1,23-1.6,2.9-.2,5.9-.5,8.8-.5.8,0,2.1.6,2.3,1.3,6.5,15.8,13,31.7,19.3,47.6.9,2.3,1.4,4.8,2.2,7.3.2-.2.4-.3.4-.4,5.2-18.3,14.7-34.9,22.1-52.3.1-.2.2-.5.3-.7,1.2-5,4.2-6.8,9.4-6.9,8.8-.1,17.6-1,26.4-1.6H187c-.6,1.3-1.1,2.2-1.5,3.1q-19.35,36.9-38.8,73.8a5.79,5.79,0,0,0-.1,6.2c13.3,24.9,26.5,49.8,39.8,74.7.6,1.1,1.1,2.2,1.9,3.8-5.7-.3-10.8-.6-16-1-6.6-.4-13.1-1-19.7-1.4a3.33,3.33,0,0,1-3.3-2.3c-7.3-16.4-14.6-32.7-21.9-49.1-1.3-2.9-1.9-6-2.9-9.1-1.6,4.2-2.9,8.5-4.7,12.5-6.3,14-12.8,27.8-19.1,41.8-.9,2-2,2.5-4.2,2.3-8.5-.7-17.1-1.3-25.6-1.8-1.2-.1-2.4-.1-4.1-.2.6-1.2.9-2.2,1.4-3,11.9-22.4,23.9-44.7,35.9-67.1a5.06,5.06,0,0,0,0-5.3q-16.5-33.6-32.9-67.4A25.11,25.11,0,0,0,70.2,151.9Z"/><rect class="cls-1" x="354.6" y="320.9" width="74.8" height="41.1"/><rect class="cls-1" x="354.6" y="264.6" width="74.8" height="41.1"/><rect class="cls-1" x="354.6" y="208.3" width="74.8" height="41.1"/><rect class="cls-1" x="354.6" y="150.6" width="74.8" height="41.1"/><rect class="cls-1" x="354.6" y="93.7" width="74.8" height="41.1"/></g></g></svg>