<svg xmlns="http://www.w3.org/2000/svg" viewBox="0 0 391.94 512.2"><defs><style>.cls-1{fill:#cb0606;}.cls-2{fill:#fb8d8d;}.cls-3{fill:#fff;}</style></defs><title>pdf</title><g id="Слой_2" data-name="Слой 2"><g id="Слой_1-2" data-name="Слой 1"><path class="cls-1" d="M391.94,144.1v333a31.9,31.9,0,0,0-1.1,3.3c-4.2,16.2-14.5,26.4-30.7,30.7-1.1.3-2.1.7-3.2,1.1h-322c-.3-.2-.5-.5-.8-.6C10,504.9,0,491.8,0,466.8V103.4c0-20.7-.1-41.3,0-62C.14,21,12.84,5.5,32.64,1a8.75,8.75,0,0,0,2.2-1h213c.1,2,.2,4,.2,6,0,31,0,61.9.1,92.9a98.61,98.61,0,0,0,1,14.4c2.7,19.7,15,30.4,34.9,30.5h65.4ZM220.74,293.3c-2.3-1.4-3.7-2.3-5.2-3.1-16.9-9.2-36.4-3.1-43.3,14.4-5.9,14.8-5.7,30-.1,44.9,3.9,10.1,11.5,16,22.6,17a33.88,33.88,0,0,0,22.3-5.6c1.4-.9,2.9-1.9,4.6-3.1.3,2.5.6,4.3.8,6.2h17.3V273c0-4.3.2-8.7-.1-13-.1-1.3-1.4-3.5-2.2-3.5-5.4-.3-10.9-.2-16.7-.2ZM102.94,393V359.6c1.9,1.2,3.2,1.9,4.4,2.6,17.1,10.1,37,3.6,44.1-14.9,5.4-14.2,5.3-28.8.4-43.1-4.1-12.1-13.5-18.2-26.4-18.2a34.83,34.83,0,0,0-19.7,6.2c-1.3.8-2.5,1.7-4.1,2.7-.3-2.7-.5-4.5-.6-6.3H84.34V392.9C90.44,393,96.24,393,102.94,393Zm201.7-136.9c-11.1-2.5-21.5-3.4-31.3,1.8-12.2,6.4-10.8,18.7-11.5,30.1l-8.9.6v14.6c3.1.2,5.8.3,9.3.5v60.4h18.9v-61h15.6c0-4.1-.1-7.8,0-11.4.1-2.6-1-3.6-3.5-3.5-3.9.1-7.9,0-13.2,0,1.3-5.8.8-12.8,3.7-14.7,4.4-2.8,11.1-2.1,17.5-2.9C302.14,266.9,303.34,261.9,304.64,256.1Z"/><path class="cls-2" d="M391.94,144.1c-14.1-.1-28.3-.2-42.4-.2h-65.4c-19.8,0-32.2-10.8-34.9-30.5a99.59,99.59,0,0,1-1-14.4c-.1-31,0-61.9-.1-92.9,0-2-.1-4-.2-6h17l127,128Z"/><path class="cls-3" d="M220.74,293.3V256.5c5.8,0,11.3-.2,16.7.2.8,0,2.1,2.2,2.2,3.5.3,4.3.1,8.7.1,13v91h-17.3c-.3-1.9-.5-3.7-.8-6.2-1.7,1.1-3.1,2.1-4.6,3.1a34.47,34.47,0,0,1-22.3,5.6c-11.1-1-18.7-6.9-22.6-17-5.6-14.9-5.8-30.1.1-44.9,6.9-17.5,26.4-23.7,43.3-14.4A52.43,52.43,0,0,1,220.74,293.3Zm0,33.1c0-4.5.1-9,0-13.4a7,7,0,0,0-1.1-4.1c-8.6-9.9-24.9-7.2-29.5,4.9a38.34,38.34,0,0,0,.2,27.3c2.5,6.8,8.2,10,15.5,8.7a44.52,44.52,0,0,0,8.5-2.8c4.9-1.9,7.4-5,6.6-10.6C220.34,333.1,220.74,329.7,220.74,326.4Z"/><path class="cls-3" d="M102.94,393H84.24V288.7h16.7c.2,1.9.4,3.7.6,6.3,1.6-1.1,2.9-1.9,4.1-2.7a34.83,34.83,0,0,1,19.7-6.2c12.8,0,22.2,6.1,26.4,18.2,4.9,14.3,5,28.9-.4,43.1-7.1,18.5-27,25-44.1,14.9-1.2-.7-2.5-1.5-4.4-2.6C102.94,371,102.94,381.7,102.94,393Zm0-66.6c0,4.7-.1,9.3,0,14a5.92,5.92,0,0,0,1,3.7c8,9.7,24.1,7.5,29-4.1,3.7-8.6,3.5-17.6.8-26.4-2.5-8.2-7.8-11.6-16.3-10.3-3.2.5-6.3,2-9.3,3.2-4,1.6-5.8,4.4-5.3,9A98.63,98.63,0,0,1,102.94,326.4Z"/><path class="cls-3" d="M304.64,256.1c-1.3,5.8-2.4,10.8-3.3,14.6-6.5.9-13.2.1-17.5,2.9-2.9,1.9-2.4,8.9-3.7,14.7,5.3,0,9.3.1,13.2,0,2.6-.1,3.6.9,3.5,3.5-.1,3.6,0,7.3,0,11.4h-15.6v61h-18.9V303.8c-3.5-.2-6.2-.3-9.3-.5V288.7l8.9-.6c.7-11.4-.7-23.6,11.5-30.1C283.14,252.7,293.54,253.5,304.64,256.1Z"/><path class="cls-1" d="M220.74,326.4c0,3.3-.4,6.7.1,10,.8,5.6-1.7,8.8-6.6,10.6a44.52,44.52,0,0,1-8.5,2.8c-7.2,1.3-13-1.9-15.5-8.7a38.34,38.34,0,0,1-.2-27.3c4.6-12.2,20.8-14.8,29.5-4.9a7,7,0,0,1,1.1,4.1C220.84,317.4,220.74,321.9,220.74,326.4Z"/><path class="cls-1" d="M102.94,326.4a100.69,100.69,0,0,0-.1-11c-.6-4.6,1.3-7.3,5.3-9,3.1-1.2,6.1-2.7,9.3-3.2,8.5-1.3,13.8,2.1,16.3,10.3,2.7,8.8,2.9,17.8-.8,26.4-4.9,11.5-21,13.8-29,4.1a7.28,7.28,0,0,1-1-3.7C102.84,335.7,102.94,331,102.94,326.4Z"/></g></g></svg>