<svg xmlns="http://www.w3.org/2000/svg" viewBox="0 0 509.2 486.8"><defs><style>.cls-1{fill:#449722;}.cls-2{fill:#fff;}.cls-3{fill:#1266ea;}.cls-4{fill:#833c86;}.cls-5{fill:#cc93cf;}.cls-6{fill:#9d48a1;}.cls-7{fill:#377ef0;}.cls-8{fill:#52b529;}.cls-9{fill:#ee6d62;}.cls-10{fill:#e93e30;}.cls-11{fill:#b3b3b3;}.cls-12{fill:#f8c63d;}</style></defs><title>rar</title><g id="Слой_2" data-name="Слой 2"><g id="Слой_1-2" data-name="Слой 1"><polygon class="cls-1" points="22.2 402.1 2.3 402.1 103.7 486.8 123.7 486.8 22.2 402.1"/><path class="cls-2" d="M15.1,407.3a175.61,175.61,0,0,0,9-59.7c-.9-32.7-6.5-66.5-6.5-66.5l86.1,71.8v127Z"/><polygon class="cls-3" points="22.2 268.3 2.3 268.3 103.7 352.9 123.7 352.9 22.2 268.3"/><path class="cls-2" d="M15.1,273.2a175.61,175.61,0,0,0,9-59.7c-.9-32.7-6.5-66.5-6.5-66.5l86.1,71.8v127Z"/><polygon class="cls-4" points="22.2 133.4 2.3 133.4 103.7 218.1 123.7 218.1 22.2 133.4"/><path class="cls-2" d="M15.1,137.3a175.61,175.61,0,0,0,9-59.7c-.9-32.7-6.5-66.5-6.5-66.5l86.1,71.8v127Z"/><polygon class="cls-5" points="0 0 101.7 83.2 509.2 83.2 411.1 0 0 0"/><polygon class="cls-6" points="100.2 219.1 509.2 219.1 509.2 83.2 101.7 83.2 100.2 219.1"/><polygon class="cls-7" points="100.2 350.9 509.2 350.9 509.2 219.1 101.7 219.1 100.2 350.9"/><polygon class="cls-8" points="100.2 486.8 509.2 486.8 509.2 350.9 101.7 350.9 100.2 486.8"/><polygon class="cls-9" points="168.9 0 268.5 83.2 371.9 83.2 272.9 0 168.9 0"/><rect class="cls-10" x="267.5" y="83.2" width="103.4" height="403.5"/><path class="cls-10" d="M369,349.6H269.5a14.94,14.94,0,0,1-14.9-14.9V235.2a14.94,14.94,0,0,1,14.9-14.9H369a14.94,14.94,0,0,1,14.9,14.9v99.5A15,15,0,0,1,369,349.6Z"/><path class="cls-11" d="M365.1,230a10.24,10.24,0,0,1,10.2,10.2v90.7a10.24,10.24,0,0,1-10.2,10.2H274.4a10.24,10.24,0,0,1-10.2-10.2V240.2A10.24,10.24,0,0,1,274.4,230h90.7m0-11.9H274.4a22.11,22.11,0,0,0-22.1,22.1v90.7A22.11,22.11,0,0,0,274.4,353h90.7a22.11,22.11,0,0,0,22.1-22.1V240.2a22.11,22.11,0,0,0-22.1-22.1Z"/><path class="cls-11" d="M307.7,291.9a3.9,3.9,0,0,1-3.9-3.9V228.3a3.9,3.9,0,0,1,3.9-3.9h23a3.9,3.9,0,0,1,3.9,3.9V288a3.9,3.9,0,0,1-3.9,3.9Z"/><path class="cls-11" d="M330.7,228.4v59.5H307.8V228.4h22.9m.1-8h-23a7.85,7.85,0,0,0-7.9,7.9V288a7.85,7.85,0,0,0,7.9,7.9h23a7.85,7.85,0,0,0,7.9-7.9V228.3a7.92,7.92,0,0,0-7.9-7.9Z"/><rect class="cls-12" x="129.7" y="110.4" width="20.4" height="77.2"/><rect class="cls-12" x="164.4" y="110.4" width="20.4" height="77.2"/><rect class="cls-12" x="129.7" y="246.4" width="20.4" height="77.2"/><rect class="cls-12" x="164.4" y="246.4" width="20.4" height="77.2"/><rect class="cls-12" x="129.7" y="377.3" width="20.4" height="77.2"/><rect class="cls-12" x="164.4" y="377.3" width="20.4" height="77.2"/></g></g></svg>