<?xml version="1.0" encoding="utf-8"?><svg xmlns="http://www.w3.org/2000/svg" xmlns:xlink="http://www.w3.org/1999/xlink"><symbol viewBox="0 0 257.8 353.7" id="acts" xmlns="http://www.w3.org/2000/svg"><g data-name="Слой 2"><g data-name="Слой 1"><path d="M6.6 353.6c-5.4-1.8-6.6-5.9-6.6-11.1q.15-102.6 0-205.1V11.7a38.66 38.66 0 0 1 .3-4.8A7.33 7.33 0 0 1 6.4.3a15.83 15.83 0 0 1 3.8-.3h237.2a15.81 15.81 0 0 1 4.8.6 7.06 7.06 0 0 1 5.2 5.9 33.82 33.82 0 0 1 .3 5.5q0 137 .1 273.8a15.59 15.59 0 0 1-5 12.2c-17.2 16.9-34.2 34.1-51.4 51.2a61.23 61.23 0 0 1-5.6 4.5q-94.65-.15-189.2-.1zm9.6-337.5v321.3h169.3v-45.5c0-7.3 2.9-10.2 10.3-10.2h45.5V16.2c-75.1-.1-150-.1-225.1-.1zm185.7 281.7v26.7l26.7-26.7z"/><path d="M157.1 84.8c14.5 0 29-.1 43.5 0 6.6 0 10.7 5.5 8.2 11-1.6 3.7-4.9 4.9-8.7 4.9h-86.3c-3.8 0-7.1-.9-8.9-4.6-2.6-5.3 1.1-11.1 7.4-11.3 6.8-.2 13.6-.1 20.4-.1 8.1.1 16.3.1 24.4.1zM156.7 156.8h-43.5c-6.6 0-10.8-5-8.5-10.5.9-2.1 3.4-3.7 5.5-5.1 1-.7 2.7-.4 4.1-.4h84.9a19.59 19.59 0 0 1 4.8.5 7.92 7.92 0 0 1 5.6 7.5 7.77 7.77 0 0 1-5.7 7.4 19.09 19.09 0 0 1-4.8.5c-14.1.1-28.3.1-42.4.1zM156.8 212.8h-43.5c-6.7 0-10.5-4.7-8.7-10.4 1.1-3.4 4-5.4 8.3-5.5 5.5-.1 11 0 16.6 0h70.4c4 0 7.3 1 9.1 4.9 2.3 5.3-1.4 10.8-7.6 11-5.6.2-11.3.1-16.9.1-9.3-.1-18.5-.1-27.7-.1zM61.1 153.9c6.6-8.5 13-16.8 19.5-25 3.3-4.2 6.6-5.4 10.4-3.9a7.81 7.81 0 0 1 4.2 10.6 8.78 8.78 0 0 1-1.2 2.1c-8.3 10.7-16.6 21.5-25 32.1-3.3 4.2-7.6 4.6-11.9 1.3-4.6-3.5-9.1-7-13.5-10.7-3.9-3.3-4.5-8.1-1.6-11.6s7.3-3.8 11.4-.9c2.5 1.8 4.9 3.8 7.7 6zM61.1 209.9c6.4-8.2 12.6-16.2 18.8-24.2 4.4-5.7 9-6.9 13.1-3.6 3.9 3.2 3.8 8-.4 13.4-7.5 9.6-15 19.3-22.5 28.9-4.6 5.8-8.5 6.3-14.3 1.7-3.9-3.1-7.8-6.1-11.6-9.2-4.4-3.6-5.2-8.4-2.2-12.1s7.6-3.9 12-.5c2.2 1.7 4.4 3.6 7.1 5.6zM61.1 97.9c3.8-4.9 7.5-9.6 11.1-14.3 3-3.8 5.9-7.7 8.9-11.4 3.5-4.2 8.1-5 11.8-2.1s4 7.7.7 12c-8.1 10.5-16.2 21-24.4 31.3-3.5 4.5-7.9 5-12.4 1.6s-8.7-6.8-13-10.3-5-8.2-2.1-11.8 7.5-4 12-.7c2.5 1.8 4.8 3.7 7.4 5.7z"/></g></g></symbol><symbol viewBox="0 0 28 28" id="cancel" xmlns="http://www.w3.org/2000/svg"><path d="M0 24l4 4 10-10 10 10 4-4-10-10L28 4l-4-4-10 10L4 0 0 4l10 10L0 24z" data-name="Слой 2"/></symbol><symbol viewBox="0 0 337.46 275.07" id="counterparties" xmlns="http://www.w3.org/2000/svg"><g data-name="Слой 2"><path d="M240.6.2a16.1 16.1 0 0 1 3 2.1c11.6 13.8 23.2 27.6 34.6 41.5 19 23.2 37.8 46.5 56.7 69.8 3.5 4.4 3.6 5.8-.9 9.2-9.2 7-18.6 13.7-27.9 20.5a3.66 3.66 0 0 1-4.8-.4 56.59 56.59 0 0 1-4.3-4.2 54.09 54.09 0 0 1-3.5-4.3c-.7 1.4-1.4 2.6-2 3.7-4.2 7.6-9.6 14.1-17.5 18.2a33.83 33.83 0 0 1-4.4 1.8 5.45 5.45 0 0 0-3.3 3 22.85 22.85 0 0 1-12 11.5c-.5.2-1 .5-1.6.7a1.86 1.86 0 0 0-1.1 2.7 22.65 22.65 0 0 1-13.2 27.5c-2.8 1.1-2.6 1.1-2.4 4a76.16 76.16 0 0 1 0 11.7c-.6 5.2-3.9 9-7.9 12a45.38 45.38 0 0 1-6 3.6c-1.4.7-2.1 1.5-1.8 3.3.7 4.4 1.1 8.8-.1 13.2-2.4 8.9-11.4 15.5-20.7 15.5a30.84 30.84 0 0 1-13.7-3.4c-6.6-3.2-13.3-6.4-20-9.6a2 2 0 0 0-.5-.1l-1.5 2.4c-2.6 4.1-5.2 8.2-8 12.3-3.8 5.6-9.2 7.7-15.7 6.2-11.9-2.7-21.2-9-26.4-20.3-1.2-2.7-2.6-3.4-5.3-3.9-12.8-2.5-23.1-8.6-27.2-22-.6-2.1-1.9-2.7-3.8-3-8.3-1.3-15-5.4-20.6-11.6-4.8-5.3-5.2-11.6-2.1-17.6 1.7-3.5 1.5-5.6-1-8.5-4-4.6-6.7-10-9-15.6-.3-.7-.6-1.4-1.1-2.5-.5.7-.7 1.2-1 1.6a24.9 24.9 0 0 1-2 3.2c-2.6 3-3.9 3.2-6.8 1.7-9.7-4.9-19.4-9.7-29-14.6-2-1-3.9-2.2-4.8-4.4V155c1-1.8 1.9-3.7 2.9-5.5q25.35-44.1 50.7-88.1c6.5-11.3 13.2-22.6 19.8-33.9 1.3-2.2 2.4-2.7 4.9-2.1a23 23 0 0 1 5 1.8c7.7 3.8 15.3 7.6 22.9 11.5a48.6 48.6 0 0 1 5.4 3.3c2.4 1.7 2.8 3.9 1.5 6.5-.6 1.1-1.1 2.3-1.7 3.4-.7 1.4-.5 2.3 1 3.1 10.2 5.7 20.3 11.4 30.4 17.2 3.5 2 7 3.9 10.5 5.9 19.8-14.5 39.7-28.5 59.3-43.3-.9-1.3-1.7-2.3-2.4-3.4a25 25 0 0 1-2.1-3.5c-1.2-2.7-.7-4.4 1.6-6.2 3-2.4 6.1-4.7 9.2-6.9 6.9-5 13.8-9.9 20.7-14.8.1.2.6.2 1 .2zm-97.3 85.1c-13-7.4-25.7-14.6-38.4-21.8-.7 1.1-1.3 1.9-1.8 2.8Q77.75 110.1 52.4 154a3.69 3.69 0 0 0-.5 1.7c.5 8.9 3.9 16.8 8.8 24.1.4.6.9 1 1.3 1.5.3-.2.5-.2.6-.3a9.38 9.38 0 0 0 .9-1.2c3.3-5.1 8.1-7.3 13.9-7.6 6.8-.3 12.7 2.2 17.9 6.5 1.9 1.5 3.5 3.4 5.3 4.9a4.8 4.8 0 0 0 3.2 1.1c9.4-1.2 18.4-.2 26.7 4.9 5.2 3.2 9.1 7.6 10.9 13.3.8 2.5 2 3.1 4.2 3.5a44.46 44.46 0 0 1 24.3 13.1c6.7 6.8 6.7 16.8 2.4 22.9-.4.6-.7 1.3-1.1 1.9.4.3.7.5 1 .7 6.5 3.2 13.1 6.4 19.7 9.5a23.77 23.77 0 0 0 6.9 2c4.5.5 8.9-2.6 10.7-7.1 1.9-4.7.9-10.2-2.7-13.1a53.07 53.07 0 0 0-6.3-4.2c-5.1-3-10.2-5.9-15.2-9.1a5.42 5.42 0 0 1-2.2-3.1c-.7-3.6 3.2-7.2 6.8-5.3 4.5 2.3 9.1 4.6 13.7 6.9a67.15 67.15 0 0 0 8.3 3.6c5 1.6 10.1-.8 12.7-5.7s1.8-10.8-2.3-14.1a36.2 36.2 0 0 0-5.6-3.7c-7.2-3.8-14.5-7.5-21.7-11.3-4.9-2.6-9.7-5.2-14.5-7.9a4.39 4.39 0 0 1-1.5-6.5c1.5-2.5 3.7-3.3 6.4-2 8.5 4.1 16.9 8.3 25.3 12.4 5.3 2.6 10.6 5.2 16 7.6a8 8 0 0 0 4.3.6c5.7-.7 9-4.2 10.5-9.5 1.2-4.2-1.3-10.4-5.3-12.5-7.1-3.7-14.2-7.3-21.2-11-6.2-3.2-12.3-6.4-18.5-9.6a4.73 4.73 0 0 1-2.7-3.8c-.3-4.1 3.2-6.8 7-5.1 7.3 3.4 14.6 7 21.9 10.5 6.4 3.1 12.8 6.3 19.3 9.1 4.4 1.9 8.5.8 11.9-2.5a11.55 11.55 0 0 0 3.1-12.2c-1.1-3.8-4.1-5.8-7.5-7.3q-31.5-13.5-63.1-27.1a2.41 2.41 0 0 0-2.7.3c-6.3 4.2-12.5 8.3-18.9 12.4-6 3.9-11.9 7.7-18.1 11.3a19 19 0 0 1-7.6 2.5c-9.8.9-19.7-5.1-23-13.9-3.2-8.5-2.4-18.8 6.8-26.1 3.8-3 7.8-5.9 11.7-8.9a77.26 77.26 0 0 0 8.7-5.8zm125.3 62.1l.8-.4c7.9-4.7 12.4-12 15.5-20.4a2.82 2.82 0 0 0-.4-2c-1.4-2.1-2.9-4.3-4.5-6.3q-28.8-35.55-57.7-71.1c-.9-1.1-1.9-2.2-2.9-3.3-1 .7-1.7 1.2-2.5 1.7q-33.3 24-66.6 48.1c-7.1 5.1-13.8 10.6-20.8 15.9-3.4 2.6-4.6 5.9-4 10.1.6 4 4.1 8.7 7.8 9.2 4.3.6 8.7 1.3 12.3-2.2a20.71 20.71 0 0 1 2.4-1.7c11.1-7.3 22.2-14.5 33.2-21.9a5.7 5.7 0 0 1 5.9-.6c9.9 4.2 20 8.1 29.9 12.3 12.5 5.3 24.9 10.8 37.4 16.2a22.39 22.39 0 0 1 12.4 12.5 35.23 35.23 0 0 0 1.8 3.9zm55.6-30.2c-28.4-34.9-56.5-69.5-84.8-104.4L220.6 27c3 5 82.3 102.2 84.8 104 6.1-4.5 12.3-9 18.8-13.8zM79.7 37.5Q46.1 95.7 12.6 153.6a18.08 18.08 0 0 0 1.7 1c5.6 2.9 11.3 5.9 17 8.8 2.3 1.2 2.4 1.1 3.7-1.1q32.25-55.8 64.4-111.5c.4-.7.8-1.5 1.3-2.6-7.1-3.5-13.9-7.1-21-10.7zm64.1 227.4c2.3-.3 3.2-2 4.1-3.5 5.2-8.3 10.3-16.7 15.4-25.1 2.4-3.9 2.1-6-1-9.5a22.84 22.84 0 0 0-2.2-2.2c-4.6-3.9-10-6.2-15.7-7.8a4.56 4.56 0 0 0-5.1 1.6 23.48 23.48 0 0 0-1.9 2.5c-5 8.2-10 16.3-14.9 24.5a3.3 3.3 0 0 0-.2 2.2c2 6.9 7 11.2 13.1 14.3a52.66 52.66 0 0 0 8.4 3zm-31.9-70.4c-4.7-.3-6.4.6-7.4 2.9-1.3 3-2.5 6-4 8.9-2.5 4.8-5.3 9.5-7.7 14.4a9.74 9.74 0 0 0 2.1 11.7 30.64 30.64 0 0 0 14.5 7.5 4.29 4.29 0 0 0 4.9-2c4.5-7.3 9.1-14.5 13.5-21.8 1.3-2.1 2.4-4.3 3.5-6.5a3.39 3.39 0 0 0 .3-2.4c-1.1-3.4-2.9-6.4-6.1-8.3a30 30 0 0 0-13.6-4.4zm-33.4-11.7c-2.6-.1-4.6.7-5.9 3.1-2.3 4-4.6 7.9-6.9 11.9a34.5 34.5 0 0 0-2 4.8 4.56 4.56 0 0 0 1 4.7 25.41 25.41 0 0 0 15.6 8 3.69 3.69 0 0 0 3.9-1.9c2.9-5.2 5.7-10.4 8.6-15.7a6.05 6.05 0 0 0-.2-6.1 17 17 0 0 0-14.1-8.8z" data-name="Слой 1"/></g></symbol><symbol viewBox="0 0 330.01 329.99" id="debtors" xmlns="http://www.w3.org/2000/svg"><g data-name="Слой 2"><g data-name="Слой 1"><path d="M126.92 50.79c0-4.4-.1-8.6 0-12.8.4-14.3 6.7-25.4 19-32.7 23-13.7 52.7.6 56.7 27.1.3 2.1.4 4.2.5 6.3.1 4 0 7.9 0 12.1h41.3a38.1 38.1 0 0 1 36.5 27.8q22.2 78 44.3 156a113.61 113.61 0 0 1 4.4 28.4c.3 10.1.6 20.1.2 30.2-.6 14.4-7.6 25.1-20.1 32.2a37.45 37.45 0 0 1-18.6 4.6q-62.55 0-125-.1c-42.4 0-84.8-.2-127.1-.1A38.59 38.59 0 0 1 1.32 301a45.31 45.31 0 0 1-1.2-9c-.2-7.5-.1-15.1 0-22.6 0-13.8 2.5-27.3 6.1-40.6 12-44.6 23.8-89.2 35.8-133.7 1.7-6.2 3.1-12.5 5.1-18.6a37.68 37.68 0 0 1 35.6-25.6h42.8a5.72 5.72 0 0 1 1.4-.11zm37.9 253.7h1.1q62.7 0 125.3.1c8 0 13.3-5.3 13.3-13.3v-20.7a109.87 109.87 0 0 0-4.2-30.7q-21.9-76.95-43.7-153.9c-1.8-6.4-6.3-9.9-12.9-9.9H83.32c-6.5 0-11.1 3.6-12.8 9.9q-19.95 75-40.1 149.9c-2.9 10.9-5 21.8-5.1 33.1v22.5a12 12 0 0 0 .7 4.2c1.8 5.5 6.4 8.6 12.8 8.6 34.5 0 69 .1 103.5.1 7.6.1 15.1.1 22.5.1zm-12.3-253.8h25.1c0-4.5.1-9 0-13.4a12.29 12.29 0 0 0-11.7-11.8c-6.8-.4-12.6 3.9-13.3 10.4-.5 4.9-.1 9.8-.1 14.8z"/><path d="M178 253.79v25.3h-25.3v-25.3h-51v-25.4h88.4c6.3 0 11.2-3.7 12.7-9.6a12.47 12.47 0 0 0-12-15.7c-17.1-.1-34.2 0-51.3 0a38.06 38.06 0 0 1-13.4-73.6 35.55 35.55 0 0 1 13.2-2.5h13.3v-25.3H178V127h25v25.4h-62.8c-5.7 0-9.9 2.4-12.2 7.6a12.67 12.67 0 0 0 11.7 17.8c17.1 0 34.3-.1 51.4 0 19 .1 35.5 15.4 37.2 34.3a38.29 38.29 0 0 1-29.9 40.9 44.75 44.75 0 0 1-8.2.9c-3.98-.01-7.98-.11-12.2-.11z"/></g></g></symbol><symbol viewBox="0 0 423.4 423.62" id="edit" xmlns="http://www.w3.org/2000/svg"><g data-name="Слой 2"><g data-name="Слой 1"><path d="M226.19 85.13c6.5 6.6 13.1 13.2 19.7 19.8 1.7 1.6 1.8 3 0 4.5-.8.7-1.6 1.6-2.4 2.4q-84.3 84.3-168.6 168.4a33.9 33.9 0 0 0-8.6 15c-4.7 16.2-9.5 32.4-14.2 48.6-1.5 5.1-3 10.2-4.2 15.4a5.57 5.57 0 0 0 .8 4.2c3.7 4 7.6 7.8 11.5 11.6a4.7 4.7 0 0 0 3.5 1.2q33.75-9.75 67.4-19.9a13.63 13.63 0 0 0 5.4-3.5q74.85-74.7 149.6-149.4c9.7-9.6 19.7-18.9 29.6-28.5 7.3 7.3 14.6 14.8 22.1 22.1 2.1 2 1.6 3.3-.2 5.1-18.5 18.4-36.9 36.9-55.4 55.3q-46.5 46.2-93 92.2c-10.9 10.8-21.7 21.6-33 31.9-2.8 2.6-7.1 3.9-11 5.1-24.7 7.4-49.4 14.6-74.1 21.8-16.6 4.9-33.2 9.8-49.8 14.5-13.1 3.6-24.2-7.5-20.6-20.5 5.2-18.5 10.7-36.9 16.1-55.3 7.3-24.7 14.5-49.4 21.9-74.1a15 15 0 0 1 3.8-6.1q28.35-28.5 56.8-56.9 48.6-48.3 97.5-96.6c9.6-9.6 19.5-18.8 29.4-28.3z"/><path d="M113.49 336.63c-1.2-7.1-2.3-14.4-3.7-21.6a3.37 3.37 0 0 0-2.1-2.1c-8-2-16.1-3.8-23.1-5.5q89.55-91.2 179.6-183c11.1 11.1 21.1 21.2 30.7 30.7q-90.6 90.75-181.4 181.5zM285.89 27.43c9-8 16.4-18.4 28.2-24.1 13.4-6.4 32-3.3 42.3 6.9 19 19 38.2 37.9 57.1 57.2 7.2 7.4 10.1 16.6 9.9 27.2-.3 11.6-5.1 20.5-13.2 28.2-5 4.8-9.5 10-14 14.7-36.9-36.7-73.5-73.3-110.3-110.1zM355.89 182L241.39 67.53c8.7-8.2 17.5-16.4 25.8-24.2l114.5 114.5c-8.2 7.8-17 16-25.8 24.17z"/></g></g></symbol><symbol viewBox="0 0 353.81 227.56" id="employees" xmlns="http://www.w3.org/2000/svg"><g data-name="Слой 2"><g data-name="Слой 1"><path d="M0 212.7c.9-5.3 1.4-10.7 2.9-15.9 10.5-38.4 35.2-63.2 74.1-71.2 38.3-7.9 70.6 4.9 95.1 35.5 13.1 16.3 19.2 35.4 19.9 56.2.1 3.1-.4 6-2.9 8.1a7.51 7.51 0 0 1-8.1 1.2c-3.2-1.4-4.5-4-4.9-7.3-.8-6.7-1.3-13.5-2.8-20.1-7-30.1-35.2-55.2-66-58.9-.9-.1-1.8-.1-3-.2a86.61 86.61 0 0 1-.7 8.9 7.74 7.74 0 0 1-15.3.1 38.84 38.84 0 0 1-.4-4.8c-.1-1.3 0-2.7 0-4.3a71.56 71.56 0 0 0-29.5 8.9q-38.55 21.75-42.2 65.8c-.1 1-.1 2.1-.2 3.1-.3 5.6-2.4 8.5-6.5 9.3S2.4 226 0 221zM148 52.3c-.2 28.7-23.7 52.1-52.2 51.8a52.09 52.09 0 0 1-51.6-52.4C44.5 23.1 67.8-.1 96.2 0A52.3 52.3 0 0 1 148 52.3zM96 16.1a36.24 36.24 0 0 0-35.9 36.1c.1 19.5 16.3 35.8 35.8 35.9s36.1-16.4 36.1-36a36.37 36.37 0 0 0-36-36zM309.6 52.1a51.9 51.9 0 1 1-51.9-52c28.4-.1 51.9 23.4 51.9 52zm-16 .3a36.11 36.11 0 0 0-35.8-36.2c-19.4-.2-36 16.1-36.1 35.6-.1 19.9 16.2 36.5 36 36.5a36.46 36.46 0 0 0 35.9-35.9zM266 140c-.2 3.3-.2 6.1-.6 9a7.4 7.4 0 0 1-7.6 6.5 7.57 7.57 0 0 1-7.7-6.5c-.4-2.8-.4-5.7-.7-9.4-4.8 1-9.5 1.7-14 3a77.58 77.58 0 0 0-35 21.1 31.07 31.07 0 0 1-3.2 3.1c-3.6 2.9-7.9 2.8-10.9-.1a7.73 7.73 0 0 1-.1-11.2c5-4.9 10-10 15.6-14a93 93 0 0 1 64.1-17.8c27.4 2.4 49.8 14.6 67 36 13.6 16.9 20.3 36.4 20.9 58 .1 3.7-.9 6.9-4.5 8.6-2.9 1.5-6.2 1.4-8.3-1a13.28 13.28 0 0 1-3.1-7.3c-.7-11.6-2.8-22.8-8.1-33.3q-18.9-37.5-60.5-44.6c-1 0-2.1 0-3.3-.1z"/><path d="M104.1 195.4c0 7.6.1 15.2 0 22.8-.1 6.7-4.3 10.4-10 9.1a7.18 7.18 0 0 1-5.6-5.5 19.09 19.09 0 0 1-.5-4.8v-42.5c0-6.9 2.8-10.7 8-10.8s8.1 3.8 8.1 11zM265.7 195.6c0 7.5.1 15 0 22.4-.1 6.7-4.3 10.5-9.9 9.2a7 7 0 0 1-5.7-5.7 26.07 26.07 0 0 1-.5-4.8v-42.1c0-7.1 3-11.1 8.2-10.9s7.9 3.9 7.9 10.9z"/></g></g></symbol><symbol viewBox="0 0 50 50" id="excel" xmlns="http://www.w3.org/2000/svg"><path d="M28.875 0a.466.466 0 0 0-.063.031l-28 5.313a1 1 0 0 0-.812 1v37.312a1 1 0 0 0 .813 1l28 5.313c.289.054.59-.02.82-.207.226-.188.363-.465.367-.762v-5h17c1.094 0 2-.906 2-2V8c0-1.094-.906-2-2-2H30V1a1.004 1.004 0 0 0-1.125-1zM28 2.188V6.53a1.01 1.01 0 0 0 0 .875v35.407a1.016 1.016 0 0 0 0 .406v4.593L2 42.844V7.156zM30 8h17v34H30v-5h4v-2h-4v-6h4v-2h-4v-5h4v-2h-4v-5h4v-2h-4zm6 5v2h8v-2zM6.687 15.688l5.47 9.343-5.97 9.344h5l3.25-6.031c.227-.582.376-1.028.438-1.313h.031c.13.61.254 1.024.375 1.25l3.25 6.094H23.5l-5.75-9.438 5.594-9.25h-4.688l-2.968 5.532a20.942 20.942 0 0 0-.594 1.656h-.031a9.492 9.492 0 0 0-.563-1.594l-2.688-5.593zM36 20v2h8v-2zm0 7v2h8v-2zm0 8v2h8v-2z"/></symbol><symbol viewBox="0 0 478.9 455.4" id="excel-file" xmlns="http://www.w3.org/2000/svg">'<g data-name="Слой 2"><g data-name="Слой 1"><path class="hcls-1" d="M271.6 409.8v45.6c-1.3-.1-2.2-.2-3.2-.3q-71.1-13.35-142.3-26.8-59.85-11.25-119.8-22.7C0 404.4 0 404.4 0 398V51.2Q135.6 25.55 271.4 0v45.6c1.6.1 2.9.2 4.1.2h179c6.6 0 12.5 1.3 17.4 6a21.64 21.64 0 0 1 7 16.2v318.7c0 10.2-5.3 18.4-14.4 21.5a28.45 28.45 0 0 1-9.2 1.3q-89.85.15-179.8.1a23 23 0 0 1-3.9.2zm65.6-88.8v37c0 4.3.5 4-3.8 4h-61.6v29.6h184.9c3.7 0 3.7 0 3.7-3.8V67.5c0-2.5-.4-3.4-3.2-3.4q-91.2.15-182.4.1h-3v29.5c1.3.1 2.5.2 3.7.2 19.6 0 39.1.1 58.7 0 2.5 0 3.2.7 3.2 3.2-.1 11.6-.1 23.2-.1 34.8 0 1-.1 2-.2 3.2h-65.2v15.7h65.8v37.7c0 3.4 0 3.4-3.4 3.4h-62.4v16.7h65.6v41.3h-65.6v15.8h65.7v40.9h-65.7v14.7c21.7-.3 43.4-.3 65.3-.3zm-267-169.1c.5 1.2.9 2 1.2 2.7 11 22.5 21.9 45 32.9 67.4a5.28 5.28 0 0 1 0 5.3c-12 22.3-23.9 44.7-35.9 67.1-.5.9-.8 1.8-1.4 3 1.7.1 2.9.1 4.1.2 8.5.6 17.1 1.1 25.6 1.8 2.1.2 3.2-.2 4.2-2.3 6.3-14 12.8-27.8 19.1-41.8 1.8-4 3.1-8.3 4.7-12.5 1 3.1 1.6 6.2 2.9 9.1 7.2 16.4 14.6 32.7 21.9 49.1a3.33 3.33 0 0 0 3.3 2.3c6.6.4 13.1.9 19.7 1.4 5.1.3 10.3.6 16 1-.8-1.6-1.3-2.7-1.9-3.8-13.2-24.9-26.4-49.9-39.8-74.7a5.79 5.79 0 0 1 .1-6.2q19.5-36.9 38.8-73.8c.5-.9.9-1.8 1.5-3.1h-2.6c-8.8.6-17.6 1.5-26.4 1.6-5.2.1-8.2 1.9-9.4 6.9-.1.2-.2.5-.3.7-7.3 17.4-16.9 34-22.1 52.3 0 .1-.2.2-.4.4a61.36 61.36 0 0 0-2.2-7.3q-9.6-23.85-19.3-47.6a2.88 2.88 0 0 0-2.3-1.3c-2.9 0-5.9.3-8.8.5-7.7.6-15.2 1.1-23.2 1.6z"/><path class="hcls-1" d="M354.6 320.9h74.8V362h-74.8zM354.6 264.6h74.8v41.1h-74.8zM354.6 208.3h74.8v41.1h-74.8zM354.6 150.6h74.8v41.1h-74.8zM354.6 93.7h74.8v41.1h-74.8z"/></g></g></symbol><symbol viewBox="0 0 367.8 541.1" id="file-attached" xmlns="http://www.w3.org/2000/svg"><g data-name="Слой 2"><path d="M107.2 0h10.5a12.09 12.09 0 0 0 1.8.5c25.4 3.4 43.3 16.9 54 40.2.9 2 1.9 2.8 4.2 2.8q50.25-.15 100.4 0a6.52 6.52 0 0 1 4.3 1.6c27.8 30 55.5 60.2 83.3 90.3a7.44 7.44 0 0 1 2.1 5.6v370.6a30.64 30.64 0 0 1-21.8 28.2c-1.6.5-3.2.8-4.7 1.3H26.6c-3.6-1.3-7.5-2.1-10.8-3.9C4.8 531 0 521.2 0 508.7Q.15 292.25 0 75.9v-2.8a30.21 30.21 0 0 1 28.6-29.5c6.3-.3 12.7-.2 19-.1a3.57 3.57 0 0 0 3.9-2.5C59.7 22.2 73.6 9.4 93.2 3.1c4.6-1.5 9.4-2.1 14-3.1zm42.5 69H33.1c-6.2 0-7.5 1.2-7.5 7.4v431.7c0 6 1.3 7.4 7.3 7.4h302c6 0 7.4-1.4 7.4-7.3q0-174.45.1-348.9v-3.2h-3.5c-20.4 0-40.9-.2-61.3.1-9.1.1-15-5.9-14.9-14.8.3-23 .1-46 .1-69v-3.1h-83.6v119.3a105.53 105.53 0 0 1-.6 11.3c-5.6 42.5-50.2 68.9-90.2 53.3a67 67 0 0 1-42.8-62.8c-.1-22.5 0-45.1 0-67.6a56.5 56.5 0 0 1 .4-5.8c2.3-20.8 20.9-36.9 42.1-36.3 21.4.6 39.6 17.9 40.1 39.1.5 20 .2 40.1.1 60.2a14.61 14.61 0 0 1-29.2-.9c-.1-18.9 0-37.7 0-56.6A12.17 12.17 0 0 0 87 110c-6.7 0-12 5.4-12 12.5-.1 23-.2 46 0 69a37.45 37.45 0 0 0 74.9-.5c.1-39.8 0-79.7 0-119.5a9 9 0 0 1-.2-2.5zm176.5 61.2c-12.8-13.9-25.1-27.3-37.8-41v41zm-185.3-87c-14.1-18.3-43-18.2-56.3 0z" data-name="Слой 1"/></g></symbol><symbol viewBox="0 0 551.1 481.3" id="message" xmlns="http://www.w3.org/2000/svg"><g data-name="Слой 2"><g data-name="Слой 1"><path d="M221 0h190.6a24 24 0 0 0 2.8.3c19.7.1 39.3.1 59 .4 8.6.1 17.3 0 25.7 1.5 29 5.2 52.7 33.5 51.5 63.1-.1 3.3.3 6.7.5 10v253.1c-.8 2.1-1.8 4.3-2.5 6.4-9.6 27.8-30.8 43.3-60.2 44.2l-32 .9c-.9 0-1.8.1-2.9.2v3.6q0 31.5-.1 62.9c0 6.4-.1 12.7-.6 19.1-.7 9.3-5 13.8-14.2 15.2a4.87 4.87 0 0 0-1.1.4h-2.2c-5.8 0-9.5-3.6-13.3-7.4-3.3-3.3-6.8-6.4-10.2-9.7q-42.9-41.4-85.9-82.6a7.06 7.06 0 0 0-4.6-1.9c-57.6-.2-115.3-.2-172.9-.4-30.5-.1-61.1-.6-91.6-.9-14.8-.1-27.1-6.1-37.6-15.9a56.26 56.26 0 0 1-18.5-40c-.2-5-.4-10.1-.7-15.1V75.1c.2-3.4.3-6.7.5-10.1.3-4.5.1-9.1 1-13.4a65.11 65.11 0 0 1 15.2-29.9C27 10.2 39.7 2.8 55.2 1.2a220 220 0 0 1 23-.7Q147.8.2 217.3.1A15.14 15.14 0 0 0 221 0zm197.3 420.6c.1-1.4.1-2.4.2-3.4.4-18.2.6-36.4 1.1-54.5a30.55 30.55 0 0 1 2-10.9c2.4-5.6 7.6-7.4 13.4-7.6 18.4-.5 36.7-1.3 55.1-1.3a27.6 27.6 0 0 0 17.3-6.1c5.7-4.5 9.2-10.8 9.2-18.1q.15-98.85 0-197.7c0-19.1-.6-38.2-.7-57.3-.1-9.8-4.8-17-12.1-22.6-3.9-3-8.2-5.7-13.5-5.7q-80.1-.15-160.3-.2-65.7-.15-131.3-.1-66.6.15-133.3.6a35.47 35.47 0 0 0-11.3 1.5c-10.7 3.6-16.8 11.7-18.5 22.4-1.2 7.6-1.2 15.5-1.2 23.2v233.9a29 29 0 0 0 4.2 15.6c4.4 7.3 10.9 11.5 19.2 11.9 13.2.6 26.4.8 39.6.9 55.1.2 110.2.1 165.3.3 22.8.1 45.5.5 68.3.5a19.39 19.39 0 0 1 14.3 5.8q35.1 33.45 70.4 66.7c.8.6 1.6 1.3 2.6 2.2z"/><path d="M267.5 242h145.9c7 0 14.1.2 21.1.8s11 4.4 12.8 11.1a18.28 18.28 0 0 1-2.1 15.1c-2.3 3.6-5.6 5.9-9.9 6.1-15.3.4-30.5 1-45.8 1q-131.7.15-263.4-.1-13.2 0-26.4-.9c-7.3-.5-11.5-4.5-13.2-11.7a18.06 18.06 0 0 1 1.5-13.1c2.3-4.3 5.8-7.2 10.9-7.4 14.7-.5 29.4-1 44.1-1 41.5-.1 83 0 124.5 0zM198.1 137.8h-89.7c-3.1 0-6.2-.3-9.3-.5a12.75 12.75 0 0 1-8.9-4.4c-4.8-5.6-5.5-12-3.1-18.7 2.3-6.3 7.1-9.5 13.8-9.6 17-.3 34.1-.8 51.1-.8 43.3 0 86.6.2 129.9.3 4.1 0 8.2.4 12.4.4 13.5 0 17.7 13.3 14.7 22.4-2.1 6.3-6.5 10.2-13.2 10.4-14.3.5-28.7.8-43 .9-18.3.2-36.6 0-54.8 0a.6.6 0 0 0 .1-.4zM344.4 207h-75c-4 0-8-.4-12.1-.4-12.7.1-18.1-11.1-15.4-21.4 1.9-7.3 5.8-11 13.3-11.5 11.2-.6 22.5-.9 33.7-.9 46.4 0 92.7.3 139.1.4 1.7 0 3.4.2 5 .3 11.1.4 16.4 10.1 14.3 20.3-1.7 8.3-6.2 12.3-14.8 12.6-12.4.4-24.9.6-37.4.7-17 .1-33.9 0-50.9 0 .2 0 .2 0 .2-.1zM138.3 207.5c-13.2-.3-25.4-.3-37.7-1-9.7-.6-15-7.4-14.7-17.3.3-9.4 6.2-15.6 15.9-15.8 16.2-.4 32.4-.5 48.6-.5a247.26 247.26 0 0 1 25.8 1c8.4.9 13.2 7.8 12.9 16.9-.3 8.7-5.5 15.2-13.8 15.6-12.6.7-25.3.8-37 1.1zM396.4 137.9h-32.9a33.25 33.25 0 0 1-7-.7c-7.5-1.6-12.2-8.6-11.8-17.2.4-8.4 5.5-14.6 13.2-15.3 6.5-.6 13.1-.7 19.6-.7 16.9 0 33.9.1 50.8.1a40.48 40.48 0 0 1 5 .4c6.4.6 11 3.7 13.2 9.7 2.3 6.4 1.7 12.6-2.5 18.1-3.3 4.3-8.2 5.5-13.3 5.5-11.3.1-22.8 0-34.3.1z"/></g></g></symbol><symbol viewBox="0 0 352.5 329.7" id="payment" xmlns="http://www.w3.org/2000/svg"><g data-name="Слой 2"><g data-name="Слой 1"><path d="M35.8 329.7C23.9 289.6 12 249.7 0 209.6q26.4-7.95 52.9-15.9c.6 1.9 1.2 3.7 1.8 5.7 1-1.5 1.9-2.9 2.8-4.2q22.05-33.9 44-67.9a35.53 35.53 0 0 1 18.2-14.9c4.4-1.6 9-2.7 13.6-4.1l40.5-12a3.25 3.25 0 0 0 1.6-1.2c6.7-9.5 13.3-19.1 19.9-28.6q20.85-30 41.7-60.1c1.5-2.1 2.9-4.3 4.3-6.4q55.65 38.55 111.2 77.2-68 98.25-135.9 196.3c-10.7-7.6-21.5-15.1-32.3-22.8-1.1 1.4-2.2 2.7-3.2 4a73.8 73.8 0 0 1-39 25.4c-8.4 2.3-16.9 3.9-25.4 5.8-11.1 2.5-22.1 4.9-33.2 7.4-.2 0-.3.1-.6.2 2 6.7 4 13.3 6.1 19.9q-26.85 8.25-53.2 16.3zm23.1-116.3q9.9 33.3 19.8 66.5a1.48 1.48 0 0 0 .7-.1c14.8-3.3 29.6-6.6 44.3-10 6-1.4 12.2-2.6 18-4.5a58 58 0 0 0 28-19.5l36.9-46.5c5.6-7.1 11.2-14.2 16.9-21.3a16.11 16.11 0 0 0 3.8-9.1c.4-5.5-2-9.6-6.2-12.9a14.72 14.72 0 0 0-20.6 2.6 15.81 15.81 0 0 1-2.9 2.2c-.3.2-.7.4-1 .6-12.8 10.4-25.7 20.8-38.5 31.2-.6.5-.9.5-1.6.1-9.1-5.5-18.2-11-27.4-16.4-1.5-.9-3-1.8-4.7-2.7 12.5-19.7 24.9-39.3 37.5-59.2a8.14 8.14 0 0 1-.9.2c-11.2 3.3-22.3 6.7-33.5 9.8a24 24 0 0 0-14.8 11c-1.6 2.7-3.4 5.3-5.1 7.9L65 209c-1 1.6-2.1 2.9-4.1 3.3a9.46 9.46 0 0 1-2 1.1zM196.7 89.1l.1.1a19.83 19.83 0 0 1 2-1.1c12.7-6.8 26-7.3 39.6-3.6a61.93 61.93 0 0 1 25.7 14.4 61 61 0 0 1 17.8 27.3 46.75 46.75 0 0 1 1.4 22.9c-.3 1.3-.6 2.7-.9 4 .1 0 .1 0 .2.1l50-72.3c-29.4-20.5-58.6-40.9-88-61.3q-23.85 34.65-47.9 69.5zm44.5 80.4c2.4-.4 4.7-.6 7-1.1 10.1-2.4 17-8.6 20.5-18.3 3-8.5 1.7-16.8-2-24.8-5.8-12.5-15.5-21-28.1-26a39.37 39.37 0 0 0-29.6-.5c-7.6 3-13.3 8.1-16.2 15.9-2.4 6.5-2.1 13.1-.2 19.7a39.89 39.89 0 0 0 3.8 9c19.4-12.6 46.1 2.9 44.8 26.1zM17.4 219.2c9.3 31.1 18.5 62 27.8 93 8.7-2.7 17.3-5.3 26-7.9-9.3-31.2-18.5-62.2-27.8-93.3-8.7 2.7-17.3 5.4-26 8.2zm175.3 20.5L213 254c18.3-26.5 36.5-52.8 54.7-79.2a2.39 2.39 0 0 0-.9.3c-.3.2-.5.4-.8.6a47.59 47.59 0 0 1-26.4 7.7c-1.8 0-3.1.2-3.9 2a8.7 8.7 0 0 1-.9 1.1L200 230.3c-2.4 3.2-4.8 6.2-7.3 9.4zm-14.9-123.9q-16.8 26.55-33.7 53.1c4.1 2.5 8.1 4.9 12.1 7.3 9.7-7.9 19.2-15.7 28.9-23.6-6.6-11.5-9.6-23.6-7.3-36.8z"/><path d="M286.2 73.3a12 12 0 0 1-12 11.9 12.08 12.08 0 0 1-12-11.9 12 12 0 1 1 24 0z"/></g></g></symbol><symbol viewBox="0 0 537.9 461.11" id="payment-ok" xmlns="http://www.w3.org/2000/svg"><g data-name="Слой 2"><g data-name="Слой 1"><path d="M0 381.43c1.1-6.5 2.2-12.9 3.3-19.4 4.7-28.3 9.3-56.6 14-84.9q7.2-43 14.6-85.9 4.8-28 9.9-56.1c1-5.7 5.2-9.1 11-8.4 9.7 1.2 19.4 2.6 29 4.2 33.5 5.5 67 11.2 100.6 16.8 13.2 2.2 26.5 4.2 39.8 6.3 1.2.2 2.5.2 4.2.4a30.47 30.47 0 0 0-1.6-4.6c-8.7-16.3-9.8-34-9.2-52 1-28.5 14.4-51 34.4-69.9a98.6 98.6 0 0 1 55.1-26.8c28.9-4 55.4 2.5 78.6 20.8 19.4 15.3 33 34.6 39.3 58.6 2.6 9.9 2.9 20.1 2.9 30.2v10.5c5.5.3 10.7.6 15.8.9 24.1 1.5 44.2 11.7 61.5 28.1 13.5 12.8 24.5 27.4 29.9 45.5 2 6.9 2.9 14.1 4.3 21.2.2.9.3 1.8.5 2.7V235c-.2 1.5-.5 3-.7 4.6-4.3 30.5-19.2 54.6-43.7 72.9-12.2 9.1-25.9 14.9-40.6 18.5a3.34 3.34 0 0 0-3 3.2q-6.3 37.65-12.9 75.3c-2.6 14.9-5.3 29.8-8.2 44.7-1.1 5.5-3.2 7.3-8.8 6.8-9.1-.8-18.2-1.8-27.2-3.2-32.2-5.1-64.4-10.4-96.6-15.7-25.8-4.2-51.5-8.6-77.3-12.9l-81.1-13.5c-22.3-3.7-44.5-7.4-66.8-11.2-19.9-3.4-39.8-7-59.7-10.2-5.7-.9-9.4-3.6-11.2-9-.1-1.37-.1-2.67-.1-3.87zm327.6-170.1h-3.2c-5.7-.3-11.4-.1-17-.9-21.9-3.1-40.9-12.4-57.7-26.6a12.72 12.72 0 0 0-5.8-2.6c-26.1-4.4-52.3-8.8-78.4-13.1-11.4-1.9-22.9-3.6-34.4-5.6-2.8-.5-4.6.3-5.8 2.7-1 2-2 3.9-3.1 5.8-14.7 27.1-37.4 42.1-68.1 44.5-2.8.2-3.9 1-4.3 3.8-4.5 28.1-9.2 56.2-13.9 84.4-.7 4.5-.7 4.4 3.2 6.2 19.2 8.6 33.5 22.2 42.5 41.3a85.51 85.51 0 0 1 7.6 28.4c.5 4.6.9 5 5.4 5.7 5.1.8 10.3 1.8 15.4 2.6q58.35 9.75 116.8 19.4 53.25 8.85 106.5 17.9c5.9 1 5.9.9 8.7-4.3.5-.9 1-1.8 1.4-2.7 4.2-9.8 10.8-17.7 18.5-24.9 9.8-9.1 20.6-16.6 33.6-19.8 7.2-1.8 14.8-2.2 22.2-3.1 1.7-.2 2.8-.5 3.1-2.5 1.6-10.6 3.4-21.1 5.2-31.6.5-2.5-.4-3.6-2.8-3.9-2.9-.4-5.8-.6-8.7-1.2-35-7.2-60.6-27.1-77-58.6-8.7-16.8-12.6-34.8-10.7-53.8.4-2.6.6-4.9.8-7.5zm187.4 15.9c-.5-5.9-.4-12.6-1.7-19-4.1-20-14.9-35.8-31-48.2-19-14.6-40.8-17.8-63.7-14.8-26.4 3.4-45.5 18.2-58.9 40.8-8.3 14.1-10.6 29.6-10 45.7.8 20.7 8.5 38.6 22.7 53.6 14.4 15.2 32.5 22.7 53.1 24.1 17.2 1.2 33.9-1.3 48.9-10.3 26.8-16 40.1-39.9 40.6-71.9zm-112.7-121.4h.4c-.4-6.4-.2-12.9-1.4-19.1-4.2-20.5-15.4-36.8-32.2-49-18.1-13.1-38.6-17.2-60.4-14.5-19.7 2.5-36.8 10.9-50.2 25.7-14.1 15.6-20.5 34.3-21.1 55.1-.8 29.2 10.9 52.6 34.4 69.5 18.2 13.1 39.1 17.1 61.3 14.1a3.2 3.2 0 0 0 2.1-1.7c1.5-2.7 2.5-5.7 4.1-8.4 13.3-22.3 31.5-39.3 55.7-49.2 5.1-2.1 7.4-5.2 7.3-10.5-.1-3.9 0-7.9 0-12zM363.5 430c3.2.6 6.1 1.1 9.1 1.6 10.6 1.7 21.3 3.5 31.9 5.1 4.1.6 4.1.4 4.9-3.6 1-5.4 2.1-10.8 3.1-16.2 1.4-7.9 2.7-15.8 4-23.7-21.6-2.87-50 16.8-53 36.8zM54.7 193a23.85 23.85 0 0 0 2.7 0 56.61 56.61 0 0 0 29.7-11.6 51.77 51.77 0 0 0 15.6-20.5c.8-1.8.8-3.1-1.6-3.5-12.3-2.1-24.6-4.3-36.9-6.5-1.6-.3-2.6.2-2.9 2-.5 3.2-1.2 6.3-1.7 9.4-1.7 10.13-3.2 20.23-4.9 30.7zm11.7 187.4c1.3-16.9-11.5-41.2-34.9-49.1-2.3 14-4.6 27.9-7 42.3 14.2 2.33 28 4.53 41.9 6.83z"/><path d="M212.2 340.83c2.2-11.6 4-22.5 6.3-33.4 1-4.8.1-7.8-4.3-10.8-5.6-3.9-10.3-9.3-15-14.3-11.5-12.2-8.4-33.3 1.5-43.7 8.2-8.6 17.9-14.4 29.7-16.3 3.3-.5 4.8-1.8 5.2-5.2a51.42 51.42 0 0 1 2.5-10.1c1.8-5.6 6.3-8.1 12.5-7.2a10.33 10.33 0 0 1 8.9 10.5 74 74 0 0 1-1.4 11.4c-.5 2.8 0 4.5 2.7 5.9a50.44 50.44 0 0 1 18.7 17.7 27.15 27.15 0 0 1 2.7 5.7c1.8 5.4.1 9.9-4.6 13-4.3 2.8-9.3 2.4-13.2-1.6-2.5-2.6-4.2-5.9-6.4-8.8-1-1.3-2.3-2.5-3.4-3.7-.8 1.5-2 2.8-2.4 4.4-2.2 10.6-4.2 21.1-6.1 31.8a4.14 4.14 0 0 0 1.2 3.3 38.14 38.14 0 0 0 4.9 3.9 67.15 67.15 0 0 1 16.2 17c8.3 12.2 6.2 32.6-7.7 44.4A56.88 56.88 0 0 1 235.3 367c-3.9.8-5.8 2.3-6.1 6.4a39.29 39.29 0 0 1-2.1 9c-1.6 5-7.2 8.1-12.4 7.2a10.83 10.83 0 0 1-9-10.6 65.33 65.33 0 0 1 1.1-9.8c.8-5.1.4-5.6-3.9-8.5-6.2-4.1-12.3-8.2-18.1-12.7a52.93 52.93 0 0 1-8.8-8.9c-2.8-3.4-4-7.6-1.6-11.7s5.6-7.7 10.9-6.8a15.48 15.48 0 0 1 6.8 3.6c4.3 3.5 8.3 7.5 12.5 11.1 2.2 1.93 4.7 3.43 7.6 5.53zm22.9 3.8a7.47 7.47 0 0 0 2-.2c11.8-3.7 19.1-18 8.1-28.7-2.8-2.7-3.9-2.6-4.9 1.1s-1.8 7.6-2.5 11.5c-1 5.3-1.8 10.6-2.7 16.3zm-11.6-68c.3-.2.6-.3.9-.5 1.8-9.7 3.7-19.4 5.4-29.2.4-2.4-.6-3.1-2.8-2.1-5.7 2.7-10.5 6.5-11.8 13.1-.5 2.7-.9 6 .3 8.2 2 3.87 5.3 7.1 8 10.5zM435.7 156.83c6.4 0 10.7 3.9 11 10.4.1 2.7 1.6 3.9 3.7 4.9a44.79 44.79 0 0 1 16.6 12.3c2.6 3.1 3.8 6.6 2.8 10.7a11.2 11.2 0 0 1-17.8 5.8 39 39 0 0 1-3.6-3.4c-6.1-6.8-13.7-6.1-21.3-3.8-4.5 1.3-6 5.3-6.4 9.6-.3 4.1 2.3 6.3 5.5 7.7 4.8 2.1 10 3.6 14.8 5.8 6.2 2.8 12.7 5.3 18.3 9.1 17.5 11.7 19.1 32.8 3.7 47.3-3.8 3.6-8.6 6-13.1 8.8-2 1.2-3.1 2.5-3.2 5a11.13 11.13 0 0 1-9.2 10.7c-5.2.8-11.1-2.1-11.9-7.4-1-5.9-4.5-8.1-9.4-10.1a107.42 107.42 0 0 1-14.9-8.1c-3.4-2.1-6.2-5-6.8-9.2-.6-4.5.6-8.4 4.5-11 4.1-2.7 8.3-2.5 12.4-.1 3.5 2 6.8 4.3 10.4 6.1 6.4 3.3 13.2 4.8 20.4 3.3a10.13 10.13 0 0 0 7.8-6.6c1.9-4.8.5-9.1-4.2-11.2-5.7-2.5-11.6-4.4-17.3-6.8s-11.4-4.7-16.4-8.1c-18.1-12.5-19.3-33.2-2.9-47.9 3.5-3.1 7.7-5.5 11.7-7.9 2-1.2 3.1-2.4 3.2-4.9.7-6.83 5.2-10.9 11.6-11zM322 172.83a10.71 10.71 0 0 1-10.9-8.9c-.5-2.7-2.6-3.2-4.5-4.2-6-3.1-12-6.2-17.9-9.5a20.13 20.13 0 0 1-4.3-3.4 11 11 0 0 1-1.7-14.4c3.4-5 8.6-6.6 13.9-3.9a54.52 54.52 0 0 1 7.1 4.7c6.8 4.7 14.1 7.2 22.4 6.1 5.8-.7 9.6-4 10.7-9.1.9-3.9.1-6.4-3.4-8.4a60.24 60.24 0 0 0-9.7-4.4c-8.8-3.2-17.7-6.3-25.6-11.6-11-7.4-15.9-18-13.2-29.8 2.6-11 9.3-19 19.2-24.4 1.1-.6 2.3-1.2 3.4-1.7 2.4-1 3.4-2.7 3.5-5.3.1-4.3 5.3-10.1 9.1-10.5 5.5-.5 11.3 2.7 12.2 8 .9 5.1 3.4 7.5 7.9 9.5 5.6 2.5 10.1 6.9 13.8 11.9a10.67 10.67 0 0 1-1.6 14.8 11 11 0 0 1-15.1-.6 14.48 14.48 0 0 1-1.7-1.8c-6.3-7-14.1-6.8-22.2-4.5-4.2 1.2-6.1 4.8-6.7 8.9s2 6.4 5.1 8c3.8 1.9 7.9 3.3 11.8 5 7.1 3.2 14.7 5.7 21.2 9.9 18.4 11.9 20.1 32.1 4.2 47.3-3.6 3.4-8 6-12.2 8.7-2 1.3-3.5 2.4-3.9 5.1-.5 4.9-5.4 8.5-10.9 8.5z"/></g></g></symbol><symbol viewBox="0 0 353.7 295.4" id="plans" xmlns="http://www.w3.org/2000/svg"><g data-name="Слой 2"><g data-name="Слой 1"><path d="M353.7 33.6v255.6c-2.1 4.8-5.8 6.2-10.8 6.2-18.4-.1-36.8 0-55.3 0H11c-7.9 0-11-2.8-11-9.9V37.2c0-6.9 3-9.8 9.9-9.9h32.6C44.9 9 52.2.5 65.8.1a22.52 22.52 0 0 1 14.5 4.7c7.3 5.6 9.6 13.4 9.4 22.1h26.7C115.8 8.7 128.4.5 139.1.1a22.8 22.8 0 0 1 14.6 4.5c7.6 5.5 9.9 13.4 9.8 22.7h23.8c.9 0 1.8-.2 3-.3 0-6.9 1.1-13.4 5.8-18.7A23.17 23.17 0 0 1 213.7.1a21.82 21.82 0 0 1 14.1 4.7c7.3 5.6 9.8 13.3 9.3 22.4h26.8c0-7.1 1.1-13.6 5.8-19A22.84 22.84 0 0 1 287.3 0a22.6 22.6 0 0 1 15 5.3c6.8 5.6 8.9 13.1 8.7 21.9h4c9.6 0 19.1.1 28.7 0 4.8-.2 8.3 1.6 10 6.4zM16.2 279h321.3V97.4H16.2zM90 43.2c-1.9 17.2-9 25.9-21.7 26.9A22.94 22.94 0 0 1 53 66c-7.9-5.5-10.4-13.6-10.2-22.7H16.2V81h321.3V43.1h-24c-.8 0-1.6.1-2.3.1-2.8 18.2-9.9 26.5-23 26.9a22.6 22.6 0 0 1-14.8-4.7c-7.4-5.5-9.6-13.4-9.5-22h-26.7c-1.2 16.4-8.6 25.6-21.4 26.7a22.74 22.74 0 0 1-15.6-4.2c-7.7-5.5-10.2-13.5-10-22.5h-26.5c-2.2 17.3-9.1 25.8-21.7 26.8a23.11 23.11 0 0 1-15.1-3.9c-8.1-5.5-10.8-13.6-10.4-23-9-.1-17.6-.1-26.5-.1zM74 35h-.2c0-3.3.1-6.7 0-10a13.93 13.93 0 0 0-1-5c-1.4-3-4-4.3-7.4-3.9s-5.9 2.3-6 5.6c-.3 8.8-.1 17.6-.1 26.5a4.19 4.19 0 0 0 .8 2.2 6.72 6.72 0 0 0 6.9 3.7c3.2-.3 5.9-2 6.3-5.4.5-4.5.5-9.1.7-13.7zm220.7.3V23.6a10.1 10.1 0 0 0-.3-1.7 6.74 6.74 0 0 0-6.4-5.8c-4.7-.5-8 2.9-8.1 8.5q-.15 10.5 0 21a10.16 10.16 0 0 0 1.2 4.9 6.6 6.6 0 0 0 7.5 3.5c3.6-.7 5.8-3.2 6-7.4.3-3.7.1-7.5.1-11.3zm-147.4-.1c0-3.8.1-7.6 0-11.4-.2-4.8-3.2-7.9-7.4-7.9s-7.2 3.2-7.3 8c-.1 7.3-.1 14.7 0 22 .1 5 3.2 8.3 7.4 8.2s7.1-3.2 7.2-8c.2-3.6.1-7.3.1-10.9zm59.1-.2v11.4c.3 4.7 3.3 7.9 7.4 7.9s7.2-3.3 7.2-8.1c.1-7.5.1-14.9 0-22.4-.1-4.7-3.2-7.9-7.4-7.8s-7 3-7.2 7.7c-.1 3.7 0 7.5 0 11.3z"/><path d="M139.3 150.3c-4.8 0-9.7.3-14.4-.1-3.6-.3-5.8-3-6.4-6.6a7.53 7.53 0 0 1 4.3-7.9 12.27 12.27 0 0 1 4.6-1c7.9-.1 15.9-.2 23.8 0 6.5.1 10.3 4.8 8.6 10.3-1 3.1-3.1 5.3-6.4 5.4-4.7.2-9.4 0-14.1-.1zM63.9 134.7c4.5 0 9-.2 13.4.1 4.2.3 6.9 2.8 7.6 6.3a7.47 7.47 0 0 1-3.9 8.4 14.1 14.1 0 0 1-4.9 1.2c-7.9.1-15.9.1-23.8 0-3.7 0-6.9-1.3-8.3-5-1.1-2.8-1.1-6 1.3-8a15.17 15.17 0 0 1 7.3-3c3.7-.5 7.5-.1 11.3 0zM214.1 150.4c-4.7 0-9.4.3-14.1-.1a7.09 7.09 0 0 1-6.5-6.6 7.38 7.38 0 0 1 3.9-7.8 5.09 5.09 0 0 1 2.6-.9c9.6-.1 19.3-.2 28.9.1 3.3.1 5.3 2.5 6.1 5.7s0 6.2-2.7 7.9a14.14 14.14 0 0 1-6.8 1.9c-3.8.3-7.6.1-11.4.1zM289.2 150.7c-4.1 0-8.3.2-12.4 0-4.4-.2-7.3-2.7-8-6.2s.6-6.9 3.8-8.5a13.78 13.78 0 0 1 5.3-1.3q11.7-.15 23.4 0c3.7 0 6.9 1.2 8.4 4.8 1.3 3 1.2 6.2-1.3 8.3a15 15 0 0 1-7.4 2.9c-4 .4-7.9 0-11.8 0zM64.4 179.9c4.1 0 8.3-.1 12.4 0 5 .1 8.3 3.3 8.3 7.8s-3.2 7.9-8.1 8q-12.75.3-25.5 0c-5-.1-8.2-3.5-8.1-8s3.3-7.7 8.3-7.8c4.2-.1 8.4 0 12.7 0zM139.4 179.9c4.1 0 8.3-.1 12.4 0 5 .1 8.3 3.4 8.4 7.8a7.87 7.87 0 0 1-7.9 8c-8.7.2-17.5.2-26.2 0a8 8 0 0 1-7.9-8c.1-4.4 3.4-7.7 8.4-7.8 4.3-.1 8.6 0 12.8 0zM289.4 179.9c4.1 0 8.3-.1 12.4 0 5.1.1 8.3 3.1 8.5 7.6s-3.1 8.1-8.2 8.2c-8.4.2-16.8.2-25.1 0-5.1-.1-8.4-3.5-8.3-8.2.1-4.5 3.3-7.6 8.4-7.7 4 0 8.2.1 12.3.1zM139.1 240.9c-4.1 0-8.3.1-12.4 0-5-.2-8.3-3.3-8.4-7.8a7.78 7.78 0 0 1 7.8-8c8.7-.3 17.5-.3 26.2 0a7.91 7.91 0 0 1 7.9 7.9c0 4.5-3.3 7.7-8.3 7.9-4.2.1-8.5 0-12.8 0zM214.1 240.9c-4 0-8 .1-12.1 0-5.3-.1-8.6-3.3-8.6-7.9 0-4.4 3.5-7.9 8.6-8 8.3-.2 16.5-.2 24.8 0 5.1.1 8.6 3.7 8.5 8.1-.1 4.6-3.5 7.7-8.8 7.8-4.1.1-8.2 0-12.4 0zM289.3 240.9c-4.1 0-8.3.1-12.4 0-4.9-.2-8.1-3.1-8.3-7.5a7.61 7.61 0 0 1 7.7-8.3c8.7-.3 17.5-.3 26.2 0 5 .2 8 3.8 7.8 8.3s-3.3 7.2-8.2 7.5h-12.8zM214.4 195.9c-4 0-8 .1-12.1 0-5.4-.1-8.9-3.4-8.9-8s3.5-7.8 9-7.9c7.9-.1 15.9-.1 23.8 0 5.5 0 9 3.1 9.1 7.8s-3.6 8-9.2 8.1zM64 240.9c-4.1 0-8.3.1-12.4 0-4.9-.2-8-3.1-8.2-7.5s2.8-8.1 7.8-8.3c8.7-.3 17.5-.3 26.2 0a7.68 7.68 0 0 1 7.7 8.4c-.2 4.4-3.4 7.2-8.3 7.5h-.7c-4.1-.1-8.1-.1-12.1-.1z"/></g></g></symbol><symbol viewBox="0 0 461.9 451.55" id="power-point" xmlns="http://www.w3.org/2000/svg"><defs><style>.ncls-1{fill:#d24625}.ncls-2{fill:#fff}</style></defs><g id="nСлой_2" data-name="Слой 2"><g id="nСлой_1-2" data-name="Слой 1"><path class="ncls-1" d="M242.3 0H273a7.72 7.72 0 0 0-.2 1.5v44a12.37 12.37 0 0 0 .2 1.8c1 .1 1.9.2 2.7.2l167.1.3c11 0 18.5 7.5 18.5 18.5 0 12.8.1 25.6.2 38.4a20.85 20.85 0 0 0 .4 3.5v267c-.2 1.7-.5 3.5-.7 5.2-2.1 13.5-4 14.9-14 17.5a7.72 7.72 0 0 1-1.5.2c-9.1.3-18.3.9-27.4.9q-71.1 0-142.3-.2c-2.9 0-3.4 1-3.4 3.6.1 15.2.1 30.3.1 45.5v3.5h-16.8c-5.7 0-11.5.5-17.1-.3-9.1-1.2-18.2-3.2-27.3-4.8-26.3-4.6-52.6-9.3-78.9-13.8-23.4-4.1-46.8-8-70.3-12.1-19.5-3.4-39.1-7-58.6-10.2-3.2-.5-3.7-1.7-3.7-4.5q.15-69.7.1-139.4Q.1 156.2 0 46c0-2.6.6-3.7 3.3-4.2 23-3.9 46.1-8 69.1-12l76.3-13.2c25.9-4.5 51.9-8.9 77.8-13.4 5.4-1 10.6-2.1 15.8-3.2zm204 383.4v-3.5q0-156.75.1-313.4c0-3-.8-3.8-3.8-3.8q-83.1.15-166.3.1c-1.1 0-2.2.2-3.3.3v52.5c8.5-1.7 16.7-3.4 25.3-5.1.1 2.7.4 4.9.4 7.2.1 19.2.2 38.4.1 57.6 0 2.8.7 3.6 3.6 3.6 20.6-.1 41.1.1 61.7.2 1.2 0 2.4.1 3.7.2-.9 16-7.7 36.3-22.3 49.4-21.3 19-45.9 21.3-72.5 13.5v31.3h125.7v16.4c0 4.1 0 4.1-4.2 4.1H277.2c-1.4 0-2.8.2-4.2.2v26.6h125.7v16.1c0 4.3 0 4.3-4.3 4.3H272.9v42.3c57.9-.1 115.4-.1 173.4-.1zM84.2 138.9c-.1 1.6-.2 3.1-.2 4.7v161.5c-.1 1.6.6 2.2 2.2 2.3 6.2.4 12.3 1.1 18.5 1.6 3.6.3 7.2.5 11.3.8v-61.5c6.5 0 12.5.2 18.5 0 13.6-.4 25.3-5.5 34.1-15.7 17.3-19.9 19.9-42.7 12-67.1-2.4-7.3-5.9-14.2-12.2-19.1-11.7-9-25.3-10.7-39.4-10.2-10.3.4-20.6 1.4-30.9 2-4.7.3-9.2.5-13.9.7z"/><path class="ncls-2" d="M446.3 383.4H273v-42.3h121.5c4.3 0 4.3 0 4.3-4.3v-16.1H273.1v-26.6c1.4-.1 2.8-.2 4.2-.2h117.3c4.2 0 4.2 0 4.2-4.1v-16.4H273.1v-31.3c26.6 7.8 51.2 5.5 72.5-13.5 14.6-13 21.4-33.4 22.3-49.4-1.2-.1-2.4-.2-3.7-.2-20.6-.1-41.1-.2-61.7-.2-2.9 0-3.6-.8-3.6-3.6.1-19.2 0-38.4-.1-57.6 0-2.2-.2-4.5-.4-7.2-8.6 1.8-16.9 3.4-25.3 5.1V63c1.1-.1 2.2-.3 3.3-.3q83.1 0 166.3-.1c3 0 3.8.8 3.8 3.8q-.15 156.75-.1 313.4c-.1 1.1-.1 2.2-.1 3.6zm-67.9-215.9c-1.5-38.2-36.7-68.1-68.3-67.8v67.8zM84.2 138.9c4.8-.2 9.3-.4 13.8-.7 10.3-.7 20.6-1.6 30.9-2 14.1-.6 27.7 1.1 39.4 10.2 6.3 4.9 9.9 11.8 12.2 19.1 7.9 24.4 5.3 47.3-12 67.1-8.8 10.2-20.5 15.3-34.1 15.7-6 .2-12 0-18.5 0v61.5c-4.1-.3-7.7-.5-11.3-.8-6.2-.5-12.3-1.2-18.5-1.6-1.6-.1-2.3-.7-2.2-2.3V143.6c.1-1.6.2-3.1.3-4.7zm32.1 28.5v52.5c6-.7 11.1-1.2 16.2-2.1 7.9-1.4 13.3-5.9 15.5-13.9a42.29 42.29 0 0 0 1.3-18.4c-1.7-10.7-6.8-16.8-16.1-18-5.6-.6-11.3-.1-16.9-.1z"/><path class="ncls-1" d="M378.4 167.5h-68.3V99.7c31.6-.2 66.8 29.7 68.3 67.8zM116.3 167.4c5.6 0 11.3-.6 16.9.1 9.3 1.2 14.5 7.4 16.1 18a44.1 44.1 0 0 1-1.3 18.4c-2.2 8-7.5 12.5-15.5 13.9-5.1.9-10.3 1.3-16.2 2.1z"/></g></g></symbol><symbol viewBox="0 0 353.7 353.8" id="projects" xmlns="http://www.w3.org/2000/svg"><g data-name="Слой 2"><g data-name="Слой 1"><path d="M0 347.5V6.3C1.9 1.7 5.4 0 10.3 0c30.6.1 61.2 0 91.8.1 7.6 0 10.4 2.9 10.4 10.4v332.7c0 7.6-2.9 10.4-10.4 10.4q-45.9 0-91.8.1c-4.9.1-8.4-1.6-10.3-6.2zM96.4 16.2H16.2v321.2h80.2zM353.7 177.3v165.4c0 8.5-2.5 11.1-11.2 11.1H252c-8.3 0-10.9-2.7-10.9-11V11c0-8.3 2.7-10.9 11-10.9h90.8c8.1 0 10.8 2.7 10.8 10.8zm-16.2 160.3V16.3h-80.3v321.3zM120.6 176.9V8.8c.3-5.7 3.3-8.6 9.1-8.6 10.5-.1 20.9 0 31.4 0h61.5c7.8 0 10.5 2.7 10.5 10.6v332.5c0 7.8-2.8 10.5-10.6 10.5h-91.1c-8 0-10.7-2.7-10.7-10.8q-.15-83.1-.1-166.1zm16.2 160.7h80V16.3h-80z"/><path d="M32 108.1V43.2C32 34.8 34.8 32 43.1 32h27.3c7.2 0 10.3 3 10.3 10.3v131.5c0 7.3-3 10.3-10.2 10.3H42.6c-7.5 0-10.4-2.9-10.5-10.4-.1-21.9-.1-43.7-.1-65.6zm32.2 59.8V48.4H48.3v119.5zM80.5 297.4a24.55 24.55 0 0 1-24.1 24.3c-13.2.1-24.6-11.2-24.4-24.4s11.2-24.2 24.3-24.1a24.41 24.41 0 0 1 24.2 24.2zm-16.1.2a8.15 8.15 0 1 0-8.2 7.9 8 8 0 0 0 8.2-7.9zM273.1 108.2V43.3c0-8.6 2.7-11.3 11.3-11.3H311c7.8 0 10.7 2.9 10.7 10.5v131.1c0 7.5-2.9 10.4-10.5 10.4h-27.9c-7.3 0-10.2-3-10.2-10.3zm16.3-59.9v119.5h16V48.3zM297.9 273.2c13.5.6 24.3 11.7 23.8 24.6-.5 13.6-12 24.6-24.9 23.8-13.7-.8-24.2-11.9-23.6-24.8.7-13.5 11.8-24.2 24.7-23.6zm7.6 24.4a8.1 8.1 0 1 0-8.1 8 8.11 8.11 0 0 0 8.1-8zM201.1 108.2v65.3c0 7.9-2.7 10.6-10.5 10.6h-28c-7.1 0-10-2.9-10-10.1V42.5c0-7.5 2.9-10.3 10.5-10.3h27.3c7.8 0 10.7 2.8 10.7 10.5zm-16.2 59.7V48.3h-16.1v119.6zM201 297.4a24.41 24.41 0 0 1-24.1 24.3c-13.2.2-24.4-11-24.3-24.4.1-13.2 11.1-24.2 24.2-24.1a24.41 24.41 0 0 1 24.2 24.2zm-24 8.2a8.15 8.15 0 1 0-.4-16.3 8.15 8.15 0 0 0 .4 16.3z"/></g></g></symbol><symbol viewBox="0 0 370.03 330.65" id="salaries" xmlns="http://www.w3.org/2000/svg"><g data-name="Слой 2"><g data-name="Слой 1"><path d="M369.93 87.26c-2.2 2.2-4 4.8-6.5 6.4-18.9 12.1-38 24.1-57.1 36a16.25 16.25 0 0 1-7 2.4c-3.6.3-6.1-1.8-7.4-5.1a7.47 7.47 0 0 1 1.8-8.6 23.22 23.22 0 0 1 4-3c14.5-9.2 29.1-18.3 43.6-27.5 1.1-.7 2.2-1.4 3.6-2.4-1.4-.9-2.5-1.5-3.6-2.2q-56.1-31.95-112.2-63.8a5 5 0 0 0-5.8.1c-21.6 13.7-43.3 27.3-65 41l-3 2c1.5.9 2.7 1.6 3.9 2.3q58.5 33.3 117 66.4c4.7 2.6 6.6 6 6.5 11.3-.1 31.6-.1 63.3 0 94.9 0 5.1-1.7 8.6-6.1 11.3-13.2 8.1-26.3 16.4-39.4 24.7-3.3 2.1-6.7 3.4-10.5 1.4s-4.4-5.6-4.4-9.6c.1-29.8 0-59.7.1-89.5 0-2.8-1-4.2-3.3-5.5q-60.3-34-120.3-68.4c-2.5-1.4-4.1-1.3-6.4.2q-32 20.25-64.1 40.4c-1.1.7-2.1 1.4-3.5 2.3 1.5.9 2.6 1.6 3.7 2.2q55.95 31.8 111.9 63.7c2.5 1.4 4.1 1.2 6.4-.3 17.4-11.1 35-22.1 52.5-33.1 2.8-1.8 5.6-3.3 9.1-1.9a8.16 8.16 0 0 1 3.1 13.5 17 17 0 0 1-3.4 2.6c-19.3 12.2-38.7 24.3-57.9 36.6-4.2 2.7-8 2.8-12.4.3q-65.7-37.5-131.6-74.9c-8.2-4.7-8.3-11.6-.3-16.7Q113 69.56 219.73 2.16c4.2-2.7 8-2.9 12.4-.4 43.8 25 87.8 49.9 131.6 75 2.5 1.4 4.2 4.1 6.2 6.2zm-258 2.6c1.6 1 2.9 1.7 4.1 2.4q58.35 33.15 116.6 66.2c4.7 2.7 6.8 6 6.8 11.5-.2 26-.1 52-.1 77.9v4.4c1.6-.9 2.7-1.4 3.6-2 6.7-4.2 13.4-8.6 20.2-12.6a5.31 5.31 0 0 0 3-5.4q-.15-36.45-.1-72.9v-4.1c-3.2 2-5.8 3.6-8.5 5.2-4.7 2.8-9.6 2.1-12.1-1.7-2.8-4.2-1.6-9.2 3.2-12.4 3-2 6-3.9 9.4-6-1.4-.8-2.5-1.5-3.6-2.2l-41.7-23.7c-23.6-13.4-47.2-26.9-70.9-40.2-1.2-.7-3.3-1-4.4-.3-8.3 5.04-16.6 10.3-25.5 15.9z"/><path d="M369.93 154.46c-2.6 2.4-4.9 5.2-7.8 7-18.4 11.8-36.9 23.3-55.4 35a33 33 0 0 1-4.1 2.3 8 8 0 0 1-9.8-3.1 7.9 7.9 0 0 1 1-10.2 22.41 22.41 0 0 1 3.4-2.7c19.3-12.2 38.6-24.3 57.9-36.5 6.9-4.3 11-3.2 14.9 3.8-.1 1.5-.1 2.94-.1 4.4zM369.93 120.46c-2.2 2.3-4.1 5.1-6.7 6.7-19.2 12.3-38.5 24.4-57.9 36.5-5.9 3.7-11.5 2.1-13.5-3.7a7.42 7.42 0 0 1 1.7-8 21.57 21.57 0 0 1 3.7-2.9l57.6-36.3c7.1-4.5 11.3-3.3 15.1 4zM369.93 187.66c-2.5 2.4-4.6 5.2-7.4 7-18.6 11.9-37.4 23.7-56.1 35.4a18.11 18.11 0 0 1-5.9 2.5 7.29 7.29 0 0 1-8.2-4.4 7.75 7.75 0 0 1 1.5-9.3 20 20 0 0 1 3.7-2.8q28.65-18.15 57.4-36.1c6.8-4.3 11-3.3 15.1 3.5-.1 1.3-.1 2.7-.1 4.2zM214.13 250c.1 3.4-1.6 5.8-4.3 7.5-20.3 12.8-40.7 25.6-61 38.4-3.8 2.4-7.2 1.4-10.8-.6q-47.25-27-94.6-53.8c-12.4-7.1-24.9-14.1-37.3-21.2-5.1-2.9-6.8-6.5-5.3-10.8a7.86 7.86 0 0 1 10-5.2 34.85 34.85 0 0 1 5.2 2.4q62.4 35.4 124.6 70.9c2.3 1.3 3.9 1.2 6.1-.2 17.5-11.2 35.1-22.2 52.7-33.3 2.9-1.8 5.9-3.3 9.5-1.7a8 8 0 0 1 5.2 7.6z"/><path d="M214.13 283.36c.2 3.4-1.6 5.8-4.3 7.5-20.3 12.9-40.7 25.6-61 38.4-3.8 2.4-7.2 1.4-10.8-.7-25.7-14.7-51.4-29.2-77.1-43.9C42.93 274.46 25 264.26 7 254a28.16 28.16 0 0 1-3.6-2.4 8.07 8.07 0 0 1-1.9-10.4 8.27 8.27 0 0 1 9.7-3.7 18.79 18.79 0 0 1 4.5 2.2q62.55 35.55 125 71.2c2.3 1.3 3.8 1.3 6.1-.1 17.5-11.2 35.2-22.2 52.8-33.3 2.9-1.8 5.9-3.3 9.5-1.8a8.31 8.31 0 0 1 5.03 7.66z"/><path d="M144.23 264.26a36.27 36.27 0 0 1-5.6-2.3L6 186.66c-3.5-2-6-4.6-5.6-8.9a8 8 0 0 1 5.4-7c3.3-1.2 6.1 0 8.9 1.6q35.4 20.1 70.8 40.3 27.6 15.6 55.1 31.4c2.3 1.3 3.9 1.4 6.1-.1q26.1-16.65 52.5-33.1a16.25 16.25 0 0 1 7-2.4c3.4-.3 5.9 1.7 7.2 4.9a7.61 7.61 0 0 1-1.5 8.7 20.56 20.56 0 0 1-3.7 2.9q-28.95 18.3-58 36.5c-1.77 1.1-3.97 1.8-5.97 2.8z"/></g></g></symbol><symbol viewBox="0 0 18 18" id="save" xmlns="http://www.w3.org/2000/svg"><g data-name="Слой 2"><path d="M14 0H2a2 2 0 0 0-2 2v14a2 2 0 0 0 2 2h14a2 2 0 0 0 2-2V4zM9 16a3 3 0 1 1 3-3 3 3 0 0 1-3 3zm3-10H2V2h10z" data-name="Слой 1"/></g></symbol><symbol viewBox="0 0 340.49 364.91" id="search" xmlns="http://www.w3.org/2000/svg"><g data-name="Слой 2"><path d="M340.49 331.8v5.2c-.1.6-.3 1.2-.4 1.8-1.8 14.3-14.6 25.8-29 26.1a30.79 30.79 0 0 1-23.4-9.5l-67.3-67.3c-4-4-8-8.2-12.2-12.5.4.1.3 0 .3 0-.3.1-.7.3-1 .4a143.36 143.36 0 0 1-83.6 12.4c-28.5-4.2-53.6-16.1-75.2-35.2-40.6-35.7-57.9-92.5-43.9-144.8C16 66.8 41 36 79 15.9A137.43 137.43 0 0 1 128 1c3.3-.4 6.5-.7 9.8-1h14.9a11.27 11.27 0 0 0 1.8.3A132.43 132.43 0 0 1 183.09 5a144.91 144.91 0 0 1 105.8 159.2 142.69 142.69 0 0 1-29.5 70.1c-.9 1.2-1.9 2.4-2.9 3.7l17.3 17.3q28.35 28.35 56.8 56.7a31.67 31.67 0 0 1 8.8 15.2c.5 1.6.7 3.1 1.1 4.6zm-80.8-186.7a114.42 114.42 0 0 0-114.5-114.5C82 30.5 30.69 81.8 30.59 145a114.55 114.55 0 1 0 229.1.1z" data-name="Слой 1"/></g></symbol><symbol viewBox="0 0 358.52 358.65" id="setting" xmlns="http://www.w3.org/2000/svg"><g data-name="Слой 2"><g data-name="Слой 1"><path d="M0 240.15c2.6-9 5.1-18.1 7.7-27.1.3-1.1.5-2.3.9-3.4 1.7-5.4 5.5-7.5 11.1-6.1 6.9 1.8 13.8 3.6 20.6 5.5 2 .6 3.2.2 4.7-1.4 5.6-5.9 11.3-11.7 17.3-17.2 1.5-1.4 2-2.5 1.4-4.4-1.9-6.8-3.8-13.7-5.5-20.6-1.6-6.2.5-9.8 6.8-11.5 9.7-2.7 19.3-5.3 29-7.8 5.8-1.5 9.6.7 11.2 6.4 1.9 6.8 3.8 13.7 5.5 20.6.5 2.2 1.5 3 3.8 3.5 7.7 1.7 15.3 3.8 22.9 6.1 2.2.7 3.5.8 5.2-1 4.7-5 9.7-9.8 14.6-14.6s9.1-4.7 13.9 0c6.9 6.8 13.7 13.7 20.5 20.5 4.8 4.8 4.8 9.1 0 13.9s-9.7 9.8-14.6 14.6c-1.5 1.5-2.1 2.7-1.1 4.8a65.64 65.64 0 0 1 6.3 23.9c.2 2.2 1.4 2.6 3.1 3.1l20.3 5.4c6.6 1.8 8.6 5.4 6.9 12-2.5 9.5-5 18.9-7.6 28.3-1.7 6.2-5.3 8.4-11.5 6.8-6.9-1.8-13.7-3.6-20.6-5.5-1.9-.5-3-.1-4.4 1.4-5.6 5.9-11.3 11.7-17.2 17.3-1.7 1.6-2 2.7-1.4 4.7 1.9 6.7 3.7 13.5 5.4 20.3 1.6 6.2-.6 9.9-6.7 11.6-8.8 2.4-17.6 4.7-26.3 7.1-1.2.3-2.3.9-3.5 1.3h-4.9c-3.7-2.1-5.3-5.5-6.3-9.5-1.5-6.2-3.3-12.4-4.9-18.6-.5-1.8-1.1-2.7-3.2-2.9a68.17 68.17 0 0 1-23.5-6.2c-2.2-1.1-3.5-.6-5.1 1.1-4.8 5-9.7 9.8-14.6 14.6-4.7 4.7-9 4.7-13.7 0-7-6.9-13.9-13.8-20.8-20.8-4.8-4.9-4.8-9 .1-13.9 4.7-4.8 9.5-9.6 14.4-14.3 1.8-1.7 1.9-3 1.2-5.4-2.4-7.6-4.4-15.4-6.1-23.2-.5-2.1-1.2-2.9-3.1-3.4-6.5-1.7-13-3.6-19.6-5.2-3.9-.9-6.8-2.9-8.3-6.6a19.81 19.81 0 0 1-.3-4.2zM17.8 237c7 1.9 13.6 3.6 20.2 5.4 6.4 1.7 8.1 3.4 8.4 10.2a65.81 65.81 0 0 0 7.7 28.8c3.2 5.9 2.7 8.5-2.1 13.3l-14.2 14.2c4.1 4.1 8 7.9 12 11.9 4.7-4.7 9.7-9.8 14.8-14.8 4-4 7-4.6 11.9-1.9a65.74 65.74 0 0 0 28.7 8c7.9.3 9.2 1.7 11.2 9.3 1.7 6.4 3.5 12.7 5.3 19.4 5.5-1.5 10.7-2.9 16.1-4.3-1.9-7.2-3.8-14.2-5.6-21.2-1.4-5.3-.5-8.3 4.1-11a66.35 66.35 0 0 0 22.5-22.5c2.7-4.4 5.7-5.4 10.8-4 6.1 1.6 12.2 3.3 18.2 4.9a28.37 28.37 0 0 0 3.1.6c1.4-5.4 2.8-10.6 4.2-16-7.1-1.9-13.9-3.7-20.6-5.6-6.1-1.7-7.7-3.6-8-9.8a64.42 64.42 0 0 0-7.7-29.1c-3.2-6-2.7-8.5 2.2-13.3s9.7-9.7 14.2-14.2c-4-4.1-7.8-7.9-11.8-11.9l-14.7 14.7c-4.4 4.4-7.1 4.9-12.5 2a67.13 67.13 0 0 0-28.4-7.9c-8.1-.4-9.2-1.6-11.4-9.6-1.7-6.3-3.4-12.5-5.2-19.1-5.5 1.5-10.6 2.8-16 4.3.3 1.3.4 2.3.7 3.3 1.6 6.1 3.3 12.2 4.9 18.2 1.3 4.9.3 7.9-3.9 10.5a67.49 67.49 0 0 0-23 23c-2.5 4.1-5.6 5-10.2 3.9-3.8-1-7.6-2.1-11.5-3.1-3.3-.9-6.7-1.7-10.2-2.6-1.4 5.35-2.7 10.45-4.2 16z"/><path d="M241.7 212.85c-2.1-.5-5.1-1.3-8.2-2.1-7.7-2-15.3-4.1-23-6.2-6.4-1.8-8.5-5.4-6.8-11.8 1.7-6.7 3.4-13.3 5.3-19.9.6-2.2.2-3.4-1.5-5-5.9-5.5-11.5-11.2-17-17-1.4-1.5-2.5-2.1-4.4-1.5-6.8 1.9-13.7 3.7-20.6 5.5-6.2 1.6-9.8-.5-11.5-6.7-2.7-9.7-5.3-19.3-7.8-29-1.5-5.7.7-9.6 6.4-11.2 6.8-1.9 13.7-3.8 20.6-5.5 2.2-.6 3-1.5 3.5-3.9 1.7-7.7 3.8-15.3 6.1-22.9.7-2.2.7-3.5-1-5.1-5-4.7-9.8-9.7-14.7-14.6-4.6-4.7-4.7-9-.1-13.7 7-7.1 14-14.1 21-21.1 4.6-4.5 8.8-4.4 13.4.1 5.1 5 10.1 10 15.1 15.1 1.3 1.4 2.4 1.7 4.3.8a68.41 68.41 0 0 1 24.2-6.4c2-.2 2.5-1.2 2.9-2.8 1.8-6.9 3.6-13.7 5.5-20.6 1.8-6.3 5.4-8.5 11.8-6.8 9.6 2.5 19.2 5.1 28.7 7.7 6 1.6 8.2 5.4 6.6 11.3-1.8 6.9-3.6 13.8-5.5 20.6-.6 2-.1 3.2 1.5 4.7 5.9 5.5 11.6 11.1 17 17 1.6 1.8 2.8 2.1 5 1.5 6.5-1.9 13-3.6 19.6-5.3 6.8-1.8 10.4.3 12.3 7 2.5 9.2 5 18.4 7.5 27.7 1.8 7-.2 10.5-7.3 12.4-6.6 1.8-13.3 3.6-19.9 5.3-1.7.4-2.7 1-2.9 3.2a68.17 68.17 0 0 1-6.2 23.5c-1.1 2.2-.6 3.5 1.1 5.1 5 4.8 9.8 9.7 14.6 14.6 4.6 4.7 4.7 9 0 13.7-6.9 7-13.8 13.9-20.8 20.8-4.7 4.6-9 4.6-13.7 0-5-4.9-10-9.8-14.8-14.9a3.74 3.74 0 0 0-4.9-.9 66.57 66.57 0 0 1-23.5 6.2c-2 .2-2.7 1.1-3.2 2.9-1.8 7-3.7 14-5.6 20.9-1.3 4.8-4.2 7.2-9.1 7.3zm67-37.9l12.1-12.1c-4.7-4.6-9.8-9.6-14.8-14.7-3.9-3.9-4.5-6.9-1.9-11.6a65.75 65.75 0 0 0 8.1-29.4c.3-7.3 1.8-8.8 9.1-10.7 6.4-1.7 12.8-3.4 19.6-5.3-1.5-5.4-2.9-10.7-4.3-16.2-6.8 1.8-13.2 3.5-19.6 5.3-7.4 2-9.6 1.2-13.6-5.3a59.94 59.94 0 0 0-19.3-19.5c-7.3-4.6-7.9-6.4-5.6-14.8 1.7-6.2 3.3-12.3 5-18.8-5.6-1.5-10.8-2.9-16.2-4.3-1.1 4-2.1 7.5-3 10.9-1 3.6-1.9 7.2-2.9 10.8-1.3 4.5-3.5 6.6-7.8 6.7a69.46 69.46 0 0 0-32.4 8.7c-3.5 2-7 1.3-10-1.4-1.3-1.2-2.5-2.5-3.7-3.7-4.2-4.2-8.3-8.4-11.9-12l-12 12c4.5 4.5 9.4 9.3 14.3 14.2 4.6 4.6 5.1 7.2 2.1 12.7a66 66 0 0 0-7.9 29.1c-.3 6.6-2 8.6-8.3 10.3-6.6 1.8-13.3 3.5-20.3 5.4 1.5 5.5 2.8 10.7 4.3 16.2l19.6-5.2c7.4-2 9.7-1.2 13.7 5.3a60.49 60.49 0 0 0 19.6 19.7c6.8 4.3 7.5 6.4 5.4 14.2-1.7 6.3-3.4 12.6-5.1 19.2 5.6 1.5 10.8 2.8 16.2 4.3 2.1-7.6 3.9-14.7 5.9-21.7 1.4-4.8 3.6-6.6 8.5-6.8a67.75 67.75 0 0 0 30.8-8.2c4.9-2.7 7.8-2.1 11.9 2 4.9 5 9.8 10.1 14.4 14.75zM106.4 208.65A43.3 43.3 0 1 1 63.2 252a43.36 43.36 0 0 1 43.2-43.35zm27.4 43.2a27.25 27.25 0 0 0-54.5.2c0 15 12.7 27.6 27.5 27.3 15-.35 27.1-12.7 27-27.5z"/><path d="M208.8 106.45c-.1-23.7 19.6-43.4 43.5-43.4 23.5-.1 43.2 19.8 43.1 43.4a43.79 43.79 0 0 1-43.7 43.3c-23.4-.2-42.8-19.7-42.9-43.3zm43.1 27.2a27.3 27.3 0 1 0-27-27.3 27.51 27.51 0 0 0 27 27.3z"/></g></g></symbol><symbol viewBox="0 0 499.65 464.28" id="task-fail" xmlns="http://www.w3.org/2000/svg"><g data-name="Слой 2"><g data-name="Слой 1"><path d="M303.47 464.28c-49.7 0-99.5-.1-149.2 0-23.6.1-42.9-17.8-46.3-40.2-1.7-10.8 1-20.7 6.4-30.1 10.6-18.7 20.9-37.5 31.4-56.3q30.6-55.05 61.3-110.2 21.45-38.7 43-77.4c3.7-6.7 7.3-13.5 11.2-20.1 7.4-12.6 18.6-19.9 32.9-22 14.6-2.1 27.7 1.6 38.9 11.4a45.71 45.71 0 0 1 9.1 11.4q31.5 55 62.9 110 44.4 77.7 88.9 155.4c8.9 15.5 7.2 35.5-4.1 49.7-7.6 9.6-17.2 15.7-29.3 17.7a64.83 64.83 0 0 1-7.6.6c-49.97.1-99.7.1-149.5.1zm0-35.7h149.6a17.22 17.22 0 0 0 3.9-.4 8.8 8.8 0 0 0 7.4-7.4c.4-2.7-.6-5.1-1.9-7.4-10.7-18.7-21.3-37.3-32-56l-43.2-75.6q-27.75-48.45-55.4-96.8c-6.8-12-13.6-23.9-20.5-35.9-2.2-3.9-5.5-6.5-10.2-6.4s-7.8 2.7-9.9 6.7c-3.5 6.4-7.1 12.8-10.6 19.2-13.8 24.9-27.7 49.8-41.5 74.8q-21.9 39.45-43.8 78.8c-12.8 23-25.6 46.1-38.4 69.1-4.3 7.7-8.6 15.3-12.8 23.1-2.3 4.2-2.1 8.1.6 10.9 2.4 2.6 5.6 3.4 9.1 3.4q74.7-.15 149.6-.1zM295.07 73.48c-13 1-25.1 4.3-36.3 10.8-19.1-23.8-43.3-39.7-73.3-45.9a121.27 121.27 0 0 0-74 7.5 124.79 124.79 0 0 0-75.7 118.9c1 28.7 10.7 54.2 29.2 76.2s42 35.9 70.2 42.1c-5.9 10.6-11.7 21.1-17.5 31.5-60.5-16.1-115.2-72.5-117.6-149.1a160.77 160.77 0 0 1 123.6-161.1c72.9-17.2 139.33 18.4 171.4 69.1z"/><path d="M71.57 142.88h71.2v-71.2h35.6v106.9H71.47c.1-11.9.1-23.7.1-35.7zM321.27 321.38h-35.5v-106.9h35.5zM285.77 392.68v-35.5h35.5v35.5z"/></g></g></symbol><symbol viewBox="0 0 493.4 475.8" id="task-new" xmlns="http://www.w3.org/2000/svg"><g data-name="Слой 2"><g data-name="Слой 1"><path d="M345.7 475.8c-3.3-.3-6.5-.6-9.8-1a141.29 141.29 0 0 1-108.4-75.1c-2-3.9-3.9-7.9-5.8-12H0V0h422.9v211.1a3 3 0 0 0 1.7 3 141.51 141.51 0 0 1 55.6 61.3 135.72 135.72 0 0 1 12.2 42.7c.4 3.3.7 6.6 1 9.9v13.7a10.79 10.79 0 0 0-.3 1.9c-.4 3.5-.6 7-1.1 10.5a137.48 137.48 0 0 1-17.9 51.6 141.51 141.51 0 0 1-62.8 57 132.18 132.18 0 0 1-42.3 11.9c-3.2.4-6.4.7-9.6 1-4.6.2-9.1.2-13.7.2zm41.9-440.5H35.3v317h177.2a134.09 134.09 0 0 1 .1-35.8 141.92 141.92 0 0 1 9.3-34.6H141v-35.2h99.8a4.12 4.12 0 0 0 3.4-1.6 138.87 138.87 0 0 1 34.7-30.6c1.5-.9 3.1-1.8 4.6-2.8 0-.1-.1-.2-.1-.3H141v-35.1h211.4v17.5a144.48 144.48 0 0 1 35.2 5zm-35.3 405.3a105.76 105.76 0 1 0-105.6-107.8 105.54 105.54 0 0 0 105.6 107.8z"/><path d="M140.9 140.8v-35h211.3v35zM105.5 140.8h-35v-35.1h35zM105.5 176.3v35h-35v-35zM105.5 281.8h-35v-35h35zM370 352.4v52.9h-35.1v-52.8H282v-35.2h52.8v-52.9H370v52.8h52.9v35.2z"/></g></g></symbol><symbol viewBox="0 0 541.9 541.7" id="task-ok" xmlns="http://www.w3.org/2000/svg"><g data-name="Слой 2"><g data-name="Слой 1"><path d="M0 282.6v-24.3c.2-1 .4-2 .5-3A257.75 257.75 0 0 1 8.7 203 272.88 272.88 0 0 1 183.5 14.4c20.8-7.2 42.1-12 64.1-13.4 5.6-.4 11.2-.7 16.8-1h12.7a12.5 12.5 0 0 0 1.9.3 262.38 262.38 0 0 1 38.5 3.5 268.39 268.39 0 0 1 98.4 38.1q67.8 43.2 101.5 116.4c12.2 26.5 20.2 54.1 23 83.1.6 5.8 1 11.5 1.5 17.3V283c-.2 1-.4 2-.5 3a251.55 251.55 0 0 1-7.6 50.4C515 408.3 474.1 464 410.6 502.6c-36.6 22.3-76.3 35.4-119.3 38.1-5 .3-9.9.6-14.9 1h-11.1c-1.2-.1-2.4-.3-3.5-.4-9.3-.8-18.6-1.2-27.8-2.4a255.11 255.11 0 0 1-82.7-25.2 272.32 272.32 0 0 1-108.6-97.5A266.44 266.44 0 0 1 1.5 299.1C1 293.7.6 288.2 0 282.6zM514.7 270c-1.3-132.2-107-242.2-243.6-242.6-133-.4-243.6 108.1-243.5 243.9.2 134.9 109.9 242.3 242.1 243 134.2.8 244.7-108.4 245-244.3z"/><path d="M242.7 396.4c-5.3-3.7-10.6-7-15.6-10.8q-39.9-29.7-79.6-59.6c-1.3-.9-2.3-2.1-3.6-3-5.7-3.7-5.2-11.8-2-16.6 3.8-5.6 10.5-7.9 16.1-4.6a192.65 192.65 0 0 1 17.9 12c17 12.4 33.9 25 50.9 37.5 2.1 1.6 4.5 2.9 6.7 4.3 2 1.3 3.3 1 4.7-1.1 12.4-17.7 24.8-35.2 37.2-52.8q50.7-72 101.5-144.1c2.4-3.4 4.8-6.7 9.4-7.5 7.7-1.4 15.7 4.4 16 12.2a10.5 10.5 0 0 1-1.8 5.9c-3.9 6.5-7.7 13-12 19.2Q319 287.15 249.4 386.7c-2.1 3.2-4.3 6.3-6.7 9.7z"/></g></g></symbol><symbol viewBox="0 0 326.31 366.07" id="tasks" xmlns="http://www.w3.org/2000/svg"><g data-name="Слой 2"><g data-name="Слой 1"><path d="M6.6 366.07c-5.2-2.79-6.6-7.2-6.6-13q.15-170.7.1-341.39c0-4.21.5-8 4.5-10.1a12.74 12.74 0 0 1 5.7-1.5q134.1-.16 268.1 0c6.3 0 10 3.6 10.1 9.89.1 22 .1 44.1 0 66.1 0 6-3.7 9.9-9 9.8s-8.9-4.1-9-10c-.1-17.8 0-35.5 0-53.3v-4.5H18.2v329.71h252.3V243.47c0-6.7 3.6-10.8 9.3-10.7a8.8 8.8 0 0 1 8.5 7.7 35.4 35.4 0 0 1 .2 4.6c0 36.11-.1 72.21.1 108.3 0 5.7-1.4 10-6.7 12.5q-137.7.3-275.3.2z"/><path d="M147.4 288.18c-6.5 0-10.7-4.61-9.7-10.8 2.4-14.8 4.7-29.6 7.4-44.4a17.75 17.75 0 0 1 4.6-8.5q60.15-60.48 120.5-120.6c5.7-5.7 10.4-5.7 16.2.1l35.4 35.4c6 6 6 10.6.1 16.5Q261.75 216 201.6 276.28c-3.3 3.29-7.1 4.4-11.4 5.1-13.5 2.1-27 4.4-40.5 6.7-1-.01-1.8.1-2.3.1zm122.1-104.71c-9.3-9.3-17.9-18-26.9-27.1-.7.8-1.5 2-2.5 3-23.9 23.9-47.8 47.9-71.8 71.7-3.9 3.9-6.4 7.8-7 13.4-.9 7.9-2.4 15.6-3.7 23.9 1.6-.2 2.8-.3 3.9-.5 8-1.3 16-2.5 23.9-4a11.51 11.51 0 0 0 6.1-3.1c25.3-25.1 50.4-50.3 75.6-75.5a9.83 9.83 0 0 1 2.4-1.8zm9-61.29c-7.2 7.1-14.5 14.3-21.3 21.1 8.4 8.5 17.1 17.1 25.3 25.4l21.1-21.11zM71.1 85.57c11.5-11.5 22.4-22.6 33.6-33.5a14.72 14.72 0 0 1 7.4-3.6c3.5-.5 6.5 1.4 8 4.8 1.6 3.7 1.2 7.31-1.7 10.31-4.5 4.69-9.2 9.3-13.9 13.9l-25.8 25.8c-5.1 5.1-10 5.1-15.2 0-6-6-12-11.9-17.9-17.9-4.2-4.3-4.5-10-.8-13.6s9.3-3.2 13.4.9c4.4 3.99 8.5 8.32 12.9 12.89zM71.1 192.27c11.4-11.4 22.3-22.4 33.3-33.3a13.56 13.56 0 0 1 4.9-3.4 8.51 8.51 0 0 1 10.3 3.5 9.19 9.19 0 0 1-.9 10.9c-.7.8-1.5 1.5-2.2 2.3-12.6 12.6-25.2 25.3-37.9 37.91-4.8 4.8-9.8 4.8-14.6 0-6.2-6.11-12.2-12.21-18.2-18.31-4.2-4.3-4.5-10-.8-13.6s9.2-3.2 13.4.9 8.2 8.51 12.7 13.1zM71.8 299.37a22.43 22.43 0 0 1 2.4-3.6c10.2-10.2 20.3-20.4 30.6-30.6 4.3-4.3 10-4.7 13.6-1s3.4 9.3-1 13.6l-38.7 38.7c-5.2 5.1-10 5.1-15.2 0-6-5.9-12-11.9-17.9-17.9-4.1-4.2-4.5-9.7-.9-13.39s9.3-3.5 13.6.79c4.4 4.1 8.5 8.31 13.5 13.4z"/></g></g></symbol></svg>