<svg xmlns="http://www.w3.org/2000/svg" viewBox="0 0 484 483.5"><defs><style>.cls-1{fill:#095896;}</style></defs><title>word</title><g id="Слой_2" data-name="Слой 2"><g id="Слой_1-2" data-name="Слой 1"><path class="cls-1" d="M278.2,0h.6c0,1.2-.1,2.3-.1,3.5v480c-1.4-.2-2.4-.3-3.4-.5-9.2-1.7-18.4-3.5-27.5-5.3q-61.5-11.85-123.1-23.6C84.6,446.4,44.5,438.6,4.4,431c-3.2-.6-4.4-1.5-4.4-5.1q.15-184,.1-368A12.05,12.05,0,0,0,.1,56c-.2-1.8.5-2.6,2.3-2.9,4.6-.7,9.1-1.7,13.6-2.5Q77.5,38.75,139.1,27q60.45-11.55,121-23.2C266.2,2.7,272.2,1.3,278.2,0ZM36.1,148.3c.2,1.3.4,2.3.6,3.2q9.9,48.15,19.9,96.2c5.9,28.6,11.9,57.1,17.7,85.7.6,2.9,1.8,3.8,4.8,3.8,10.5-.2,21-.1,31.6,0,2.3,0,3.2-.7,3.7-3.1,5.7-28.4,11.6-56.8,17.4-85.2,3.3-16.2,6.5-32.4,9.4-46.9.4,2.8.7,7.5,1.6,12.1q5.7,29,11.7,57.7c4.2,20.7,8.5,41.3,12.7,62,.4,1.8.7,3.3,3.3,3.2,10.4-.2,20.8-.1,31.2,0,2,0,2.7-.8,3.1-2.7,1.1-5.9,2.4-11.7,3.6-17.6q14.7-71.7,29.4-143.5c1.6-7.6,3.1-15.2,4.6-22.8a8.15,8.15,0,0,0-1.4-.4c-10,0-20,0-30-.1-1.9,0-2.2,1.1-2.4,2.6l-5.7,35.1c-4.6,28-9.1,56-13.7,83.9-.8,5.1-1.6,10.3-2.5,16-.5-3.5-.8-6.3-1.3-9.1L161.7,152.1c-.4-2.3-1.2-3.2-3.6-3.1-9.7.1-19.4.2-29,0-2.9-.1-3.7,1-4.3,3.6q-6.75,32-13.7,63.7c-4.8,22.3-9.6,44.5-14.3,66.8-.8,3.6-.9,7.4-1.3,11.1a7.68,7.68,0,0,1-.7-2.8c-1-8.4-1.6-16.9-3-25.3-3.9-25-8.1-50-12.2-74.9-2.2-13.5-4.4-26.9-6.5-40.4-.4-2.3-1.3-3-3.7-3-10,.1-20,.1-30,.1A24.83,24.83,0,0,1,36.1,148.3Z"/><path class="cls-1" d="M484,412.9l-.9,2.7c-2.1,7-7.9,11.6-15.1,11.6H300.7c-.8,0-1.6-.1-2.6-.2V372h4.1q61.2,0,122.5.1c3.2,0,4.1-.8,4-4q-.3-15,0-30c.1-2.9-.8-3.7-3.7-3.7q-61.2.15-122.5.1h-4.4c-.1-1.3-.2-2.4-.2-3.5V302.3c0-4.3,0-4.3,4.2-4.3H423.6a10.5,10.5,0,0,0,3.1-.1c.7-.3,1.8-1.2,1.8-1.9.1-11.3.1-22.5,0-33.8,0-.6-1.1-1.6-1.9-1.8a12.92,12.92,0,0,0-3.4-.1H302.3c-4.4,0-4.4,0-4.4-4.5v-32H428.5c.1-1.6.2-2.7.2-3.8V190.3c0-4.2,0-4.2-4.1-4.2H298.2V149.6H424.1c4.5,0,4.5,0,4.5-4.7,0-10.2-.1-20.4.1-30.6,0-2.8-.8-3.5-3.6-3.5q-61.35.15-122.8.1h-4.2V55.7H465.9c9.9,0,14.6,3.4,17.5,12.9a3.51,3.51,0,0,0,.5.8Q484.05,241.15,484,412.9Z"/></g></g></svg>