<svg xmlns="http://www.w3.org/2000/svg" viewBox="0 0 257.8 353.7"><title>acts</title><g id="Слой_2" data-name="Слой 2"><g id="Слой_1-2" data-name="Слой 1"><path d="M6.6,353.6C1.2,351.8,0,347.7,0,342.5Q.15,239.9,0,137.4V11.7A38.66,38.66,0,0,1,.3,6.9,7.33,7.33,0,0,1,6.4.3,15.83,15.83,0,0,1,10.2,0H247.4a15.81,15.81,0,0,1,4.8.6,7.06,7.06,0,0,1,5.2,5.9,33.82,33.82,0,0,1,.3,5.5q0,137,.1,273.8a15.59,15.59,0,0,1-5,12.2c-17.2,16.9-34.2,34.1-51.4,51.2a61.23,61.23,0,0,1-5.6,4.5Q101.15,353.55,6.6,353.6ZM16.2,16.1V337.4H185.5V291.9c0-7.3,2.9-10.2,10.3-10.2h45.5V16.2C166.2,16.1,91.3,16.1,16.2,16.1ZM201.9,297.8v26.7l26.7-26.7Z"/><path d="M157.1,84.8c14.5,0,29-.1,43.5,0,6.6,0,10.7,5.5,8.2,11-1.6,3.7-4.9,4.9-8.7,4.9H113.8c-3.8,0-7.1-.9-8.9-4.6-2.6-5.3,1.1-11.1,7.4-11.3,6.8-.2,13.6-.1,20.4-.1C140.8,84.8,149,84.8,157.1,84.8Z"/><path d="M156.7,156.8H113.2c-6.6,0-10.8-5-8.5-10.5.9-2.1,3.4-3.7,5.5-5.1,1-.7,2.7-.4,4.1-.4h84.9a19.59,19.59,0,0,1,4.8.5,7.92,7.92,0,0,1,5.6,7.5,7.77,7.77,0,0,1-5.7,7.4,19.09,19.09,0,0,1-4.8.5C185,156.8,170.8,156.8,156.7,156.8Z"/><path d="M156.8,212.8H113.3c-6.7,0-10.5-4.7-8.7-10.4,1.1-3.4,4-5.4,8.3-5.5,5.5-.1,11,0,16.6,0h70.4c4,0,7.3,1,9.1,4.9,2.3,5.3-1.4,10.8-7.6,11-5.6.2-11.3.1-16.9.1C175.2,212.8,166,212.8,156.8,212.8Z"/><path d="M61.1,153.9c6.6-8.5,13-16.8,19.5-25,3.3-4.2,6.6-5.4,10.4-3.9a7.81,7.81,0,0,1,4.2,10.6,8.78,8.78,0,0,1-1.2,2.1c-8.3,10.7-16.6,21.5-25,32.1-3.3,4.2-7.6,4.6-11.9,1.3-4.6-3.5-9.1-7-13.5-10.7-3.9-3.3-4.5-8.1-1.6-11.6s7.3-3.8,11.4-.9C55.9,149.7,58.3,151.7,61.1,153.9Z"/><path d="M61.1,209.9c6.4-8.2,12.6-16.2,18.8-24.2,4.4-5.7,9-6.9,13.1-3.6,3.9,3.2,3.8,8-.4,13.4-7.5,9.6-15,19.3-22.5,28.9-4.6,5.8-8.5,6.3-14.3,1.7-3.9-3.1-7.8-6.1-11.6-9.2-4.4-3.6-5.2-8.4-2.2-12.1s7.6-3.9,12-.5C56.2,206,58.4,207.9,61.1,209.9Z"/><path d="M61.1,97.9c3.8-4.9,7.5-9.6,11.1-14.3,3-3.8,5.9-7.7,8.9-11.4,3.5-4.2,8.1-5,11.8-2.1s4,7.7.7,12c-8.1,10.5-16.2,21-24.4,31.3-3.5,4.5-7.9,5-12.4,1.6s-8.7-6.8-13-10.3-5-8.2-2.1-11.8,7.5-4,12-.7C56.2,94,58.5,95.9,61.1,97.9Z"/></g></g></svg>