<svg xmlns="http://www.w3.org/2000/svg" viewBox="0 0 330.01 329.99"><title>debtors</title><g id="Слой_2" data-name="Слой 2"><g id="Слой_1-2" data-name="Слой 1"><path d="M126.92,50.79c0-4.4-.1-8.6,0-12.8.4-14.3,6.7-25.4,19-32.7,23-13.7,52.7.6,56.7,27.1.3,2.1.4,4.2.5,6.3.1,4,0,7.9,0,12.1h41.3a38.1,38.1,0,0,1,36.5,27.8q22.2,78,44.3,156a113.61,113.61,0,0,1,4.4,28.4c.3,10.1.6,20.1.2,30.2-.6,14.4-7.6,25.1-20.1,32.2a37.45,37.45,0,0,1-18.6,4.6q-62.55,0-125-.1c-42.4,0-84.8-.2-127.1-.1A38.59,38.59,0,0,1,1.32,301a45.31,45.31,0,0,1-1.2-9c-.2-7.5-.1-15.1,0-22.6,0-13.8,2.5-27.3,6.1-40.6,12-44.6,23.8-89.2,35.8-133.7,1.7-6.2,3.1-12.5,5.1-18.6a37.68,37.68,0,0,1,35.6-25.6h42.8A5.72,5.72,0,0,1,126.92,50.79Zm37.9,253.7h1.1q62.7,0,125.3.1c8,0,13.3-5.3,13.3-13.3v-20.7a109.87,109.87,0,0,0-4.2-30.7q-21.9-76.95-43.7-153.9c-1.8-6.4-6.3-9.9-12.9-9.9H83.32c-6.5,0-11.1,3.6-12.8,9.9q-19.95,75-40.1,149.9c-2.9,10.9-5,21.8-5.1,33.1v22.5a12,12,0,0,0,.7,4.2c1.8,5.5,6.4,8.6,12.8,8.6,34.5,0,69,.1,103.5.1C149.92,304.49,157.42,304.49,164.82,304.49Zm-12.3-253.8h25.1c0-4.5.1-9,0-13.4a12.29,12.29,0,0,0-11.7-11.8c-6.8-.4-12.6,3.9-13.3,10.4C152.12,40.79,152.52,45.69,152.52,50.69Z"/><path d="M178,253.79v25.3h-25.3v-25.3h-51v-25.4h88.4c6.3,0,11.2-3.7,12.7-9.6a12.47,12.47,0,0,0-12-15.7c-17.1-.1-34.2,0-51.3,0a38.06,38.06,0,0,1-13.4-73.6,35.55,35.55,0,0,1,13.2-2.5h13.3v-25.3H178V127h25v25.4h-62.8c-5.7,0-9.9,2.4-12.2,7.6a12.67,12.67,0,0,0,11.7,17.8c17.1,0,34.3-.1,51.4,0,19,.1,35.5,15.4,37.2,34.3a38.29,38.29,0,0,1-29.9,40.9,44.75,44.75,0,0,1-8.2.9C186.22,253.89,182.22,253.79,178,253.79Z"/></g></g></svg>