<svg xmlns="http://www.w3.org/2000/svg" viewBox="0 0 423.4 423.62"><title>edit</title><g id="Слой_2" data-name="Слой 2"><g id="Слой_1-2" data-name="Слой 1"><path d="M226.19,85.13c6.5,6.6,13.1,13.2,19.7,19.8,1.7,1.6,1.8,3,0,4.5-.8.7-1.6,1.6-2.4,2.4q-84.3,84.3-168.6,168.4a33.9,33.9,0,0,0-8.6,15c-4.7,16.2-9.5,32.4-14.2,48.6-1.5,5.1-3,10.2-4.2,15.4a5.57,5.57,0,0,0,.8,4.2c3.7,4,7.6,7.8,11.5,11.6a4.7,4.7,0,0,0,3.5,1.2q33.75-9.75,67.4-19.9a13.63,13.63,0,0,0,5.4-3.5q74.85-74.7,149.6-149.4c9.7-9.6,19.7-18.9,29.6-28.5,7.3,7.3,14.6,14.8,22.1,22.1,2.1,2,1.6,3.3-.2,5.1-18.5,18.4-36.9,36.9-55.4,55.3q-46.5,46.2-93,92.2c-10.9,10.8-21.7,21.6-33,31.9-2.8,2.6-7.1,3.9-11,5.1-24.7,7.4-49.4,14.6-74.1,21.8-16.6,4.9-33.2,9.8-49.8,14.5-13.1,3.6-24.2-7.5-20.6-20.5,5.2-18.5,10.7-36.9,16.1-55.3,7.3-24.7,14.5-49.4,21.9-74.1a15,15,0,0,1,3.8-6.1q28.35-28.5,56.8-56.9,48.6-48.3,97.5-96.6C206.39,103.83,216.29,94.63,226.19,85.13Z"/><path d="M113.49,336.63c-1.2-7.1-2.3-14.4-3.7-21.6a3.37,3.37,0,0,0-2.1-2.1c-8-2-16.1-3.8-23.1-5.5q89.55-91.2,179.6-183c11.1,11.1,21.1,21.2,30.7,30.7Q204.29,245.88,113.49,336.63Z"/><path d="M285.89,27.43c9-8,16.4-18.4,28.2-24.1,13.4-6.4,32-3.3,42.3,6.9,19,19,38.2,37.9,57.1,57.2,7.2,7.4,10.1,16.6,9.9,27.2-.3,11.6-5.1,20.5-13.2,28.2-5,4.8-9.5,10-14,14.7C359.29,100.83,322.69,64.23,285.89,27.43Z"/><path d="M355.89,182,241.39,67.53c8.7-8.2,17.5-16.4,25.8-24.2l114.5,114.5C373.49,165.63,364.69,173.83,355.89,182Z"/></g></g></svg>