<svg xmlns="http://www.w3.org/2000/svg" viewBox="0 0 537.9 461.11"><title>payment-ok</title><g id="Слой_2" data-name="Слой 2"><g id="Слой_1-2" data-name="Слой 1"><path d="M0,381.43c1.1-6.5,2.2-12.9,3.3-19.4,4.7-28.3,9.3-56.6,14-84.9q7.2-43,14.6-85.9,4.8-28,9.9-56.1c1-5.7,5.2-9.1,11-8.4,9.7,1.2,19.4,2.6,29,4.2,33.5,5.5,67,11.2,100.6,16.8,13.2,2.2,26.5,4.2,39.8,6.3,1.2.2,2.5.2,4.2.4a30.47,30.47,0,0,0-1.6-4.6c-8.7-16.3-9.8-34-9.2-52,1-28.5,14.4-51,34.4-69.9a98.6,98.6,0,0,1,55.1-26.8c28.9-4,55.4,2.5,78.6,20.8,19.4,15.3,33,34.6,39.3,58.6,2.6,9.9,2.9,20.1,2.9,30.2v10.5c5.5.3,10.7.6,15.8.9,24.1,1.5,44.2,11.7,61.5,28.1,13.5,12.8,24.5,27.4,29.9,45.5,2,6.9,2.9,14.1,4.3,21.2.2.9.3,1.8.5,2.7V235c-.2,1.5-.5,3-.7,4.6-4.3,30.5-19.2,54.6-43.7,72.9-12.2,9.1-25.9,14.9-40.6,18.5a3.34,3.34,0,0,0-3,3.2q-6.3,37.65-12.9,75.3c-2.6,14.9-5.3,29.8-8.2,44.7-1.1,5.5-3.2,7.3-8.8,6.8-9.1-.8-18.2-1.8-27.2-3.2-32.2-5.1-64.4-10.4-96.6-15.7-25.8-4.2-51.5-8.6-77.3-12.9l-81.1-13.5c-22.3-3.7-44.5-7.4-66.8-11.2-19.9-3.4-39.8-7-59.7-10.2-5.7-.9-9.4-3.6-11.2-9C0,383.93,0,382.63,0,381.43Zm327.6-170.1h-3.2c-5.7-.3-11.4-.1-17-.9-21.9-3.1-40.9-12.4-57.7-26.6a12.72,12.72,0,0,0-5.8-2.6c-26.1-4.4-52.3-8.8-78.4-13.1-11.4-1.9-22.9-3.6-34.4-5.6-2.8-.5-4.6.3-5.8,2.7-1,2-2,3.9-3.1,5.8-14.7,27.1-37.4,42.1-68.1,44.5-2.8.2-3.9,1-4.3,3.8-4.5,28.1-9.2,56.2-13.9,84.4-.7,4.5-.7,4.4,3.2,6.2,19.2,8.6,33.5,22.2,42.5,41.3a85.51,85.51,0,0,1,7.6,28.4c.5,4.6.9,5,5.4,5.7,5.1.8,10.3,1.8,15.4,2.6q58.35,9.75,116.8,19.4,53.25,8.85,106.5,17.9c5.9,1,5.9.9,8.7-4.3.5-.9,1-1.8,1.4-2.7,4.2-9.8,10.8-17.7,18.5-24.9,9.8-9.1,20.6-16.6,33.6-19.8,7.2-1.8,14.8-2.2,22.2-3.1,1.7-.2,2.8-.5,3.1-2.5,1.6-10.6,3.4-21.1,5.2-31.6.5-2.5-.4-3.6-2.8-3.9-2.9-.4-5.8-.6-8.7-1.2-35-7.2-60.6-27.1-77-58.6-8.7-16.8-12.6-34.8-10.7-53.8C327.2,216.23,327.4,213.93,327.6,211.33ZM515,227.23c-.5-5.9-.4-12.6-1.7-19-4.1-20-14.9-35.8-31-48.2-19-14.6-40.8-17.8-63.7-14.8-26.4,3.4-45.5,18.2-58.9,40.8-8.3,14.1-10.6,29.6-10,45.7.8,20.7,8.5,38.6,22.7,53.6,14.4,15.2,32.5,22.7,53.1,24.1,17.2,1.2,33.9-1.3,48.9-10.3C501.2,283.13,514.5,259.23,515,227.23ZM402.3,105.83h.4c-.4-6.4-.2-12.9-1.4-19.1-4.2-20.5-15.4-36.8-32.2-49-18.1-13.1-38.6-17.2-60.4-14.5-19.7,2.5-36.8,10.9-50.2,25.7-14.1,15.6-20.5,34.3-21.1,55.1-.8,29.2,10.9,52.6,34.4,69.5,18.2,13.1,39.1,17.1,61.3,14.1a3.2,3.2,0,0,0,2.1-1.7c1.5-2.7,2.5-5.7,4.1-8.4,13.3-22.3,31.5-39.3,55.7-49.2,5.1-2.1,7.4-5.2,7.3-10.5C402.2,113.93,402.3,109.93,402.3,105.83ZM363.5,430c3.2.6,6.1,1.1,9.1,1.6,10.6,1.7,21.3,3.5,31.9,5.1,4.1.6,4.1.4,4.9-3.6,1-5.4,2.1-10.8,3.1-16.2,1.4-7.9,2.7-15.8,4-23.7C394.9,390.33,366.5,410,363.5,430ZM54.7,193a23.85,23.85,0,0,0,2.7,0,56.61,56.61,0,0,0,29.7-11.6,51.77,51.77,0,0,0,15.6-20.5c.8-1.8.8-3.1-1.6-3.5-12.3-2.1-24.6-4.3-36.9-6.5-1.6-.3-2.6.2-2.9,2-.5,3.2-1.2,6.3-1.7,9.4C57.9,172.43,56.4,182.53,54.7,193Zm11.7,187.4c1.3-16.9-11.5-41.2-34.9-49.1-2.3,14-4.6,27.9-7,42.3C38.7,375.93,52.5,378.13,66.4,380.43Z"/><path d="M212.2,340.83c2.2-11.6,4-22.5,6.3-33.4,1-4.8.1-7.8-4.3-10.8-5.6-3.9-10.3-9.3-15-14.3-11.5-12.2-8.4-33.3,1.5-43.7,8.2-8.6,17.9-14.4,29.7-16.3,3.3-.5,4.8-1.8,5.2-5.2a51.42,51.42,0,0,1,2.5-10.1c1.8-5.6,6.3-8.1,12.5-7.2a10.33,10.33,0,0,1,8.9,10.5,74,74,0,0,1-1.4,11.4c-.5,2.8,0,4.5,2.7,5.9a50.44,50.44,0,0,1,18.7,17.7,27.15,27.15,0,0,1,2.7,5.7c1.8,5.4.1,9.9-4.6,13-4.3,2.8-9.3,2.4-13.2-1.6-2.5-2.6-4.2-5.9-6.4-8.8-1-1.3-2.3-2.5-3.4-3.7-.8,1.5-2,2.8-2.4,4.4-2.2,10.6-4.2,21.1-6.1,31.8a4.14,4.14,0,0,0,1.2,3.3,38.14,38.14,0,0,0,4.9,3.9,67.15,67.15,0,0,1,16.2,17c8.3,12.2,6.2,32.6-7.7,44.4A56.88,56.88,0,0,1,235.3,367c-3.9.8-5.8,2.3-6.1,6.4a39.29,39.29,0,0,1-2.1,9c-1.6,5-7.2,8.1-12.4,7.2a10.83,10.83,0,0,1-9-10.6,65.33,65.33,0,0,1,1.1-9.8c.8-5.1.4-5.6-3.9-8.5-6.2-4.1-12.3-8.2-18.1-12.7a52.93,52.93,0,0,1-8.8-8.9c-2.8-3.4-4-7.6-1.6-11.7s5.6-7.7,10.9-6.8a15.48,15.48,0,0,1,6.8,3.6c4.3,3.5,8.3,7.5,12.5,11.1C206.8,337.23,209.3,338.73,212.2,340.83Zm22.9,3.8a7.47,7.47,0,0,0,2-.2c11.8-3.7,19.1-18,8.1-28.7-2.8-2.7-3.9-2.6-4.9,1.1s-1.8,7.6-2.5,11.5C236.8,333.63,236,338.93,235.1,344.63Zm-11.6-68c.3-.2.6-.3.9-.5,1.8-9.7,3.7-19.4,5.4-29.2.4-2.4-.6-3.1-2.8-2.1-5.7,2.7-10.5,6.5-11.8,13.1-.5,2.7-.9,6,.3,8.2C217.5,270,220.8,273.23,223.5,276.63Z"/><path d="M435.7,156.83c6.4,0,10.7,3.9,11,10.4.1,2.7,1.6,3.9,3.7,4.9a44.79,44.79,0,0,1,16.6,12.3c2.6,3.1,3.8,6.6,2.8,10.7a11.2,11.2,0,0,1-17.8,5.8,39,39,0,0,1-3.6-3.4c-6.1-6.8-13.7-6.1-21.3-3.8-4.5,1.3-6,5.3-6.4,9.6-.3,4.1,2.3,6.3,5.5,7.7,4.8,2.1,10,3.6,14.8,5.8,6.2,2.8,12.7,5.3,18.3,9.1,17.5,11.7,19.1,32.8,3.7,47.3-3.8,3.6-8.6,6-13.1,8.8-2,1.2-3.1,2.5-3.2,5a11.13,11.13,0,0,1-9.2,10.7c-5.2.8-11.1-2.1-11.9-7.4-1-5.9-4.5-8.1-9.4-10.1a107.42,107.42,0,0,1-14.9-8.1c-3.4-2.1-6.2-5-6.8-9.2-.6-4.5.6-8.4,4.5-11,4.1-2.7,8.3-2.5,12.4-.1,3.5,2,6.8,4.3,10.4,6.1,6.4,3.3,13.2,4.8,20.4,3.3a10.13,10.13,0,0,0,7.8-6.6c1.9-4.8.5-9.1-4.2-11.2-5.7-2.5-11.6-4.4-17.3-6.8s-11.4-4.7-16.4-8.1c-18.1-12.5-19.3-33.2-2.9-47.9,3.5-3.1,7.7-5.5,11.7-7.9,2-1.2,3.1-2.4,3.2-4.9C424.8,161,429.3,156.93,435.7,156.83Z"/><path d="M322,172.83a10.71,10.71,0,0,1-10.9-8.9c-.5-2.7-2.6-3.2-4.5-4.2-6-3.1-12-6.2-17.9-9.5a20.13,20.13,0,0,1-4.3-3.4,11,11,0,0,1-1.7-14.4c3.4-5,8.6-6.6,13.9-3.9a54.52,54.52,0,0,1,7.1,4.7c6.8,4.7,14.1,7.2,22.4,6.1,5.8-.7,9.6-4,10.7-9.1.9-3.9.1-6.4-3.4-8.4a60.24,60.24,0,0,0-9.7-4.4c-8.8-3.2-17.7-6.3-25.6-11.6-11-7.4-15.9-18-13.2-29.8,2.6-11,9.3-19,19.2-24.4,1.1-.6,2.3-1.2,3.4-1.7,2.4-1,3.4-2.7,3.5-5.3.1-4.3,5.3-10.1,9.1-10.5,5.5-.5,11.3,2.7,12.2,8,.9,5.1,3.4,7.5,7.9,9.5,5.6,2.5,10.1,6.9,13.8,11.9a10.67,10.67,0,0,1-1.6,14.8,11,11,0,0,1-15.1-.6,14.48,14.48,0,0,1-1.7-1.8c-6.3-7-14.1-6.8-22.2-4.5-4.2,1.2-6.1,4.8-6.7,8.9s2,6.4,5.1,8c3.8,1.9,7.9,3.3,11.8,5,7.1,3.2,14.7,5.7,21.2,9.9,18.4,11.9,20.1,32.1,4.2,47.3-3.6,3.4-8,6-12.2,8.7-2,1.3-3.5,2.4-3.9,5.1C332.4,169.23,327.5,172.83,322,172.83Z"/></g></g></svg>