<svg xmlns="http://www.w3.org/2000/svg" viewBox="0 0 370.03 330.65"><title>salaries</title><g id="Слой_2" data-name="Слой 2"><g id="Слой_1-2" data-name="Слой 1"><path d="M369.93,87.26c-2.2,2.2-4,4.8-6.5,6.4-18.9,12.1-38,24.1-57.1,36a16.25,16.25,0,0,1-7,2.4c-3.6.3-6.1-1.8-7.4-5.1a7.47,7.47,0,0,1,1.8-8.6,23.22,23.22,0,0,1,4-3c14.5-9.2,29.1-18.3,43.6-27.5,1.1-.7,2.2-1.4,3.6-2.4-1.4-.9-2.5-1.5-3.6-2.2q-56.1-31.95-112.2-63.8a5,5,0,0,0-5.8.1c-21.6,13.7-43.3,27.3-65,41l-3,2c1.5.9,2.7,1.6,3.9,2.3q58.5,33.3,117,66.4c4.7,2.6,6.6,6,6.5,11.3-.1,31.6-.1,63.3,0,94.9,0,5.1-1.7,8.6-6.1,11.3-13.2,8.1-26.3,16.4-39.4,24.7-3.3,2.1-6.7,3.4-10.5,1.4s-4.4-5.6-4.4-9.6c.1-29.8,0-59.7.1-89.5,0-2.8-1-4.2-3.3-5.5q-60.3-34-120.3-68.4c-2.5-1.4-4.1-1.3-6.4.2q-32,20.25-64.1,40.4c-1.1.7-2.1,1.4-3.5,2.3,1.5.9,2.6,1.6,3.7,2.2q55.95,31.8,111.9,63.7c2.5,1.4,4.1,1.2,6.4-.3,17.4-11.1,35-22.1,52.5-33.1,2.8-1.8,5.6-3.3,9.1-1.9a8.16,8.16,0,0,1,3.1,13.5,17,17,0,0,1-3.4,2.6c-19.3,12.2-38.7,24.3-57.9,36.6-4.2,2.7-8,2.8-12.4.3q-65.7-37.5-131.6-74.9c-8.2-4.7-8.3-11.6-.3-16.7Q113,69.56,219.73,2.16c4.2-2.7,8-2.9,12.4-.4,43.8,25,87.8,49.9,131.6,75,2.5,1.4,4.2,4.1,6.2,6.2Zm-258,2.6c1.6,1,2.9,1.7,4.1,2.4q58.35,33.15,116.6,66.2c4.7,2.7,6.8,6,6.8,11.5-.2,26-.1,52-.1,77.9v4.4c1.6-.9,2.7-1.4,3.6-2,6.7-4.2,13.4-8.6,20.2-12.6a5.31,5.31,0,0,0,3-5.4q-.15-36.45-.1-72.9v-4.1c-3.2,2-5.8,3.6-8.5,5.2-4.7,2.8-9.6,2.1-12.1-1.7-2.8-4.2-1.6-9.2,3.2-12.4,3-2,6-3.9,9.4-6-1.4-.8-2.5-1.5-3.6-2.2l-41.7-23.7c-23.6-13.4-47.2-26.9-70.9-40.2-1.2-.7-3.3-1-4.4-.3C129.13,79,120.83,84.26,111.93,89.86Z"/><path d="M369.93,154.46c-2.6,2.4-4.9,5.2-7.8,7-18.4,11.8-36.9,23.3-55.4,35a33,33,0,0,1-4.1,2.3,8,8,0,0,1-9.8-3.1,7.9,7.9,0,0,1,1-10.2,22.41,22.41,0,0,1,3.4-2.7c19.3-12.2,38.6-24.3,57.9-36.5,6.9-4.3,11-3.2,14.9,3.8C369.93,151.56,369.93,153,369.93,154.46Z"/><path d="M369.93,120.46c-2.2,2.3-4.1,5.1-6.7,6.7-19.2,12.3-38.5,24.4-57.9,36.5-5.9,3.7-11.5,2.1-13.5-3.7a7.42,7.42,0,0,1,1.7-8,21.57,21.57,0,0,1,3.7-2.9l57.6-36.3c7.1-4.5,11.3-3.3,15.1,4Z"/><path d="M369.93,187.66c-2.5,2.4-4.6,5.2-7.4,7-18.6,11.9-37.4,23.7-56.1,35.4a18.11,18.11,0,0,1-5.9,2.5,7.29,7.29,0,0,1-8.2-4.4,7.75,7.75,0,0,1,1.5-9.3,20,20,0,0,1,3.7-2.8q28.65-18.15,57.4-36.1c6.8-4.3,11-3.3,15.1,3.5C369.93,184.76,369.93,186.16,369.93,187.66Z"/><path d="M214.13,250c.1,3.4-1.6,5.8-4.3,7.5-20.3,12.8-40.7,25.6-61,38.4-3.8,2.4-7.2,1.4-10.8-.6q-47.25-27-94.6-53.8c-12.4-7.1-24.9-14.1-37.3-21.2-5.1-2.9-6.8-6.5-5.3-10.8a7.86,7.86,0,0,1,10-5.2,34.85,34.85,0,0,1,5.2,2.4q62.4,35.4,124.6,70.9c2.3,1.3,3.9,1.2,6.1-.2,17.5-11.2,35.1-22.2,52.7-33.3,2.9-1.8,5.9-3.3,9.5-1.7A8,8,0,0,1,214.13,250Z"/><path d="M214.13,283.36c.2,3.4-1.6,5.8-4.3,7.5-20.3,12.9-40.7,25.6-61,38.4-3.8,2.4-7.2,1.4-10.8-.7-25.7-14.7-51.4-29.2-77.1-43.9C42.93,274.46,25,264.26,7,254a28.16,28.16,0,0,1-3.6-2.4,8.07,8.07,0,0,1-1.9-10.4,8.27,8.27,0,0,1,9.7-3.7,18.79,18.79,0,0,1,4.5,2.2q62.55,35.55,125,71.2c2.3,1.3,3.8,1.3,6.1-.1,17.5-11.2,35.2-22.2,52.8-33.3,2.9-1.8,5.9-3.3,9.5-1.8A8.31,8.31,0,0,1,214.13,283.36Z"/><path d="M144.23,264.26a36.27,36.27,0,0,1-5.6-2.3L6,186.66c-3.5-2-6-4.6-5.6-8.9a8,8,0,0,1,5.4-7c3.3-1.2,6.1,0,8.9,1.6q35.4,20.1,70.8,40.3,27.6,15.6,55.1,31.4c2.3,1.3,3.9,1.4,6.1-.1q26.1-16.65,52.5-33.1a16.25,16.25,0,0,1,7-2.4c3.4-.3,5.9,1.7,7.2,4.9a7.61,7.61,0,0,1-1.5,8.7,20.56,20.56,0,0,1-3.7,2.9q-28.95,18.3-58,36.5C148.43,262.56,146.23,263.26,144.23,264.26Z"/></g></g></svg>