<svg xmlns="http://www.w3.org/2000/svg" viewBox="0 0 340.49 364.91"><title>search</title><g id="Слой_2" data-name="Слой 2"><g id="Слой_1-2" data-name="Слой 1"><path d="M340.49,331.8V337c-.1.6-.3,1.2-.4,1.8-1.8,14.3-14.6,25.8-29,26.1a30.79,30.79,0,0,1-23.4-9.5l-67.3-67.3c-4-4-8-8.2-12.2-12.5.4.1.3,0,.3,0-.3.1-.7.3-1,.4a143.36,143.36,0,0,1-83.6,12.4c-28.5-4.2-53.6-16.1-75.2-35.2-40.6-35.7-57.9-92.5-43.9-144.8C16,66.8,41,36,79,15.9A137.43,137.43,0,0,1,128,1c3.3-.4,6.5-.7,9.8-1h14.9a11.27,11.27,0,0,0,1.8.3A132.43,132.43,0,0,1,183.09,5a144.91,144.91,0,0,1,105.8,159.2,142.69,142.69,0,0,1-29.5,70.1c-.9,1.2-1.9,2.4-2.9,3.7l17.3,17.3q28.35,28.35,56.8,56.7a31.67,31.67,0,0,1,8.8,15.2C339.89,328.8,340.09,330.3,340.49,331.8Zm-80.8-186.7A114.42,114.42,0,0,0,145.19,30.6C82,30.5,30.69,81.8,30.59,145a114.55,114.55,0,1,0,229.1.1Z"/></g></g></svg>