<svg xmlns="http://www.w3.org/2000/svg" viewBox="0 0 358.52 358.65"><title>setting</title><g id="Слой_2" data-name="Слой 2"><g id="Слой_1-2" data-name="Слой 1"><path d="M0,240.15c2.6-9,5.1-18.1,7.7-27.1.3-1.1.5-2.3.9-3.4,1.7-5.4,5.5-7.5,11.1-6.1,6.9,1.8,13.8,3.6,20.6,5.5,2,.6,3.2.2,4.7-1.4,5.6-5.9,11.3-11.7,17.3-17.2,1.5-1.4,2-2.5,1.4-4.4-1.9-6.8-3.8-13.7-5.5-20.6-1.6-6.2.5-9.8,6.8-11.5,9.7-2.7,19.3-5.3,29-7.8,5.8-1.5,9.6.7,11.2,6.4,1.9,6.8,3.8,13.7,5.5,20.6.5,2.2,1.5,3,3.8,3.5,7.7,1.7,15.3,3.8,22.9,6.1,2.2.7,3.5.8,5.2-1,4.7-5,9.7-9.8,14.6-14.6s9.1-4.7,13.9,0c6.9,6.8,13.7,13.7,20.5,20.5,4.8,4.8,4.8,9.1,0,13.9s-9.7,9.8-14.6,14.6c-1.5,1.5-2.1,2.7-1.1,4.8a65.64,65.64,0,0,1,6.3,23.9c.2,2.2,1.4,2.6,3.1,3.1l20.3,5.4c6.6,1.8,8.6,5.4,6.9,12-2.5,9.5-5,18.9-7.6,28.3-1.7,6.2-5.3,8.4-11.5,6.8-6.9-1.8-13.7-3.6-20.6-5.5-1.9-.5-3-.1-4.4,1.4-5.6,5.9-11.3,11.7-17.2,17.3-1.7,1.6-2,2.7-1.4,4.7,1.9,6.7,3.7,13.5,5.4,20.3,1.6,6.2-.6,9.9-6.7,11.6-8.8,2.4-17.6,4.7-26.3,7.1-1.2.3-2.3.9-3.5,1.3h-4.9c-3.7-2.1-5.3-5.5-6.3-9.5-1.5-6.2-3.3-12.4-4.9-18.6-.5-1.8-1.1-2.7-3.2-2.9a68.17,68.17,0,0,1-23.5-6.2c-2.2-1.1-3.5-.6-5.1,1.1-4.8,5-9.7,9.8-14.6,14.6-4.7,4.7-9,4.7-13.7,0-7-6.9-13.9-13.8-20.8-20.8-4.8-4.9-4.8-9,.1-13.9,4.7-4.8,9.5-9.6,14.4-14.3,1.8-1.7,1.9-3,1.2-5.4-2.4-7.6-4.4-15.4-6.1-23.2-.5-2.1-1.2-2.9-3.1-3.4-6.5-1.7-13-3.6-19.6-5.2-3.9-.9-6.8-2.9-8.3-6.6A19.81,19.81,0,0,1,0,240.15ZM17.8,237c7,1.9,13.6,3.6,20.2,5.4,6.4,1.7,8.1,3.4,8.4,10.2a65.81,65.81,0,0,0,7.7,28.8c3.2,5.9,2.7,8.5-2.1,13.3l-14.2,14.2c4.1,4.1,8,7.9,12,11.9,4.7-4.7,9.7-9.8,14.8-14.8,4-4,7-4.6,11.9-1.9a65.74,65.74,0,0,0,28.7,8c7.9.3,9.2,1.7,11.2,9.3,1.7,6.4,3.5,12.7,5.3,19.4,5.5-1.5,10.7-2.9,16.1-4.3-1.9-7.2-3.8-14.2-5.6-21.2-1.4-5.3-.5-8.3,4.1-11a66.35,66.35,0,0,0,22.5-22.5c2.7-4.4,5.7-5.4,10.8-4,6.1,1.6,12.2,3.3,18.2,4.9a28.37,28.37,0,0,0,3.1.6c1.4-5.4,2.8-10.6,4.2-16-7.1-1.9-13.9-3.7-20.6-5.6-6.1-1.7-7.7-3.6-8-9.8a64.42,64.42,0,0,0-7.7-29.1c-3.2-6-2.7-8.5,2.2-13.3s9.7-9.7,14.2-14.2c-4-4.1-7.8-7.9-11.8-11.9l-14.7,14.7c-4.4,4.4-7.1,4.9-12.5,2a67.13,67.13,0,0,0-28.4-7.9c-8.1-.4-9.2-1.6-11.4-9.6-1.7-6.3-3.4-12.5-5.2-19.1-5.5,1.5-10.6,2.8-16,4.3.3,1.3.4,2.3.7,3.3,1.6,6.1,3.3,12.2,4.9,18.2,1.3,4.9.3,7.9-3.9,10.5a67.49,67.49,0,0,0-23,23c-2.5,4.1-5.6,5-10.2,3.9-3.8-1-7.6-2.1-11.5-3.1-3.3-.9-6.7-1.7-10.2-2.6C20.6,226.35,19.3,231.45,17.8,237Z"/><path d="M241.7,212.85c-2.1-.5-5.1-1.3-8.2-2.1-7.7-2-15.3-4.1-23-6.2-6.4-1.8-8.5-5.4-6.8-11.8,1.7-6.7,3.4-13.3,5.3-19.9.6-2.2.2-3.4-1.5-5-5.9-5.5-11.5-11.2-17-17-1.4-1.5-2.5-2.1-4.4-1.5-6.8,1.9-13.7,3.7-20.6,5.5-6.2,1.6-9.8-.5-11.5-6.7-2.7-9.7-5.3-19.3-7.8-29-1.5-5.7.7-9.6,6.4-11.2,6.8-1.9,13.7-3.8,20.6-5.5,2.2-.6,3-1.5,3.5-3.9,1.7-7.7,3.8-15.3,6.1-22.9.7-2.2.7-3.5-1-5.1-5-4.7-9.8-9.7-14.7-14.6-4.6-4.7-4.7-9-.1-13.7,7-7.1,14-14.1,21-21.1,4.6-4.5,8.8-4.4,13.4.1,5.1,5,10.1,10,15.1,15.1,1.3,1.4,2.4,1.7,4.3.8a68.41,68.41,0,0,1,24.2-6.4c2-.2,2.5-1.2,2.9-2.8,1.8-6.9,3.6-13.7,5.5-20.6,1.8-6.3,5.4-8.5,11.8-6.8,9.6,2.5,19.2,5.1,28.7,7.7,6,1.6,8.2,5.4,6.6,11.3-1.8,6.9-3.6,13.8-5.5,20.6-.6,2-.1,3.2,1.5,4.7,5.9,5.5,11.6,11.1,17,17,1.6,1.8,2.8,2.1,5,1.5,6.5-1.9,13-3.6,19.6-5.3,6.8-1.8,10.4.3,12.3,7,2.5,9.2,5,18.4,7.5,27.7,1.8,7-.2,10.5-7.3,12.4-6.6,1.8-13.3,3.6-19.9,5.3-1.7.4-2.7,1-2.9,3.2a68.17,68.17,0,0,1-6.2,23.5c-1.1,2.2-.6,3.5,1.1,5.1,5,4.8,9.8,9.7,14.6,14.6,4.6,4.7,4.7,9,0,13.7-6.9,7-13.8,13.9-20.8,20.8-4.7,4.6-9,4.6-13.7,0-5-4.9-10-9.8-14.8-14.9a3.74,3.74,0,0,0-4.9-.9,66.57,66.57,0,0,1-23.5,6.2c-2,.2-2.7,1.1-3.2,2.9-1.8,7-3.7,14-5.6,20.9C249.5,210.35,246.6,212.75,241.7,212.85Zm67-37.9,12.1-12.1c-4.7-4.6-9.8-9.6-14.8-14.7-3.9-3.9-4.5-6.9-1.9-11.6a65.75,65.75,0,0,0,8.1-29.4c.3-7.3,1.8-8.8,9.1-10.7,6.4-1.7,12.8-3.4,19.6-5.3-1.5-5.4-2.9-10.7-4.3-16.2-6.8,1.8-13.2,3.5-19.6,5.3-7.4,2-9.6,1.2-13.6-5.3a59.94,59.94,0,0,0-19.3-19.5c-7.3-4.6-7.9-6.4-5.6-14.8,1.7-6.2,3.3-12.3,5-18.8-5.6-1.5-10.8-2.9-16.2-4.3-1.1,4-2.1,7.5-3,10.9-1,3.6-1.9,7.2-2.9,10.8-1.3,4.5-3.5,6.6-7.8,6.7a69.46,69.46,0,0,0-32.4,8.7c-3.5,2-7,1.3-10-1.4-1.3-1.2-2.5-2.5-3.7-3.7-4.2-4.2-8.3-8.4-11.9-12l-12,12c4.5,4.5,9.4,9.3,14.3,14.2,4.6,4.6,5.1,7.2,2.1,12.7a66,66,0,0,0-7.9,29.1c-.3,6.6-2,8.6-8.3,10.3-6.6,1.8-13.3,3.5-20.3,5.4,1.5,5.5,2.8,10.7,4.3,16.2l19.6-5.2c7.4-2,9.7-1.2,13.7,5.3a60.49,60.49,0,0,0,19.6,19.7c6.8,4.3,7.5,6.4,5.4,14.2-1.7,6.3-3.4,12.6-5.1,19.2,5.6,1.5,10.8,2.8,16.2,4.3,2.1-7.6,3.9-14.7,5.9-21.7,1.4-4.8,3.6-6.6,8.5-6.8a67.75,67.75,0,0,0,30.8-8.2c4.9-2.7,7.8-2.1,11.9,2C299.2,165.25,304.1,170.35,308.7,175Z"/><path d="M106.4,208.65A43.3,43.3,0,1,1,63.2,252,43.36,43.36,0,0,1,106.4,208.65Zm27.4,43.2a27.25,27.25,0,0,0-54.5.2c0,15,12.7,27.6,27.5,27.3C121.8,279,133.9,266.65,133.8,251.85Z"/><path d="M208.8,106.45c-.1-23.7,19.6-43.4,43.5-43.4,23.5-.1,43.2,19.8,43.1,43.4a43.79,43.79,0,0,1-43.7,43.3C228.3,149.55,208.9,130.05,208.8,106.45Zm43.1,27.2a27.3,27.3,0,1,0-27-27.3A27.51,27.51,0,0,0,251.9,133.65Z"/></g></g></svg>