<svg xmlns="http://www.w3.org/2000/svg" viewBox="0 0 499.65 464.28"><title>task-fail</title><g id="Слой_2" data-name="Слой 2"><g id="Слой_1-2" data-name="Слой 1"><path d="M303.47,464.28c-49.7,0-99.5-.1-149.2,0-23.6.1-42.9-17.8-46.3-40.2-1.7-10.8,1-20.7,6.4-30.1,10.6-18.7,20.9-37.5,31.4-56.3q30.6-55.05,61.3-110.2,21.45-38.7,43-77.4c3.7-6.7,7.3-13.5,11.2-20.1,7.4-12.6,18.6-19.9,32.9-22,14.6-2.1,27.7,1.6,38.9,11.4a45.71,45.71,0,0,1,9.1,11.4q31.5,55,62.9,110,44.4,77.7,88.9,155.4c8.9,15.5,7.2,35.5-4.1,49.7-7.6,9.6-17.2,15.7-29.3,17.7a64.83,64.83,0,0,1-7.6.6C403,464.28,353.27,464.28,303.47,464.28Zm0-35.7h149.6a17.22,17.22,0,0,0,3.9-.4,8.8,8.8,0,0,0,7.4-7.4c.4-2.7-.6-5.1-1.9-7.4-10.7-18.7-21.3-37.3-32-56l-43.2-75.6q-27.75-48.45-55.4-96.8c-6.8-12-13.6-23.9-20.5-35.9-2.2-3.9-5.5-6.5-10.2-6.4s-7.8,2.7-9.9,6.7c-3.5,6.4-7.1,12.8-10.6,19.2-13.8,24.9-27.7,49.8-41.5,74.8q-21.9,39.45-43.8,78.8c-12.8,23-25.6,46.1-38.4,69.1-4.3,7.7-8.6,15.3-12.8,23.1-2.3,4.2-2.1,8.1.6,10.9,2.4,2.6,5.6,3.4,9.1,3.4Q228.57,428.53,303.47,428.58Z"/><path d="M295.07,73.48c-13,1-25.1,4.3-36.3,10.8-19.1-23.8-43.3-39.7-73.3-45.9a121.27,121.27,0,0,0-74,7.5,124.79,124.79,0,0,0-75.7,118.9c1,28.7,10.7,54.2,29.2,76.2s42,35.9,70.2,42.1c-5.9,10.6-11.7,21.1-17.5,31.5-60.5-16.1-115.2-72.5-117.6-149.1A160.77,160.77,0,0,1,123.67,4.38C196.57-12.82,263,22.78,295.07,73.48Z"/><path d="M71.57,142.88h71.2V71.68h35.6v106.9H71.47C71.57,166.68,71.57,154.88,71.57,142.88Z"/><path d="M321.27,321.38h-35.5V214.48h35.5Z"/><path d="M285.77,392.68v-35.5h35.5v35.5Z"/></g></g></svg>