<svg xmlns="http://www.w3.org/2000/svg" viewBox="0 0 493.4 475.8"><title>task-new</title><g id="Слой_2" data-name="Слой 2"><g id="Слой_1-2" data-name="Слой 1"><path d="M345.7,475.8c-3.3-.3-6.5-.6-9.8-1a141.29,141.29,0,0,1-108.4-75.1c-2-3.9-3.9-7.9-5.8-12H0V0H422.9V211.1a3,3,0,0,0,1.7,3,141.51,141.51,0,0,1,55.6,61.3,135.72,135.72,0,0,1,12.2,42.7c.4,3.3.7,6.6,1,9.9v13.7a10.79,10.79,0,0,0-.3,1.9c-.4,3.5-.6,7-1.1,10.5a137.48,137.48,0,0,1-17.9,51.6,141.51,141.51,0,0,1-62.8,57A132.18,132.18,0,0,1,369,474.6c-3.2.4-6.4.7-9.6,1C354.8,475.8,350.3,475.8,345.7,475.8ZM387.6,35.3H35.3v317H212.5a134.09,134.09,0,0,1,.1-35.8,141.92,141.92,0,0,1,9.3-34.6H141V246.7h99.8a4.12,4.12,0,0,0,3.4-1.6,138.87,138.87,0,0,1,34.7-30.6c1.5-.9,3.1-1.8,4.6-2.8,0-.1-.1-.2-.1-.3H141V176.3H352.4v17.5a144.48,144.48,0,0,1,35.2,5ZM352.3,440.6A105.76,105.76,0,1,0,246.7,332.8,105.54,105.54,0,0,0,352.3,440.6Z"/><path d="M140.9,140.8v-35H352.2v35Z"/><path d="M105.5,140.8h-35V105.7h35Z"/><path d="M105.5,176.3v35h-35v-35Z"/><path d="M105.5,281.8h-35v-35h35Z"/><path d="M370,352.4v52.9H334.9V352.5H282V317.3h52.8V264.4H370v52.8h52.9v35.2Z"/></g></g></svg>