<svg xmlns="http://www.w3.org/2000/svg" viewBox="0 0 541.9 541.7"><title>task-ok</title><g id="Слой_2" data-name="Слой 2"><g id="Слой_1-2" data-name="Слой 1"><path d="M0,282.6V258.3c.2-1,.4-2,.5-3A257.75,257.75,0,0,1,8.7,203,272.88,272.88,0,0,1,183.5,14.4c20.8-7.2,42.1-12,64.1-13.4,5.6-.4,11.2-.7,16.8-1h12.7a12.5,12.5,0,0,0,1.9.3,262.38,262.38,0,0,1,38.5,3.5,268.39,268.39,0,0,1,98.4,38.1q67.8,43.2,101.5,116.4c12.2,26.5,20.2,54.1,23,83.1.6,5.8,1,11.5,1.5,17.3V283c-.2,1-.4,2-.5,3a251.55,251.55,0,0,1-7.6,50.4C515,408.3,474.1,464,410.6,502.6,374,524.9,334.3,538,291.3,540.7c-5,.3-9.9.6-14.9,1H265.3c-1.2-.1-2.4-.3-3.5-.4-9.3-.8-18.6-1.2-27.8-2.4a255.11,255.11,0,0,1-82.7-25.2A272.32,272.32,0,0,1,42.7,416.2,266.44,266.44,0,0,1,1.5,299.1C1,293.7.6,288.2,0,282.6ZM514.7,270c-1.3-132.2-107-242.2-243.6-242.6C138.1,27,27.5,135.5,27.6,271.3c.2,134.9,109.9,242.3,242.1,243C403.9,515.1,514.4,405.9,514.7,270Z"/><path d="M242.7,396.4c-5.3-3.7-10.6-7-15.6-10.8q-39.9-29.7-79.6-59.6c-1.3-.9-2.3-2.1-3.6-3-5.7-3.7-5.2-11.8-2-16.6,3.8-5.6,10.5-7.9,16.1-4.6a192.65,192.65,0,0,1,17.9,12c17,12.4,33.9,25,50.9,37.5,2.1,1.6,4.5,2.9,6.7,4.3,2,1.3,3.3,1,4.7-1.1,12.4-17.7,24.8-35.2,37.2-52.8q50.7-72,101.5-144.1c2.4-3.4,4.8-6.7,9.4-7.5,7.7-1.4,15.7,4.4,16,12.2a10.5,10.5,0,0,1-1.8,5.9c-3.9,6.5-7.7,13-12,19.2Q319,287.15,249.4,386.7C247.3,389.9,245.1,393,242.7,396.4Z"/></g></g></svg>